<!-- Generated by IcoMoon.io -->
<svg version="1.1" xmlns="http://www.w3.org/2000/svg" width="32" height="32" viewBox="0 0 32 32">
<title>admintra</title>
<path fill="none" stroke="#000" stroke-width="1.5" stroke-miterlimit="4" stroke-linecap="round" stroke-linejoin="round" d="M12.83 4.39c0-0.585 0.475-1.060 1.060-1.060h4.22c0.585 0 1.060 0.475 1.060 1.060v0 2.61c0.37 0.128 0.677 0.259 0.973 0.41l-0.043-0.020 1.9-1.84c0.193-0.19 0.458-0.307 0.75-0.307s0.557 0.117 0.75 0.307l3 3c0.19 0.193 0.307 0.458 0.307 0.75s-0.117 0.557-0.307 0.75l0-0-1.92 1.85c0.14 0.31 0.27 0.61 0.38 0.93h2.65c0.585 0 1.060 0.475 1.060 1.060v0 4.22c0 0.585-0.475 1.060-1.060 1.060h-2.61c-0.11 0.32-0.24 0.62-0.38 0.93l1.83 1.9c0.19 0.193 0.307 0.458 0.307 0.75s-0.117 0.557-0.307 0.75l-3 3c-0.193 0.19-0.458 0.307-0.75 0.307s-0.557-0.117-0.75-0.307l0 0-1.85-1.93c-0.253 0.131-0.56 0.262-0.877 0.374l-0.053 0.016v2.65c0 0.585-0.475 1.060-1.060 1.060h-4.22c-0.585 0-1.060-0.475-1.060-1.060v0-2.61c-0.37-0.128-0.677-0.259-0.973-0.41l0.043 0.020-1.9 1.84c-0.193 0.19-0.458 0.307-0.75 0.307s-0.557-0.117-0.75-0.307l-3-3c-0.19-0.193-0.307-0.458-0.307-0.75s0.117-0.557 0.307-0.75l-0 0 1.92-1.85c-0.14-0.31-0.27-0.61-0.38-0.93h-2.65c-0.585 0-1.060-0.475-1.060-1.060v0-4.22c0-0.585 0.475-1.060 1.060-1.060v0h2.61c0.11-0.32 0.24-0.62 0.38-0.93l-1.83-1.9c-0.19-0.193-0.307-0.458-0.307-0.75s0.117-0.557 0.307-0.75l3-3c0.193-0.19 0.458-0.307 0.75-0.307s0.557 0.117 0.75 0.307l-0-0 1.85 1.93c0.255-0.144 0.562-0.288 0.878-0.412l0.052-0.018z"></path>
<path fill="none" stroke="#000" stroke-width="1.5" stroke-miterlimit="4" stroke-linecap="round" stroke-linejoin="round" d="M20.22 16c0 2.331-1.889 4.22-4.22 4.22s-4.22-1.889-4.22-4.22c0-2.331 1.889-4.22 4.22-4.22s4.22 1.889 4.22 4.22z"></path>
</svg>
