<!-- Generated by IcoMoon.io -->
<svg version="1.1" xmlns="http://www.w3.org/2000/svg" width="24" height="24" viewBox="0 0 24 24">
<title>admintra-sm</title>
<path fill="none" stroke="#000" stroke-width="1" stroke-miterlimit="4" stroke-linecap="round" stroke-linejoin="round" d="M9.622 3.292c0-0.442 0.358-0.8 0.8-0.8v0h3.165c0.442 0 0.8 0.358 0.8 0.8v0 1.957c0.279 0.095 0.51 0.194 0.733 0.307l-0.033-0.015 1.413-1.374c0.144-0.143 0.343-0.231 0.563-0.231s0.418 0.088 0.563 0.231l2.25 2.25c0.143 0.144 0.231 0.343 0.231 0.563s-0.088 0.418-0.231 0.563l0-0-1.44 1.388c0.1 0.233 0.2 0.458 0.285 0.7h1.987c0.438 0.003 0.792 0.357 0.795 0.795v3.165c0 0.442-0.358 0.8-0.8 0.8h-1.952c-0.083 0.24-0.18 0.465-0.285 0.7l1.373 1.425c0.143 0.144 0.231 0.343 0.231 0.563s-0.088 0.418-0.231 0.563l-2.25 2.25c-0.144 0.143-0.343 0.231-0.563 0.231s-0.418-0.088-0.563-0.231l0 0-1.388-1.463c-0.19 0.098-0.421 0.197-0.66 0.28l-0.040 0.012v1.988c-0.003 0.438-0.357 0.792-0.795 0.795h-3.163c-0.442 0-0.8-0.358-0.8-0.8v-1.952c-0.279-0.095-0.51-0.194-0.733-0.307l0.033 0.015-1.417 1.379c-0.144 0.143-0.343 0.231-0.563 0.231s-0.418-0.088-0.563-0.231l-2.25-2.25c-0.143-0.144-0.231-0.343-0.231-0.563s0.088-0.418 0.231-0.563l-0 0 1.442-1.387c-0.105-0.233-0.2-0.458-0.285-0.7h-1.99c-0.442 0-0.8-0.358-0.8-0.8v0-3.158c0-0.442 0.358-0.8 0.8-0.8v0h1.957c0.082-0.24 0.18-0.465 0.285-0.7l-1.367-1.417c-0.143-0.144-0.232-0.343-0.232-0.563s0.088-0.418 0.232-0.563l2.25-2.25c0.144-0.143 0.343-0.231 0.563-0.231s0.418 0.088 0.563 0.231l-0-0 1.382 1.443c0.192-0.108 0.423-0.217 0.661-0.31l0.039-0.013z"></path>
<path fill="none" stroke="#000" stroke-width="1" stroke-miterlimit="4" stroke-linecap="round" stroke-linejoin="round" d="M15.165 12c0 1.748-1.417 3.165-3.165 3.165s-3.165-1.417-3.165-3.165c0-1.748 1.417-3.165 3.165-3.165s3.165 1.417 3.165 3.165z"></path>
</svg>
