<!-- Generated by IcoMoon.io -->
<svg version="1.1" xmlns="http://www.w3.org/2000/svg" width="32" height="32" viewBox="0 0 32 32">
<title>admon</title>
<path fill="none" stroke="#000" stroke-width="1.5" stroke-miterlimit="4" stroke-linecap="round" stroke-linejoin="miter" d="M29 16c0 7.18-5.82 13-13 13s-13-5.82-13-13c0-7.18 5.82-13 13-13s13 5.82 13 13z"></path>
<path fill="none" stroke="#000" stroke-width="1.5" stroke-miterlimit="4" stroke-linecap="round" stroke-linejoin="miter" d="M19.55 12.89v-1.63c0-0.012 0-0.026 0-0.040 0-1.778-1.442-3.22-3.22-3.22-0 0-0 0-0 0h-1.33c-1.778 0-3.22 1.442-3.22 3.22v0.24c0 0 0 0 0 0.001 0 1.094 0.546 2.061 1.38 2.643l0.010 0.007 5.56 3.89c0.844 0.589 1.39 1.555 1.39 2.649 0 0 0 0 0 0.001v-0c0 1.778-1.442 3.22-3.22 3.22v0h-1.9c-1.778 0-3.22-1.442-3.22-3.22v0-1.65"></path>
<path stroke="#000" fill="#000" stroke-width="1.5" stroke-miterlimit="4" stroke-linecap="round" stroke-linejoin="miter" d="M15.93 6.47v19.24"></path>
</svg>
