<!-- Generated by IcoMoon.io -->
<svg version="1.1" xmlns="http://www.w3.org/2000/svg" width="24" height="24" viewBox="0 0 24 24">
<title>bell</title>
<path fill="none" stroke="#000" stroke-width="1" stroke-miterlimit="4" stroke-linecap="round" stroke-linejoin="round" d="M6 10.5c0-3.314 2.686-6 6-6v0 0c3.314 0 6 2.686 6 6v0 2.5c0 0.001 0 0.002 0 0.003 0 1.385 0.333 2.691 0.922 3.845l-0.022-0.048 0.863 1.74c0.045 0.087 0.071 0.191 0.071 0.3 0 0.367-0.297 0.665-0.664 0.667h-14.34c-0.367-0.003-0.663-0.301-0.663-0.668 0-0.109 0.026-0.213 0.073-0.304l-0.002 0.004 0.863-1.74c0.567-1.106 0.9-2.413 0.9-3.797 0-0.001 0-0.002 0-0.003v0z"></path>
<path fill="none" stroke="#000" stroke-width="1" stroke-miterlimit="4" stroke-linecap="round" stroke-linejoin="round" d="M10.7 4.5c-0.127-0.216-0.203-0.475-0.203-0.753 0-0.828 0.672-1.5 1.5-1.5s1.5 0.672 1.5 1.5c0 0.277-0.075 0.537-0.206 0.76l0.004-0.007"></path>
<path fill="none" stroke="#000" stroke-width="1" stroke-miterlimit="4" stroke-linecap="round" stroke-linejoin="round" d="M9.75 19.747c0.069 1.121 0.994 2.004 2.126 2.004 0.044 0 0.087-0.001 0.13-0.004l-0.006 0c0.037 0.002 0.080 0.004 0.124 0.004 1.132 0 2.058-0.883 2.126-1.998l0-0.006"></path>
<path fill="none" stroke="#000" stroke-width="1" stroke-miterlimit="4" stroke-linecap="round" stroke-linejoin="round" d="M5.4 16.125h13.2"></path>
</svg>
