<!-- Generated by IcoMoon.io -->
<svg version="1.1" xmlns="http://www.w3.org/2000/svg" width="24" height="24" viewBox="0 0 24 24">
<title>bill</title>
<path fill="none" stroke="#000" stroke-width="1" stroke-miterlimit="4" stroke-linecap="round" stroke-linejoin="round" d="M4 6h16c0.552 0 1 0.448 1 1v10c0 0.552-0.448 1-1 1h-16c-0.552 0-1-0.448-1-1v-10c0-0.552 0.448-1 1-1z"></path>
<path fill="none" stroke="#000" stroke-width="1" stroke-miterlimit="4" stroke-linecap="round" stroke-linejoin="round" d="M15 12c0 1.657-1.343 3-3 3s-3-1.343-3-3c0-1.657 1.343-3 3-3s3 1.343 3 3z"></path>
<path fill="none" stroke="#000" stroke-width="1" stroke-miterlimit="4" stroke-linecap="round" stroke-linejoin="round" d="M6 6c0 1.657-1.343 3-3 3v0"></path>
<path fill="none" stroke="#000" stroke-width="1" stroke-miterlimit="4" stroke-linecap="round" stroke-linejoin="round" d="M3 15c1.657 0 3 1.343 3 3v0"></path>
<path fill="none" stroke="#000" stroke-width="1" stroke-miterlimit="4" stroke-linecap="round" stroke-linejoin="round" d="M18 18c0-1.657 1.343-3 3-3v0"></path>
<path fill="none" stroke="#000" stroke-width="1" stroke-miterlimit="4" stroke-linecap="round" stroke-linejoin="round" d="M21 9c-1.657 0-3-1.343-3-3v0"></path>
</svg>
