<!-- Generated by IcoMoon.io -->
<svg version="1.1" xmlns="http://www.w3.org/2000/svg" width="32" height="32" viewBox="0 0 32 32">
<title>bill</title>
<path fill="none" stroke="#000" stroke-width="2" stroke-miterlimit="4" stroke-linecap="round" stroke-linejoin="round" d="M5.333 8.213h21.333c1.473 0 2.667 1.194 2.667 2.667v10.227c0 1.473-1.194 2.667-2.667 2.667h-21.333c-1.473 0-2.667-1.194-2.667-2.667v-10.227c0-1.473 1.194-2.667 2.667-2.667z"></path>
<path fill="none" stroke="#000" stroke-width="2" stroke-miterlimit="4" stroke-linecap="round" stroke-linejoin="round" d="M8 8.213c0 2.947-2.387 5.987-5.333 5.987v0"></path>
<path fill="none" stroke="#000" stroke-width="2" stroke-miterlimit="4" stroke-linecap="round" stroke-linejoin="round" d="M2.667 17.693v0c2.947 0 5.333 3.147 5.333 6.093"></path>
<path fill="none" stroke="#000" stroke-width="2" stroke-miterlimit="4" stroke-linecap="round" stroke-linejoin="round" d="M24 23.787c0-2.947 2.387-6.093 5.333-6.093v0"></path>
<path fill="none" stroke="#000" stroke-width="2" stroke-miterlimit="4" stroke-linecap="round" stroke-linejoin="round" d="M29.333 14.2v0c-2.947 0-5.333-3.040-5.333-5.987v0.653"></path>
<path fill="none" stroke="#000" stroke-width="2" stroke-miterlimit="4" stroke-linecap="round" stroke-linejoin="round" d="M18.667 16c0 1.473-1.194 2.667-2.667 2.667s-2.667-1.194-2.667-2.667c0-1.473 1.194-2.667 2.667-2.667s2.667 1.194 2.667 2.667z"></path>
</svg>
