<!-- Generated by IcoMoon.io -->
<svg version="1.1" xmlns="http://www.w3.org/2000/svg" width="24" height="24" viewBox="0 0 24 24">
<title>caja</title>
<path fill="none" stroke="#000" stroke-width="1" stroke-miterlimit="4" stroke-linecap="round" stroke-linejoin="round" d="M4.051 13.512v8.046h15.9v-8.046"></path>
<path fill="none" stroke="#000" stroke-width="1" stroke-miterlimit="4" stroke-linecap="round" stroke-linejoin="round" d="M18.34 9.053h1.14c0 0 0 0 0 0 0.176 0 0.324 0.12 0.366 0.283l0.001 0.003 1.7 3.7c0.007 0.028 0.012 0.060 0.012 0.093 0 0.209-0.169 0.378-0.378 0.378-0 0-0 0-0.001 0h-18.361c-0 0-0 0-0.001 0-0.209 0-0.378-0.169-0.378-0.378 0-0.033 0.004-0.065 0.012-0.096l-0.001 0.003 1.7-3.7c0.043-0.166 0.191-0.286 0.367-0.286 0 0 0 0 0 0h1.035"></path>
<path fill="none" stroke="#000" stroke-width="1" stroke-miterlimit="4" stroke-linecap="round" stroke-linejoin="round" d="M12 4.862v4.4"></path>
<path fill="none" stroke="#000" stroke-width="1" stroke-miterlimit="4" stroke-linecap="round" stroke-linejoin="round" d="M13.32 7.942l-1.32 1.32-1.32-1.32"></path>
<path fill="none" stroke="#000" stroke-width="1" stroke-miterlimit="4" stroke-linecap="round" stroke-linejoin="round" d="M16.621 7.062c0 2.552-2.068 4.62-4.62 4.62s-4.62-2.068-4.62-4.62c0-2.552 2.068-4.62 4.62-4.62s4.62 2.068 4.62 4.62z"></path>
</svg>
