<!-- Generated by IcoMoon.io -->
<svg version="1.1" xmlns="http://www.w3.org/2000/svg" width="24" height="24" viewBox="0 0 24 24">
<title>clock-check</title>
<path fill="none" stroke="#000" stroke-width="1" stroke-miterlimit="4" stroke-linecap="round" stroke-linejoin="miter" d="M12 5.287v6.54l4.47 2.722"></path>
<path fill="none" stroke="#000" stroke-width="1" stroke-miterlimit="4" stroke-linecap="round" stroke-linejoin="round" d="M11.168 17.797c0 2.278-1.847 4.125-4.125 4.125s-4.125-1.847-4.125-4.125c0-2.278 1.847-4.125 4.125-4.125s4.125 1.847 4.125 4.125z"></path>
<path fill="none" stroke="#000" stroke-width="1" stroke-miterlimit="4" stroke-linecap="round" stroke-linejoin="round" d="M5.168 17.55l1.327 1.35 2.423-2.25"></path>
<path fill="none" stroke="#000" stroke-width="1" stroke-miterlimit="4" stroke-linecap="round" stroke-linejoin="miter" d="M2.468 13.874c-0.139-0.616-0.218-1.324-0.218-2.050 0-5.385 4.365-9.75 9.75-9.75s9.75 4.365 9.75 9.75c0 5.384-4.365 9.749-9.749 9.75h-0"></path>
</svg>
