<!-- Generated by IcoMoon.io -->
<svg version="1.1" xmlns="http://www.w3.org/2000/svg" width="24" height="24" viewBox="0 0 24 24">
<title>clock-danger</title>
<path fill="none" stroke="#000" stroke-width="1" stroke-miterlimit="4" stroke-linecap="round" stroke-linejoin="miter" d="M11.988 5.46v6.54l4.47 2.722"></path>
<path fill="none" stroke="#000" stroke-width="1" stroke-miterlimit="4" stroke-linecap="round" stroke-linejoin="round" d="M7.413 18h-1.005l-1-4.5h3z"></path>
<path fill="none" stroke="#000" stroke-width="1" stroke-miterlimit="4" stroke-linecap="round" stroke-linejoin="round" d="M8.035 20.625c0 0.621-0.504 1.125-1.125 1.125s-1.125-0.504-1.125-1.125c0-0.621 0.504-1.125 1.125-1.125s1.125 0.504 1.125 1.125z"></path>
<path fill="none" stroke="#000" stroke-width="1" stroke-miterlimit="4" stroke-linecap="round" stroke-linejoin="miter" d="M3.744 17.19c-0.943-1.475-1.502-3.274-1.502-5.204 0-5.393 4.371-9.764 9.764-9.764s9.764 4.371 9.764 9.764c0 5.393-4.371 9.764-9.764 9.764-0.713 0-1.409-0.077-2.079-0.222l0.064 0.012"></path>
</svg>
