<!-- Generated by IcoMoon.io -->
<svg version="1.1" xmlns="http://www.w3.org/2000/svg" width="24" height="24" viewBox="0 0 24 24">
<title>comercial-sm</title>
<path fill="none" stroke="#000" stroke-width="1" stroke-miterlimit="4" stroke-linecap="round" stroke-linejoin="miter" d="M3.563 11.474v-4.5c0-0.414 0.336-0.75 0.75-0.75v0h16.5c0.414 0 0.75 0.336 0.75 0.75v0 12.9c0 0.414-0.336 0.75-0.75 0.75v0h-9.255"></path>
<path fill="none" stroke="#000" stroke-width="1" stroke-miterlimit="4" stroke-linecap="round" stroke-linejoin="miter" d="M4.463 6.224l14.535-3.87c0.067-0.018 0.145-0.028 0.225-0.028 0.415 0 0.766 0.279 0.874 0.66l0.002 0.006 0.81 3.233"></path>
<path fill="none" stroke="#000" stroke-width="1" stroke-miterlimit="4" stroke-linecap="round" stroke-linejoin="miter" d="M21.563 12.337h-3.6c-0.497 0-0.9 0.403-0.9 0.9v0 1.8c-0.001 0.011-0.001 0.025-0.001 0.038 0 0.497 0.403 0.9 0.9 0.9 0 0 0.001 0 0.001 0h3.6"></path>
<path fill="none" stroke="#000" stroke-width="1" stroke-miterlimit="4" stroke-linecap="round" stroke-linejoin="round" d="M7.65 15.262c0 1.036-0.839 1.875-1.875 1.875s-1.875-0.839-1.875-1.875c0-1.036 0.839-1.875 1.875-1.875s1.875 0.839 1.875 1.875z"></path>
<path fill="none" stroke="#000" stroke-width="1" stroke-miterlimit="4" stroke-linecap="round" stroke-linejoin="round" d="M5.813 17.137c-1.864 0-3.375 1.511-3.375 3.375v0 0.713c0 0.249 0.201 0.45 0.45 0.45v0h5.85c0.249 0 0.45-0.201 0.45-0.45v0-0.675c0-0.013 0-0.029 0-0.045 0-1.86-1.508-3.368-3.368-3.368-0.003 0-0.005 0-0.008 0h0z"></path>
</svg>
