<!-- Generated by IcoMoon.io -->
<svg version="1.1" xmlns="http://www.w3.org/2000/svg" width="32" height="32" viewBox="0 0 32 32">
<title>comercial</title>
<path fill="none" stroke="#000" stroke-width="1.5" stroke-miterlimit="4" stroke-linecap="round" stroke-linejoin="miter" d="M4.75 15.299v-6c0-0.552 0.448-1 1-1v0h22c0.552 0 1 0.448 1 1v0 17.2c0 0.552-0.448 1-1 1v0h-12.34"></path>
<path fill="none" stroke="#000" stroke-width="1.5" stroke-miterlimit="4" stroke-linecap="round" stroke-linejoin="miter" d="M5.95 8.299l19.38-5.16c0.091-0.025 0.196-0.039 0.303-0.039 0.554 0 1.021 0.372 1.165 0.88l0.002 0.009 1.080 4.31"></path>
<path fill="none" stroke="#000" stroke-width="1.5" stroke-miterlimit="4" stroke-linecap="round" stroke-linejoin="miter" d="M28.75 16.449h-4.8c-0.663 0-1.2 0.537-1.2 1.2v0 2.4c-0.001 0.015-0.001 0.032-0.001 0.050 0 0.663 0.537 1.2 1.2 1.2 0 0 0.001 0 0.001 0h4.8"></path>
<path fill="none" stroke="#000" stroke-width="1.5" stroke-miterlimit="4" stroke-linecap="round" stroke-linejoin="round" d="M10.2 20.349c0 1.381-1.119 2.5-2.5 2.5s-2.5-1.119-2.5-2.5c0-1.381 1.119-2.5 2.5-2.5s2.5 1.119 2.5 2.5z"></path>
<path fill="none" stroke="#000" stroke-width="1.5" stroke-miterlimit="4" stroke-linecap="round" stroke-linejoin="round" d="M7.75 22.849c-2.485 0-4.5 2.015-4.5 4.5v0 0.95c0 0.331 0.269 0.6 0.6 0.6h7.8c0.331 0 0.6-0.269 0.6-0.6v0-0.9c0-0.018 0-0.039 0-0.060 0-2.48-2.010-4.49-4.49-4.49-0.004 0-0.007 0-0.011 0h0.001z"></path>
</svg>
