<!-- Generated by IcoMoon.io -->
<svg version="1.1" xmlns="http://www.w3.org/2000/svg" width="24" height="24" viewBox="0 0 24 24">
<title>comments</title>
<path fill="none" stroke="#000" stroke-width="1" stroke-miterlimit="10" stroke-linecap="butt" stroke-linejoin="miter" d="M16.684 3.397h-14.092c-0.309 0.004-0.558 0.254-0.562 0.563v8.873c0.004 0.309 0.254 0.559 0.563 0.563h2.16v2.25c-0 0.003-0.001 0.007-0.001 0.012 0 0.058 0.047 0.105 0.105 0.105 0.034 0 0.064-0.016 0.083-0.041l0-0 2.873-2.3h8.872c0.307-0.004 0.555-0.254 0.555-0.562 0-0 0-0 0-0v0-8.9c0-0 0-0 0-0 0-0.308-0.248-0.558-0.555-0.563h-0z"></path>
<path fill="none" stroke="#000" stroke-width="1" stroke-miterlimit="10" stroke-linecap="butt" stroke-linejoin="miter" d="M17.246 10.605h4.268c0 0 0 0 0 0 0.253 0 0.457 0.204 0.458 0.457v7.185c0 0.253-0.205 0.458-0.458 0.458v0h-1.755v1.8c0 0.003 0 0.005 0 0.008 0 0.050-0.040 0.090-0.090 0.090-0.027 0-0.051-0.012-0.067-0.030l-0-0-2.356-1.868h-7.154c-0 0-0.001 0-0.001 0-0.252 0-0.457-0.205-0.457-0.457 0 0 0 0 0 0v0-4.853"></path>
</svg>
