<!-- Generated by IcoMoon.io -->
<svg version="1.1" xmlns="http://www.w3.org/2000/svg" width="32" height="32" viewBox="0 0 32 32">
<title>comments</title>
<path fill="none" stroke="#000" stroke-width="2" stroke-miterlimit="4" stroke-linecap="round" stroke-linejoin="round" d="M5.333 4h13.333c1.473 0 2.667 1.194 2.667 2.667v0 8c0 1.473-1.194 2.667-2.667 2.667v0h-4l-4 4-4-4h-1.333c-1.473 0-2.667-1.194-2.667-2.667v0-8c0-1.473 1.194-2.667 2.667-2.667v0z"></path>
<path fill="none" stroke="#000" stroke-width="2" stroke-miterlimit="4" stroke-linecap="round" stroke-linejoin="round" d="M21.333 10.667h5.333c1.473 0 2.667 1.194 2.667 2.667v0 8c0 1.473-1.194 2.667-2.667 2.667v0h-2.667l-2.667 4-4-4h-4c-1.473 0-2.667-1.194-2.667-2.667v0 0"></path>
</svg>
