<!-- Generated by IcoMoon.io -->
<svg version="1.1" xmlns="http://www.w3.org/2000/svg" width="32" height="32" viewBox="0 0 32 32">
<title>commercial</title>
<path fill="none" stroke="#000" stroke-width="2" stroke-miterlimit="4" stroke-linecap="round" stroke-linejoin="round" d="M16 27.653l0.587-2.133c1.933-7.040 10.227-7.040 12.16 0l0.587 2.133"></path>
<path fill="none" stroke="#000" stroke-width="2" stroke-miterlimit="4" stroke-linecap="round" stroke-linejoin="bevel" d="M26.373 16.52c0 2.047-1.66 3.707-3.707 3.707s-3.707-1.66-3.707-3.707c0-2.047 1.66-3.707 3.707-3.707s3.707 1.66 3.707 3.707z"></path>
<path fill="none" stroke="#000" stroke-width="2" stroke-miterlimit="4" stroke-linecap="round" stroke-linejoin="round" d="M10.667 25.947h-5.333c-1.473 0-2.667-1.194-2.667-2.667v0-14.667h24c1.473 0 2.667 1.194 2.667 2.667v0"></path>
<path fill="none" stroke="#000" stroke-width="2" stroke-miterlimit="4" stroke-linecap="round" stroke-linejoin="round" d="M2.667 13.68v-8c0-0.002 0-0.003 0-0.005 0-0.694 0.53-1.264 1.208-1.328l0.005-0h11.813c0.338 0.007 0.641 0.154 0.853 0.386l0.001 0.001 2.12 3.88"></path>
</svg>
