<!-- Generated by IcoMoon.io -->
<svg version="1.1" xmlns="http://www.w3.org/2000/svg" width="24" height="24" viewBox="0 0 24 24">
<title>destinos</title>
<path fill="none" stroke="#000" stroke-width="1" stroke-miterlimit="4" stroke-linecap="round" stroke-linejoin="bevel" d="M6.873 11.030q-0.181-0.018-0.366-0.018t-0.366 0.018c-1.707 0.23-3.009 1.678-3.009 3.43 0 0.617 0.161 1.195 0.444 1.697l-0.009-0.017 2.566 4.766c0.073 0.134 0.213 0.224 0.375 0.224s0.301-0.090 0.373-0.222l0.001-0.002 2.566-4.766c0.274-0.484 0.435-1.063 0.435-1.679 0-1.752-1.303-3.2-2.992-3.428l-0.018-0.002z"></path>
<path fill="none" stroke="#000" stroke-width="1" stroke-miterlimit="4" stroke-linecap="round" stroke-linejoin="bevel" d="M6.506 13.159c0.669 0 1.212 0.543 1.212 1.212s-0.543 1.212-1.212 1.212c-0.669 0-1.212-0.543-1.212-1.212s0.543-1.212 1.212-1.212z"></path>
<path fill="none" stroke="#000" stroke-width="1" stroke-miterlimit="4" stroke-linecap="round" stroke-linejoin="bevel" d="M18.45 2.888q-0.145-0.014-0.295-0.014t-0.295 0.014c-1.373 0.185-2.42 1.35-2.42 2.758 0 0.496 0.13 0.961 0.357 1.365l-0.007-0.014 2.065 3.833c0.059 0.107 0.171 0.178 0.3 0.178s0.241-0.071 0.299-0.176l0.001-0.002 2.064-3.833c0.22-0.389 0.35-0.855 0.35-1.351 0-1.409-1.047-2.573-2.406-2.757l-0.014-0.002z"></path>
<path fill="none" stroke="#000" stroke-width="1" stroke-miterlimit="4" stroke-linecap="round" stroke-linejoin="bevel" d="M18.156 4.602c0.538 0 0.975 0.437 0.975 0.975s-0.437 0.975-0.975 0.975c-0.538 0-0.975-0.437-0.975-0.975s0.437-0.975 0.975-0.975z"></path>
<path fill="none" stroke="#000" stroke-width="1" stroke-miterlimit="4" stroke-linecap="round" stroke-linejoin="bevel" d="M6.506 21.13h11.828c1.397 0 2.529-1.132 2.529-2.529v0 0c0-0.001 0-0.003 0-0.004 0-1.397-1.132-2.529-2.529-2.529 0 0 0 0 0 0h-2.122c-1.397 0-2.529-1.132-2.529-2.529v0c0-1.397 1.132-2.529 2.529-2.529v0h1.944"></path>
</svg>
