<!-- Generated by IcoMoon.io -->
<svg version="1.1" xmlns="http://www.w3.org/2000/svg" width="24" height="24" viewBox="0 0 24 24">
<title>documentar</title>
<path fill="none" stroke="#000" stroke-width="1" stroke-miterlimit="10" stroke-linecap="round" stroke-linejoin="miter" d="M10.451 19.939h-6.734c-0.396 0-0.717-0.321-0.717-0.717v0-15.066c0-0.396 0.321-0.717 0.717-0.717v0h16.566c0.396 0 0.717 0.321 0.717 0.717v0 15.066c0 0.396-0.321 0.717-0.717 0.717v0h-3.651"></path>
<path fill="none" stroke="#000" stroke-width="1" stroke-miterlimit="4" stroke-linecap="round" stroke-linejoin="round" d="M14.989 19.296l3.116-5.4c0.062-0.105 0.098-0.231 0.098-0.366 0-0.27-0.146-0.505-0.363-0.632l-0.003-0.002-0.993-0.574c-0.105-0.061-0.231-0.098-0.366-0.098-0.27 0-0.505 0.146-0.632 0.362l-0.002 0.003-3.116 5.4-0.127 2.184c-0 0.006-0.001 0.014-0.001 0.022 0 0.202 0.164 0.366 0.366 0.366 0.075 0 0.145-0.023 0.203-0.061l-0.001 0.001z"></path>
<path fill="none" stroke="#000" stroke-width="1" stroke-miterlimit="4" stroke-linecap="round" stroke-linejoin="round" d="mNaNclNaNNaNclNaNNaNNaNNaNclNaNNaNclNaNNaN"></path>
</svg>
