<!-- Generated by IcoMoon.io -->
<svg version="1.1" xmlns="http://www.w3.org/2000/svg" width="24" height="24" viewBox="0 0 24 24">
<title>expat-sm</title>
<path fill="none" stroke="#000" stroke-width="1" stroke-miterlimit="4" stroke-linecap="round" stroke-linejoin="round" d="M22.050 9.695c-0.178-0.534-0.67-0.913-1.252-0.917h-5.801l-1.74-5.115c-0.194-0.518-0.685-0.88-1.26-0.88s-1.066 0.362-1.257 0.871l-0.003 0.009-1.737 5.115h-5.8c-0.582 0.004-1.075 0.382-1.25 0.906l-0.003 0.009c-0.045 0.126-0.071 0.272-0.071 0.424 0 0.446 0.224 0.839 0.567 1.073l0.004 0.003 4.62 3.165-1.755 5.1c-0.047 0.128-0.075 0.276-0.075 0.431 0 0.445 0.226 0.836 0.57 1.066l0.005 0.003c0.21 0.145 0.47 0.232 0.75 0.232s0.54-0.087 0.754-0.235l-0.004 0.003 4.688-3.18 4.674 3.2c0.21 0.145 0.47 0.232 0.75 0.232s0.54-0.087 0.754-0.235l-0.004 0.003c0.346-0.233 0.57-0.624 0.57-1.067 0-0.155-0.028-0.304-0.078-0.442l0.003 0.009-1.757-5.1 4.62-3.165c0.357-0.236 0.59-0.635 0.59-1.089 0-0.153-0.026-0.299-0.075-0.435l0.003 0.009z"></path>
</svg>
