<!-- Generated by IcoMoon.io -->
<svg version="1.1" xmlns="http://www.w3.org/2000/svg" width="32" height="32" viewBox="0 0 32 32">
<title>expat</title>
<path fill="none" stroke="#000" stroke-width="1.5" stroke-miterlimit="4" stroke-linecap="round" stroke-linejoin="round" d="M29.4 12.926c-0.237-0.71-0.894-1.214-1.669-1.22h-7.731l-2.32-6.82c-0.259-0.69-0.913-1.172-1.68-1.172s-1.421 0.482-1.676 1.16l-0.004 0.012-2.32 6.82h-7.73c-0.776 0.006-1.433 0.51-1.666 1.207l-0.004 0.012c-0.061 0.17-0.097 0.366-0.097 0.57 0 0.592 0.297 1.114 0.751 1.426l0.006 0.004 6.16 4.22-2.34 6.8c-0.064 0.172-0.101 0.371-0.101 0.578 0 0.59 0.299 1.111 0.755 1.418l0.006 0.004c0.28 0.194 0.626 0.31 1 0.31s0.72-0.116 1.006-0.313l-0.006 0.004 6.26-4.24 6.23 4.27c0.28 0.194 0.626 0.31 1 0.31s0.72-0.116 1.006-0.313l-0.006 0.004c0.461-0.311 0.761-0.832 0.761-1.422 0-0.207-0.037-0.406-0.104-0.59l0.004 0.012-2.34-6.81 6.16-4.22c0.476-0.313 0.787-0.845 0.787-1.45 0-0.204-0.035-0.4-0.1-0.582l0.004 0.012z"></path>
</svg>
