<!-- Generated by IcoMoon.io -->
<svg version="1.1" xmlns="http://www.w3.org/2000/svg" width="24" height="24" viewBox="0 0 24 24">
<title>impresora</title>
<path fill="none" stroke="#000" stroke-width="1" stroke-miterlimit="10" stroke-linecap="round" stroke-linejoin="miter" d="M5.15 15.802l-0.795 3.7c0 0.414 0.336 0.75 0.75 0.75v0h13.4c0.414 0 0.75-0.336 0.75-0.75v0l-0.797-3.715c0-0.414-0.336-0.75-0.75-0.75v0h-11.821c-0.411 0.004-0.742 0.339-0.742 0.75 0 0.005 0 0.011 0 0.016l-0-0.001z"></path>
<path fill="none" stroke="#000" stroke-width="1" stroke-miterlimit="10" stroke-linecap="round" stroke-linejoin="miter" d="M6.315 6.93v-2.49c0-0.381 0.309-0.69 0.69-0.69h9.855c0.381 0 0.69 0.309 0.69 0.69v0 2.49"></path>
<path fill="none" stroke="#000" stroke-width="1" stroke-miterlimit="10" stroke-linecap="round" stroke-linejoin="miter" d="M18.802 17.505h1.935c0 0 0 0 0 0 1.002 0 1.815-0.813 1.815-1.815 0-0.002 0-0.005-0-0.007v0-6.93c0-0.002 0-0.005 0-0.008 0-1.002-0.813-1.815-1.815-1.815 0 0-0 0-0 0h-17.475c0 0 0 0-0 0-1.002 0-1.815 0.813-1.815 1.815 0 0.002 0 0.005 0 0.007v-0 6.915c0 0.002-0 0.005-0 0.008 0 1.002 0.813 1.815 1.815 1.815 0 0 0 0 0 0h1.545"></path>
<path fill="none" stroke="#000" stroke-width="1" stroke-miterlimit="4" stroke-linecap="round" stroke-linejoin="round" d="M20.123 9.278c0 0.369-0.299 0.668-0.668 0.668s-0.668-0.299-0.668-0.668c0-0.369 0.299-0.668 0.668-0.668s0.668 0.299 0.668 0.668z"></path>
<path fill="none" stroke="#000" stroke-width="1" stroke-miterlimit="4" stroke-linecap="round" stroke-linejoin="round" d="M17.258 9.278c0 0.369-0.299 0.668-0.668 0.668s-0.668-0.299-0.668-0.668c0-0.369 0.299-0.668 0.668-0.668s0.668 0.299 0.668 0.668z"></path>
</svg>
