<!-- Generated by IcoMoon.io -->
<svg version="1.1" xmlns="http://www.w3.org/2000/svg" width="24" height="24" viewBox="0 0 24 24">
<title>info</title>
<path fill="none" stroke="#000" stroke-width="1" stroke-miterlimit="4" stroke-linecap="round" stroke-linejoin="round" d="M10.947 11.591h2.115c0.437 0.003 0.799 0.325 0.862 0.745l0.001 0.005 0.892 5.25c0.013 0.077 0.020 0.165 0.020 0.255 0 0.915-0.742 1.657-1.657 1.657-0.002 0-0.003 0-0.005 0h-2.34c-0.003 0-0.006 0-0.008 0-0.915 0-1.657-0.742-1.657-1.657 0-0.098 0.009-0.194 0.025-0.288l-0.001 0.010 0.892-5.25c0.074-0.415 0.432-0.726 0.862-0.727h0z"></path>
<path fill="none" stroke="#000" stroke-width="1" stroke-miterlimit="4" stroke-linecap="round" stroke-linejoin="round" d="M14.357 6.851c0 1.301-1.054 2.355-2.355 2.355s-2.355-1.054-2.355-2.355c0-1.301 1.054-2.355 2.355-2.355s2.355 1.054 2.355 2.355z"></path>
</svg>
