<!-- Generated by IcoMoon.io -->
<svg version="1.1" xmlns="http://www.w3.org/2000/svg" width="24" height="24" viewBox="0 0 24 24">
<title>kiosk</title>
<path fill="none" stroke="#000" stroke-width="1" stroke-miterlimit="4" stroke-linecap="round" stroke-linejoin="round" d="M9.409 20.729v-5.974c0.025-0.422 0.373-0.754 0.799-0.754 0.016 0 0.032 0 0.049 0.001l-0.002-0h3.493c0.014-0.001 0.030-0.001 0.046-0.001 0.426 0 0.774 0.333 0.799 0.752l0 0.002v5.974"></path>
<path fill="none" stroke="#000" stroke-width="1" stroke-miterlimit="4" stroke-linecap="round" stroke-linejoin="round" d="M4.715 11.757v7.65c0.088 0.752 0.722 1.331 1.49 1.331 0.046 0 0.091-0.002 0.135-0.006l-0.006 0h11.331c0.039 0.004 0.084 0.006 0.13 0.006 0.769 0 1.402-0.578 1.49-1.324l0.001-0.007v-7.65"></path>
<path fill="none" stroke="#000" stroke-width="1" stroke-miterlimit="4" stroke-linecap="round" stroke-linejoin="round" d="M3.499 7.889v2.165c0.075 1.048 0.944 1.87 2.004 1.87 0.043 0 0.085-0.001 0.127-0.004l-0.006 0c0.036 0.002 0.078 0.004 0.121 0.004 1.061 0 1.929-0.822 2.004-1.863l0-0.006v-2.165"></path>
<path fill="none" stroke="#000" stroke-width="1" stroke-miterlimit="4" stroke-linecap="round" stroke-linejoin="round" d="M7.75 7.889v2.165c0.075 1.048 0.943 1.87 2.003 1.87 0.043 0 0.085-0.001 0.128-0.004l-0.006 0c0.036 0.002 0.078 0.004 0.121 0.004 1.060 0 1.929-0.822 2.004-1.863l0-0.006v-2.165"></path>
<path fill="none" stroke="#000" stroke-width="1" stroke-miterlimit="4" stroke-linecap="round" stroke-linejoin="round" d="M12 7.889v2.165c0.075 1.048 0.943 1.87 2.003 1.87 0.043 0 0.085-0.001 0.128-0.004l-0.006 0c0.036 0.002 0.078 0.004 0.121 0.004 1.061 0 1.929-0.822 2.004-1.863l0-0.006v-2.165"></path>
<path fill="none" stroke="#000" stroke-width="1" stroke-miterlimit="4" stroke-linecap="round" stroke-linejoin="round" d="M16.25 7.889v2.165c0.075 1.048 0.943 1.87 2.003 1.87 0.043 0 0.085-0.001 0.128-0.004l-0.006 0c0.036 0.002 0.078 0.004 0.121 0.004 1.061 0 1.929-0.822 2.004-1.863l0-0.006v-2.165"></path>
<path fill="none" stroke="#000" stroke-width="1" stroke-miterlimit="4" stroke-linecap="round" stroke-linejoin="round" d="M20.5 7.889h-17l2.421-3.95c0.254-0.409 0.7-0.677 1.209-0.677 0.001 0 0.002 0 0.003 0h9.74c0 0 0 0 0 0 0.509 0 0.955 0.268 1.205 0.671l0.003 0.006z"></path>
</svg>
