<!-- Generated by IcoMoon.io -->
<svg version="1.1" xmlns="http://www.w3.org/2000/svg" width="24" height="24" viewBox="0 0 24 24">
<title>lock</title>
<path fill="none" stroke="#000" stroke-width="1" stroke-miterlimit="4" stroke-linecap="round" stroke-linejoin="miter" d="M5.664 7.68h12.673c1.27 0 2.3 1.030 2.3 2.3v9.223c0 1.27-1.030 2.3-2.3 2.3h-12.673c-1.27 0-2.3-1.030-2.3-2.3v-9.223c0-1.27 1.030-2.3 2.3-2.3z"></path>
<path fill="none" stroke="#000" stroke-width="1" stroke-miterlimit="4" stroke-linecap="round" stroke-linejoin="miter" d="M8.419 7.679v-1.725c0-0.002 0-0.005 0-0.007 0-1.905 1.545-3.45 3.45-3.45 0.002 0 0.005 0 0.007 0h-0c1.909 0 3.457 1.548 3.458 3.457v1.725"></path>
<path fill="none" stroke="#000" stroke-width="1" stroke-miterlimit="4" stroke-linecap="round" stroke-linejoin="miter" d="M13.601 13.725c0 0.953-0.772 1.725-1.725 1.725s-1.725-0.772-1.725-1.725c0-0.953 0.772-1.725 1.725-1.725s1.725 0.772 1.725 1.725z"></path>
</svg>
