<!-- Generated by IcoMoon.io -->
<svg version="1.1" xmlns="http://www.w3.org/2000/svg" width="24" height="24" viewBox="0 0 24 24">
<title>mant-sm</title>
<path fill="none" stroke="#000" stroke-width="1.125" stroke-miterlimit="4" stroke-linecap="round" stroke-linejoin="round" d="M6.76 6v5.54c0 1.104 0.896 2 2 2h6.32v4.46c0 1.105 0.896 2 2 2v0h3.26c1.105 0 2-0.896 2-2v-10c0-2.209-1.791-4-4-4-0.001 0-0.001 0-0.002 0h-9.58c-1.105 0-2 0.896-2 2v0z"></path>
<path fill="none" stroke="#000" stroke-width="1.125" stroke-miterlimit="4" stroke-linecap="round" stroke-linejoin="round" d="M6.76 5.999v0c-0.027-0.001-0.059-0.001-0.092-0.001-1.573 0-2.854 1.247-2.908 2.807l-0 0.005c0.055 1.559 1.332 2.802 2.899 2.802 0.036 0 0.071-0.001 0.107-0.002l-0.005 0"></path>
</svg>
