<!-- Generated by IcoMoon.io -->
<svg version="1.1" xmlns="http://www.w3.org/2000/svg" width="32" height="32" viewBox="0 0 32 32">
<title>mant</title>
<path fill="none" stroke="#000" stroke-width="1.5" stroke-miterlimit="4" stroke-linecap="round" stroke-linejoin="round" d="M9.013 8v7.387c0.001 1.473 1.194 2.666 2.667 2.666h8.427v5.947c0 1.473 1.194 2.667 2.667 2.667v0h4.347c1.473 0 2.667-1.194 2.667-2.667v-13.334c0-2.945-2.388-5.333-5.333-5.333-0.001 0-0.001 0-0.002 0h-12.773c-1.473 0-2.667 1.194-2.667 2.667v0z"></path>
<path fill="none" stroke="#000" stroke-width="1.5" stroke-miterlimit="4" stroke-linecap="round" stroke-linejoin="round" d="M9.013 7.999v0c-0.036-0.001-0.079-0.002-0.122-0.002-2.097 0-3.805 1.663-3.878 3.742l-0 0.007c0.073 2.078 1.775 3.735 3.865 3.735 0.048 0 0.095-0.001 0.142-0.003l-0.007 0"></path>
</svg>
