<!-- Generated by IcoMoon.io -->
<svg version="1.1" xmlns="http://www.w3.org/2000/svg" width="24" height="24" viewBox="0 0 24 24">
<title>money-ex</title>
<path fill="none" stroke="#000" stroke-width="1" stroke-miterlimit="4" stroke-linecap="round" stroke-linejoin="miter" d="M12.338 6.892c0 2.618-2.122 4.74-4.74 4.74s-4.74-2.122-4.74-4.74c0-2.618 2.122-4.74 4.74-4.74s4.74 2.122 4.74 4.74z"></path>
<path fill="none" stroke="#000" stroke-width="1" stroke-miterlimit="4" stroke-linecap="round" stroke-linejoin="miter" d="M8.895 5.759v-0.592c0-0.646-0.524-1.17-1.17-1.17v0h-0.5c-0.001 0-0.001 0-0.002 0-0.646 0-1.17 0.524-1.17 1.17 0 0 0 0 0 0v0 0.082c0 0 0 0.001 0 0.001 0 0.395 0.196 0.745 0.496 0.957l0.004 0.002 2.040 1.417c0.306 0.217 0.505 0.568 0.51 0.966v0.001c-0.008 0.64-0.529 1.155-1.17 1.155-0.003 0-0.006 0-0.009-0h-0.7c-0.646 0-1.17-0.524-1.17-1.17v0-0.611"></path>
<path fill="none" stroke="#000" stroke-width="1" stroke-miterlimit="4" stroke-linecap="round" stroke-linejoin="miter" d="M21.143 17.107c0 2.618-2.122 4.74-4.74 4.74s-4.74-2.122-4.74-4.74c0-2.618 2.122-4.74 4.74-4.74s4.74 2.122 4.74 4.74z"></path>
<path fill="none" stroke="#000" stroke-width="1" stroke-miterlimit="4" stroke-linecap="round" stroke-linejoin="miter" d="M17.693 15.975v-0.593c0-0.002 0-0.005 0-0.007 0-0.646-0.524-1.17-1.17-1.17-0.008 0-0.016 0-0.024 0l0.001-0h-0.5c0 0-0 0-0 0-0.646 0-1.17 0.524-1.17 1.17 0 0.002 0 0.005 0 0.007v-0 0.083c0.001 0.397 0.197 0.749 0.496 0.965l0.004 0.002 2.040 1.417c0.309 0.21 0.51 0.561 0.51 0.958 0 0.001 0 0.001 0 0.002v-0c-0.001 0.65-0.528 1.177-1.178 1.177h-0.7c0 0-0 0-0 0-0.646 0-1.17-0.524-1.17-1.17 0-0.002 0-0.005 0-0.007v0-0.614"></path>
<path fill="none" stroke="#000" stroke-width="1" stroke-miterlimit="4" stroke-linecap="round" stroke-linejoin="miter" d="M10.021 18.037c-2.135-0.721-3.738-2.484-4.222-4.668l-0.008-0.042"></path>
<path fill="none" stroke="#000" stroke-width="1" stroke-miterlimit="4" stroke-linecap="round" stroke-linejoin="miter" d="M13.815 5.91c2.132 0.654 3.764 2.337 4.332 4.455l0.010 0.045"></path>
<path fill="none" stroke="#000" stroke-width="1" stroke-miterlimit="4" stroke-linecap="round" stroke-linejoin="miter" d="M14.362 7.147l-0.547-1.235 1.237-0.547"></path>
<path fill="none" stroke="#000" stroke-width="1" stroke-miterlimit="4" stroke-linecap="round" stroke-linejoin="miter" d="M9.471 16.8l0.547 1.237-1.23 0.548"></path>
</svg>
