<!-- Generated by IcoMoon.io -->
<svg version="1.1" xmlns="http://www.w3.org/2000/svg" width="24" height="24" viewBox="0 0 24 24">
<title>move-box</title>
<path fill="none" stroke="#000" stroke-width="1" stroke-miterlimit="10" stroke-linecap="round" stroke-linejoin="miter" d="M13.079 19.144c0 0.964-0.782 1.746-1.746 1.746s-1.746-0.782-1.746-1.746c0-0.964 0.782-1.746 1.746-1.746s1.746 0.782 1.746 1.746z"></path>
<path fill="none" stroke="#000" stroke-width="1" stroke-miterlimit="10" stroke-linecap="round" stroke-linejoin="miter" d="M10.678 17.525l-4.457-11.022c-0.496-1.205-1.393-2.161-2.522-2.72l-0.030-0.014-1.353-0.659"></path>
<path fill="none" stroke="#000" stroke-width="1" stroke-miterlimit="10" stroke-linecap="round" stroke-linejoin="miter" d="M9.941 8.84l7.562-3.058c0.246-0.099 0.526 0.019 0.625 0.265l2.773 6.858c0.099 0.246-0.019 0.526-0.265 0.625l-7.562 3.058c-0.246 0.099-0.526-0.019-0.625-0.265l-2.773-6.858c-0.099-0.246 0.019-0.526 0.265-0.625z"></path>
</svg>
