<!-- Generated by IcoMoon.io -->
<svg version="1.1" xmlns="http://www.w3.org/2000/svg" width="24" height="24" viewBox="0 0 24 24">
<title>mundo</title>
<path fill="none" stroke="#000" stroke-width="1" stroke-miterlimit="4" stroke-linecap="round" stroke-linejoin="round" d="M21.717 12c0 5.367-4.35 9.717-9.717 9.717s-9.717-4.35-9.717-9.717c0-5.367 4.35-9.717 9.717-9.717s9.717 4.35 9.717 9.717z"></path>
<path fill="none" stroke="#000" stroke-width="1" stroke-miterlimit="4" stroke-linecap="round" stroke-linejoin="round" d="M11.093 21.639c-1.861-2.596-2.976-5.837-2.976-9.338 0-0.106 0.001-0.212 0.003-0.318l-0 0.016c-0.002-0.090-0.003-0.195-0.003-0.301 0-3.501 1.115-6.742 3.009-9.386l-0.033 0.049"></path>
<path fill="none" stroke="#000" stroke-width="1" stroke-miterlimit="4" stroke-linecap="round" stroke-linejoin="round" d="M12.833 21.641c1.861-2.596 2.976-5.837 2.976-9.338 0-0.106-0.001-0.212-0.003-0.318l0 0.016c0.002-0.090 0.003-0.196 0.003-0.302 0-3.501-1.115-6.742-3.009-9.386l0.033 0.049"></path>
</svg>
