<svg xmlns="http://www.w3.org/2000/svg" version="1.1" width="32" height="32" viewBox="0 0 32 32">
<title>office</title>
<path fill="none" stroke="#000" stroke-width="1" stroke-miterlimit="4" stroke-linecap="round" stroke-linejoin="round" d="M5.333 11.268h21.333c1.473 0 2.667 1.194 2.667 2.667v10.667c0 1.473-1.194 2.667-2.667 2.667h-21.333c-1.473 0-2.667-1.194-2.667-2.667v-10.667c0-1.473 1.194-2.667 2.667-2.667z"/>
<path fill="none" stroke="#000" stroke-width="1" stroke-miterlimit="4" stroke-linecap="round" stroke-linejoin="round" d="M8.987 27.268v-9.067c0-0.147 0.119-0.267 0.267-0.267h13.147c0.147 0 0.267 0.119 0.267 0.267v0 9.067"/>
<path fill="none" stroke="#000" stroke-width="1" stroke-miterlimit="4" stroke-linecap="round" stroke-linejoin="round" d="M5.587 11.268v-4c3.062-1.599 6.688-2.537 10.532-2.537 3.772 0 7.333 0.903 10.479 2.504l-0.131-0.061 0.2 0.093v4"/>
</svg>