<!-- Generated by IcoMoon.io -->
<svg version="1.1" xmlns="http://www.w3.org/2000/svg" width="32" height="32" viewBox="0 0 32 32">
<title>ops</title>
<path fill="none" stroke="#000" stroke-width="1" stroke-miterlimit="4" stroke-linecap="round" stroke-linejoin="round" d="M6.333 23.633h-1.053c-1.473 0-2.667-1.194-2.667-2.667v0-12.68c0-1.473 1.194-2.667 2.667-2.667v0h13.040c1.473 0 2.667 1.194 2.667 2.667v0 9.213"></path>
<path fill="none" stroke="#000" stroke-width="1" stroke-miterlimit="4" stroke-linecap="round" stroke-linejoin="round" d="M20.947 10.553h3.707c0.001 0 0.003 0 0.004 0 0.5 0 0.945 0.233 1.234 0.597l0.003 0.003 3.013 4c0.296 0.393 0.476 0.888 0.48 1.426v6.668c0 0.147-0.119 0.267-0.267 0.267h-4.067"></path>
<path fill="none" stroke="#000" stroke-width="1" stroke-miterlimit="4" stroke-linecap="round" stroke-linejoin="round" d="M24.947 23.393c0 1.649-1.337 2.987-2.987 2.987s-2.987-1.337-2.987-2.987c0-1.649 1.337-2.987 2.987-2.987s2.987 1.337 2.987 2.987z"></path>
<path fill="none" stroke="#000" stroke-width="1" stroke-miterlimit="4" stroke-linecap="round" stroke-linejoin="round" d="M12.293 23.393c0 1.649-1.337 2.987-2.987 2.987s-2.987-1.337-2.987-2.987c0-1.649 1.337-2.987 2.987-2.987s2.987 1.337 2.987 2.987z"></path>
</svg>
