<!-- Generated by IcoMoon.io -->
<svg version="1.1" xmlns="http://www.w3.org/2000/svg" width="24" height="24" viewBox="0 0 24 24">
<title>phone-book</title>
<path fill="none" stroke="#000" stroke-width="1" stroke-miterlimit="4" stroke-linecap="round" stroke-linejoin="round" d="M7 2h12c1.105 0 2 0.895 2 2v16c0 1.105-0.895 2-2 2h-12c-1.105 0-2-0.895-2-2v-16c0-1.105 0.895-2 2-2z"></path>
<path fill="none" stroke="#000" stroke-width="1" stroke-miterlimit="4" stroke-linecap="round" stroke-linejoin="round" d="M8.725 15.122l1.313 1.313c0.199 0.199 0.474 0.321 0.777 0.321s0.578-0.123 0.777-0.321l0.748-0.748c0.199-0.199 0.321-0.474 0.321-0.777s-0.123-0.578-0.321-0.777l-0.493-0.493c0.777-1.281 1.821-2.326 3.060-3.082l0.040-0.023 0.016-0.010 0.493 0.493c0.199 0.199 0.474 0.321 0.777 0.321s0.578-0.123 0.777-0.321l0.733-0.733c0.199-0.199 0.321-0.474 0.321-0.777s-0.123-0.578-0.321-0.777l-1.314-1.313c-0.099-0.099-0.237-0.161-0.388-0.161-0.113 0-0.218 0.034-0.306 0.093l0.002-0.001c-2.827 1.896-5.185 4.254-7.023 6.99l-0.058 0.091c-0.057 0.085-0.092 0.191-0.092 0.304 0 0.152 0.061 0.289 0.161 0.388v0z"></path>
</svg>
