<!-- Generated by IcoMoon.io -->
<svg version="1.1" xmlns="http://www.w3.org/2000/svg" width="32" height="32" viewBox="0 0 32 32">
<title>phone-book</title>
<path fill="none" stroke="#000" stroke-width="2" stroke-miterlimit="4" stroke-linecap="round" stroke-linejoin="round" d="M9.333 2.667h16c1.473 0 2.667 1.194 2.667 2.667v21.333c0 1.473-1.194 2.667-2.667 2.667h-16c-1.473 0-2.667-1.194-2.667-2.667v-21.333c0-1.473 1.194-2.667 2.667-2.667z"></path>
<path fill="none" stroke="#000" stroke-width="2" stroke-miterlimit="4" stroke-linecap="round" stroke-linejoin="round" d="M11.633 20.163l1.751 1.751c0.265 0.265 0.632 0.428 1.036 0.428s0.771-0.164 1.036-0.428l0.997-0.997c0.265-0.265 0.428-0.632 0.428-1.036s-0.164-0.771-0.428-1.036l-0.657-0.657c1.036-1.708 2.427-3.102 4.080-4.11l0.053-0.030 0.021-0.013 0.657 0.657c0.265 0.265 0.632 0.428 1.036 0.428s0.771-0.164 1.036-0.428l0.977-0.977c0.265-0.265 0.428-0.632 0.428-1.036s-0.164-0.771-0.428-1.036l-1.752-1.751c-0.132-0.132-0.315-0.214-0.518-0.214-0.151 0-0.291 0.046-0.408 0.124l0.003-0.002c-3.77 2.528-6.914 5.672-9.365 9.32l-0.077 0.121c-0.077 0.114-0.122 0.254-0.122 0.405 0 0.202 0.082 0.385 0.214 0.518v0z"></path>
</svg>
