<!-- Generated by IcoMoon.io -->
<svg version="1.1" xmlns="http://www.w3.org/2000/svg" width="24" height="24" viewBox="0 0 24 24">
<title>pin</title>
<path fill="none" stroke="#000" stroke-width="1" stroke-miterlimit="4" stroke-linecap="round" stroke-linejoin="bevel" d="M12.755 1.918c-0.24 0-0.487-0.037-0.75-0.037-0.039-0.001-0.085-0.002-0.131-0.002-0.218 0-0.433 0.014-0.644 0.041l0.025-0.003c-4.819 0.473-7.444 5.948-5.142 10.215l5.142 9.538c0.145 0.271 0.426 0.452 0.75 0.452s0.605-0.181 0.748-0.448l0.002-0.005 5.13-9.533c2.306-4.272-0.319-9.747-5.13-10.22z"></path>
<path fill="none" stroke="#000" stroke-width="1" stroke-miterlimit="4" stroke-linecap="round" stroke-linejoin="bevel" d="M12.008 6.178h-0.001c1.338 0 2.423 1.085 2.423 2.423v-0.001c0 1.338-1.085 2.423-2.423 2.423h0.001c-1.338 0-2.423-1.085-2.423-2.423v0.001c0-1.338 1.085-2.423 2.423-2.423z"></path>
</svg>
