<!-- Generated by IcoMoon.io -->
<svg version="1.1" xmlns="http://www.w3.org/2000/svg" width="32" height="32" viewBox="0 0 32 32">
<title>settings</title>
<path fill="none" stroke="#000" stroke-width="2" stroke-miterlimit="4" stroke-linecap="round" stroke-linejoin="bevel" d="M13.907 4.507l0.12-0.293c0.421-0.952 1.357-1.604 2.446-1.604 1.169 0 2.162 0.752 2.522 1.798l0.006 0.019 0.093 0.307c0.353 1.088 1.357 1.861 2.542 1.861 0.372 0 0.727-0.076 1.049-0.214l-0.017 0.007 0.28-0.12c0.292-0.12 0.631-0.189 0.986-0.189 1.473 0 2.667 1.194 2.667 2.667 0 0.433-0.103 0.843-0.287 1.204l0.007-0.015-0.147 0.28c-0.187 0.355-0.297 0.776-0.297 1.223 0 1.099 0.664 2.042 1.613 2.45l0.017 0.007 0.293 0.12c0.952 0.421 1.604 1.357 1.604 2.446 0 1.169-0.752 2.162-1.798 2.522l-0.019 0.006-0.307 0.093c-1.1 0.345-1.884 1.356-1.884 2.549 0 0.37 0.075 0.721 0.211 1.041l-0.007-0.017 0.12 0.28c0.12 0.292 0.189 0.631 0.189 0.986 0 1.473-1.194 2.667-2.667 2.667-0.433 0-0.843-0.103-1.204-0.287l0.015 0.007-0.28-0.147c-0.355-0.187-0.776-0.297-1.223-0.297-1.099 0-2.042 0.664-2.45 1.613l-0.007 0.017-0.12 0.293c-0.421 0.952-1.357 1.604-2.446 1.604-1.169 0-2.162-0.752-2.522-1.798l-0.006-0.019-0.093-0.307c-0.345-1.1-1.356-1.884-2.549-1.884-0.37 0-0.721 0.075-1.041 0.211l0.017-0.007-0.28 0.12c-0.292 0.12-0.631 0.189-0.986 0.189-1.473 0-2.667-1.194-2.667-2.667 0-0.433 0.103-0.843 0.287-1.204l-0.007 0.015 0.147-0.28c0.187-0.355 0.297-0.776 0.297-1.223 0-1.099-0.664-2.042-1.613-2.45l-0.017-0.007-0.293-0.12c-0.952-0.421-1.604-1.357-1.604-2.446 0-1.169 0.752-2.162 1.798-2.522l0.019-0.006 0.307-0.093c1.1-0.345 1.884-1.356 1.884-2.549 0-0.37-0.075-0.721-0.211-1.041l0.007 0.017-0.12-0.28c-0.112-0.283-0.176-0.611-0.176-0.953 0-1.473 1.194-2.667 2.667-2.667 0.428 0 0.833 0.101 1.192 0.28l-0.015-0.007 0.28 0.147c0.355 0.187 0.776 0.297 1.223 0.297 1.099 0 2.042-0.664 2.45-1.613l0.007-0.017z"></path>
<path fill="none" stroke="#000" stroke-width="2" stroke-miterlimit="4" stroke-linecap="round" stroke-linejoin="bevel" d="M21.213 15.987c0 2.879-2.334 5.213-5.213 5.213s-5.213-2.334-5.213-5.213c0-2.879 2.334-5.213 5.213-5.213s5.213 2.334 5.213 5.213z"></path>
</svg>
