<!-- Generated by IcoMoon.io -->
<svg version="1.1" xmlns="http://www.w3.org/2000/svg" width="24" height="24" viewBox="0 0 24 24">
<title>sun</title>
<path fill="none" stroke="#000" stroke-width="1" stroke-miterlimit="4" stroke-linecap="round" stroke-linejoin="round" d="M16.5 12h5.25"></path>
<path fill="none" stroke="#000" stroke-width="1" stroke-miterlimit="4" stroke-linecap="round" stroke-linejoin="round" d="M16.5 12c0 2.485-2.015 4.5-4.5 4.5s-4.5-2.015-4.5-4.5c0-2.485 2.015-4.5 4.5-4.5s4.5 2.015 4.5 4.5z"></path>
<path fill="none" stroke="#000" stroke-width="1" stroke-miterlimit="4" stroke-linecap="round" stroke-linejoin="round" d="M9.75 11.25c0-0.828 0.672-1.5 1.5-1.5v0"></path>
<path fill="none" stroke="#000" stroke-width="1" stroke-miterlimit="4" stroke-linecap="round" stroke-linejoin="round" d="M16.155 13.725l2.767 1.155"></path>
<path fill="none" stroke="#000" stroke-width="1" stroke-miterlimit="4" stroke-linecap="round" stroke-linejoin="round" d="M7.5 12h-5.25"></path>
<path fill="none" stroke="#000" stroke-width="1" stroke-miterlimit="4" stroke-linecap="round" stroke-linejoin="round" d="M7.845 10.275l-2.768-1.155"></path>
<path fill="none" stroke="#000" stroke-width="1" stroke-miterlimit="4" stroke-linecap="round" stroke-linejoin="round" d="M16.14 10.231l2.76-1.177"></path>
<path fill="none" stroke="#000" stroke-width="1" stroke-miterlimit="4" stroke-linecap="round" stroke-linejoin="round" d="M7.86 13.77l-2.76 1.178"></path>
<path fill="none" stroke="#000" stroke-width="1" stroke-miterlimit="4" stroke-linecap="round" stroke-linejoin="round" d="M13.777 7.868l1.223-2.753"></path>
<path fill="none" stroke="#000" stroke-width="1" stroke-miterlimit="4" stroke-linecap="round" stroke-linejoin="round" d="M10.222 16.132l-1.222 2.753"></path>
<path fill="none" stroke="#000" stroke-width="1" stroke-miterlimit="4" stroke-linecap="round" stroke-linejoin="round" d="M10.274 7.845l-1.147-2.775"></path>
<path fill="none" stroke="#000" stroke-width="1" stroke-miterlimit="4" stroke-linecap="round" stroke-linejoin="round" d="M13.725 16.155l1.147 2.775"></path>
<path fill="none" stroke="#000" stroke-width="1" stroke-miterlimit="4" stroke-linecap="round" stroke-linejoin="round" d="M12 7.5v-5.25"></path>
<path fill="none" stroke="#000" stroke-width="1" stroke-miterlimit="4" stroke-linecap="round" stroke-linejoin="round" d="M12 16.5v5.25"></path>
<path fill="none" stroke="#000" stroke-width="1" stroke-miterlimit="4" stroke-linecap="round" stroke-linejoin="round" d="M8.821 8.821l-3.713-3.713"></path>
<path fill="none" stroke="#000" stroke-width="1" stroke-miterlimit="4" stroke-linecap="round" stroke-linejoin="round" d="M15.18 15.18l3.75 3.75"></path>
<path fill="none" stroke="#000" stroke-width="1" stroke-miterlimit="4" stroke-linecap="round" stroke-linejoin="round" d="M8.82 15.18l-3.713 3.75"></path>
<path fill="none" stroke="#000" stroke-width="1" stroke-miterlimit="4" stroke-linecap="round" stroke-linejoin="round" d="M15.18 8.82l3.75-3.713"></path>
</svg>
