<!-- Generated by IcoMoon.io -->
<svg version="1.1" xmlns="http://www.w3.org/2000/svg" width="24" height="24" viewBox="0 0 24 24">
<title>ti-sm</title>
<path fill="none" stroke="#000" stroke-width="1" stroke-miterlimit="10" stroke-linecap="round" stroke-linejoin="miter" d="M4.68 6.112h14.64c0.414 0 0.75 0.336 0.75 0.75v0 9.39h-16.14v-9.39c0-0.414 0.336-0.75 0.75-0.75v0z"></path>
<path fill="none" stroke="#000" stroke-width="1" stroke-miterlimit="10" stroke-linecap="round" stroke-linejoin="miter" d="M1.658 16.252h20.685c0.136 0 0.247 0.111 0.247 0.247v0 0c0 0.767-0.621 1.388-1.388 1.388h-18.404c-0.767 0-1.388-0.621-1.388-1.388v0 0c0 0 0 0 0 0 0-0.136 0.111-0.247 0.247-0.247 0 0 0.001 0 0.001 0h-0z"></path>
</svg>
