<!-- Generated by IcoMoon.io -->
<svg version="1.1" xmlns="http://www.w3.org/2000/svg" width="32" height="32" viewBox="0 0 32 32">
<title>ti</title>
<path fill="none" stroke="#000" stroke-width="2" stroke-miterlimit="4" stroke-linecap="round" stroke-linejoin="round" d="M6.56 5.113h18.933c1.473 0 2.667 1.194 2.667 2.667v10.227c0 1.473-1.194 2.667-2.667 2.667h-18.933c-1.473 0-2.667-1.194-2.667-2.667v-10.227c0-1.473 1.194-2.667 2.667-2.667z"></path>
<path fill="none" stroke="#000" stroke-width="2" stroke-miterlimit="4" stroke-linecap="round" stroke-linejoin="round" d="M26.693 20.353l3.36 4.493c0.127 0.201 0.203 0.445 0.203 0.707 0 0.736-0.597 1.333-1.333 1.333-0.010 0-0.021-0-0.031-0l0.002 0h-25.787c-0.009 0-0.019 0-0.030 0-0.736 0-1.333-0.597-1.333-1.333 0-0.262 0.076-0.506 0.206-0.712l-0.003 0.005 3.413-4.493"></path>
</svg>
