<!-- Generated by IcoMoon.io -->
<svg version="1.1" xmlns="http://www.w3.org/2000/svg" width="27" height="32" viewBox="0 0 27 32">
<title>ups</title>
<path fill="#fff" d="M7.104 19.337c-0.372 0.256-2.335 0.938-2.335-1.361v-7.448h-2.342v7.348c0 5.364 5.744 3.66 7.011 2.793v-10.141h-2.335zM0 2.995v15.821c0 7.424 5.364 9.681 13.44 13.184 8.050-3.502 13.44-5.743 13.44-13.184v-15.821c-8.324-4.412-20.177-3.552-26.88 0zM25.646 18.817c0 6.202-3.81 8.136-12.204 11.84-8.415-3.712-12.211-5.639-12.211-11.84v-9.053c7.327-6.72 16.586-7.162 24.414-6.431zM10.635 11.124v15.24h2.342v-4.924c1.747 0.523 5.135-0.186 5.135-5.622 0.001-6.973-5.779-5.792-7.476-4.695zM12.977 19.524v-7.183c0.602-0.301 2.752-0.909 2.752 3.531-0.001 4.865-2.609 3.713-2.751 3.652zM18.641 13.337c0.007 3.388 3.695 3.044 3.738 5.042 0.043 1.683-2.176 1.647-3.638 0.351v2.156c2.593 1.54 5.866 0.58 5.958-2.399 0.122-3.688-3.875-3.338-3.825-5.242 0.043-1.454 2.191-1.468 3.473-0.157v-2.034c-2.040-1.576-5.72-0.659-5.706 2.285z"></path>
</svg>
