<!-- Generated by IcoMoon.io -->
<svg version="1.1" xmlns="http://www.w3.org/2000/svg" width="24" height="24" viewBox="0 0 24 24">
<title>ups</title>
<path d="M7.246 14.501c-0.279 0.193-1.751 0.7-1.751-1.021v-5.579h-1.756v5.511c0 4.023 4.308 2.745 5.258 2.095v-7.606h-1.751zM1.918 2.247v11.865c0 5.57 4.023 7.262 10.082 9.889 6.037-2.627 10.082-4.308 10.082-9.889v-11.865c-6.247-3.309-15.136-2.665-20.164 0zM21.153 14.112c0 4.652-2.858 6.1-9.153 8.879-6.311-2.782-9.158-4.227-9.158-8.879v-6.79c5.495-5.038 12.44-5.371 18.311-4.823zM9.894 8.343v11.43h1.756v-3.69c1.311 0.392 3.851-0.14 3.851-4.216 0.001-5.232-4.334-4.347-5.607-3.524zM11.65 14.643v-5.387c0.451-0.226 2.063-0.682 2.063 2.648 0.005 3.647-1.955 2.782-2.062 2.739zM15.899 10.001c0.005 2.541 2.772 2.283 2.8 3.781 0.032 1.262-1.633 1.235-2.729 0.263v1.617c1.944 1.155 4.4 0.435 4.469-1.8 0.091-2.766-2.906-2.5-2.868-3.932 0.032-1.090 1.644-1.1 2.605-0.118v-1.523c-1.526-1.181-4.287-0.494-4.277 1.712z"></path>
</svg>
