<!-- Generated by IcoMoon.io -->
<svg version="1.1" xmlns="http://www.w3.org/2000/svg" width="24" height="24" viewBox="0 0 24 24">
<title>usuario-escudo</title>
<path fill="none" stroke="#000" stroke-width="1" stroke-miterlimit="4" stroke-linecap="round" stroke-linejoin="round" d="M12.346 2.342l-0.346-0.2-0.346 0.2c-1.394 0.815-3.070 1.296-4.857 1.296-1.141 0-2.236-0.196-3.254-0.556l0.068 0.021v8.16c0 2.181 0.884 4.155 2.313 5.584l4.257 4.257c0.465 0.465 1.108 0.753 1.818 0.753 0 0 0 0 0.001 0h-0c0 0 0 0 0.001 0 0.71 0 1.353-0.288 1.818-0.753l4.257-4.257c1.429-1.429 2.313-3.403 2.313-5.584v-8.16c-0.949 0.339-2.045 0.535-3.186 0.535-1.788 0-3.463-0.481-4.904-1.321l0.046 0.025z"></path>
<path fill="none" stroke="#000" stroke-width="1" stroke-miterlimit="4" stroke-linecap="round" stroke-linejoin="round" d="M12.261 4.722l-0.261-0.15-0.261 0.15c-1.051 0.614-2.313 0.976-3.66 0.976-0.86 0-1.685-0.148-2.452-0.419l0.051 0.016v6.149c0 0 0 0 0 0 0 1.643 0.666 3.131 1.743 4.208l3.208 3.208c0.351 0.351 0.835 0.568 1.371 0.568 0 0 0 0 0 0h-0c0 0 0 0 0 0 0.535 0 1.020-0.217 1.371-0.568l3.208-3.208c1.077-1.077 1.743-2.565 1.743-4.208 0 0 0 0 0 0v0-6.149c-0.716 0.256-1.541 0.403-2.401 0.403-1.347 0-2.609-0.362-3.695-0.995l0.035 0.019z"></path>
<path fill="none" stroke="#000" stroke-width="1" stroke-miterlimit="4" stroke-linecap="round" stroke-linejoin="round" d="M14.050 10.403c0 1.132-0.918 2.050-2.050 2.050s-2.050-0.918-2.050-2.050c0-1.132 0.918-2.050 2.050-2.050s2.050 0.918 2.050 2.050z"></path>
<path fill="none" stroke="#000" stroke-width="1" stroke-miterlimit="4" stroke-linecap="round" stroke-linejoin="round" d="M8.126 16.355c0.575-1.616 2.091-2.752 3.872-2.752 0.001 0 0.001 0 0.002 0h-0c0.001 0 0.001 0 0.002 0 1.781 0 3.298 1.136 3.863 2.723l0.009 0.029"></path>
</svg>
