<!-- Generated by IcoMoon.io -->
<svg version="1.1" xmlns="http://www.w3.org/2000/svg" width="32" height="32" viewBox="0 0 32 32">
<title>xcustomer</title>
<path fill="none" stroke="#000" stroke-width="2" stroke-miterlimit="4" stroke-linecap="round" stroke-linejoin="round" d="M29.333 16c0 7.364-5.97 13.333-13.333 13.333s-13.333-5.97-13.333-13.333c0-7.364 5.97-13.333 13.333-13.333s13.333 5.97 13.333 13.333z"></path>
<path fill="none" stroke="#000" stroke-width="2" stroke-miterlimit="4" stroke-linecap="round" stroke-linejoin="round" d="M13.333 12.667c0 1.105-0.895 2-2 2s-2-0.895-2-2c0-1.105 0.895-2 2-2s2 0.895 2 2z"></path>
<path fill="none" stroke="#000" stroke-width="2" stroke-miterlimit="4" stroke-linecap="round" stroke-linejoin="round" d="M22.667 12.667c0 1.105-0.895 2-2 2s-2-0.895-2-2c0-1.105 0.895-2 2-2s2 0.895 2 2z"></path>
<path fill="none" stroke="#000" stroke-width="2" stroke-miterlimit="4" stroke-linecap="round" stroke-linejoin="round" d="M12 19.907c0.107 2.027 1.777 3.631 3.822 3.631 0.063 0 0.125-0.002 0.187-0.005l-0.009 0c0.053 0.003 0.116 0.004 0.178 0.004 2.045 0 3.715-1.603 3.821-3.621l0-0.009"></path>
</svg>
