<?xml version="1.0" standalone="no"?>
<!DOCTYPE svg PUBLIC "-//W3C//DTD SVG 20010904//EN"
 "http://www.w3.org/TR/2001/REC-SVG-20010904/DTD/svg10.dtd">
<svg version="1.0" xmlns="http://www.w3.org/2000/svg"
 width="3300.000000pt" height="3300.000000pt" viewBox="0 0 3300.000000 3300.000000"
 preserveAspectRatio="xMidYMid meet">
<metadata>
Created by potrace 1.14, written by Peter Selinger 2001-2017
</metadata>
<g transform="translate(0.000000,3300.000000) scale(0.100000,-0.100000)"
fill="#000000" stroke="none">
<path d="M9948 21075 c-2 -1 -41 -5 -88 -9 -111 -8 -140 -12 -285 -40 -304
-60 -642 -208 -900 -395 -185 -134 -351 -294 -494 -476 -116 -150 -102 -129
-203 -302 -79 -136 -201 -401 -213 -465 -2 -9 -9 -26 -15 -37 -6 -12 -8 -21
-5 -21 3 0 1 -8 -4 -19 -20 -36 -85 -306 -106 -441 -3 -19 -12 -71 -20 -115
-8 -44 -17 -95 -20 -112 -3 -18 -8 -48 -11 -65 -3 -18 -7 -42 -8 -53 -3 -20
-18 -103 -22 -117 -1 -5 -2 -12 -3 -17 0 -4 -248 -8 -549 -8 -302 0 -553 -3
-559 -6 -6 -4 -16 -37 -22 -74 -7 -38 -23 -129 -36 -203 -30 -168 -34 -187
-41 -230 -9 -57 -12 -75 -14 -75 -1 0 -4 -13 -6 -30 -3 -16 -16 -91 -29 -165
-13 -74 -26 -146 -29 -160 -7 -40 -26 -143 -31 -170 -3 -13 -7 -40 -10 -60 -3
-20 -8 -47 -10 -60 -3 -14 -8 -38 -10 -55 l-5 -30 561 1 561 1 -6 -41 c-3 -22
-8 -52 -11 -66 -6 -32 -23 -124 -30 -170 -3 -19 -7 -46 -10 -60 -3 -14 -7 -38
-10 -55 -3 -16 -7 -43 -10 -60 -3 -16 -10 -55 -15 -85 -6 -30 -12 -65 -14 -76
-2 -12 -7 -37 -10 -55 -3 -19 -8 -45 -10 -59 -3 -14 -7 -36 -10 -50 -2 -14 -9
-52 -15 -85 -13 -75 -19 -109 -26 -160 -4 -22 -8 -47 -10 -55 -4 -15 -14 -69
-20 -105 -2 -17 -64 -371 -80 -455 -2 -14 -6 -38 -9 -55 -3 -16 -8 -41 -10
-55 -3 -14 -8 -41 -10 -60 -3 -19 -8 -46 -10 -60 -3 -14 -15 -79 -26 -145 -12
-66 -23 -130 -26 -142 -2 -13 -6 -33 -8 -45 -7 -35 -44 -249 -50 -288 -3 -19
-12 -71 -20 -115 -9 -44 -22 -118 -30 -165 -39 -228 -67 -387 -72 -410 -14
-73 -16 -90 -8 -91 52 -5 1500 -2 1513 3 13 4 20 21 25 55 7 54 7 54 42 248
15 77 28 151 29 165 2 14 11 66 20 115 25 138 63 358 85 485 11 63 22 124 24
135 2 11 7 38 11 60 4 22 13 72 20 110 13 66 17 91 31 183 3 20 7 44 9 52 3 8
7 32 11 54 3 21 8 48 10 60 4 19 18 98 28 156 2 14 13 77 25 140 21 118 26
146 36 214 4 21 9 48 11 60 3 11 9 48 15 81 11 68 11 70 38 220 19 103 40 222
61 340 5 28 16 89 25 138 8 48 18 104 21 125 3 20 7 44 10 53 4 15 92 17 1079
17 l1075 0 -5 -22 c-2 -11 -9 -46 -15 -76 -6 -30 -13 -66 -15 -80 -3 -14 -12
-59 -20 -100 -8 -41 -17 -84 -19 -95 -9 -41 -57 -281 -62 -310 -2 -16 -7 -37
-9 -45 -2 -8 -7 -28 -9 -45 -3 -16 -21 -109 -41 -205 -20 -96 -38 -188 -41
-205 -2 -16 -7 -37 -9 -45 -2 -8 -7 -31 -10 -50 -3 -19 -8 -42 -10 -50 -2 -8
-7 -28 -10 -45 -5 -34 -8 -48 -30 -155 -20 -100 -24 -120 -30 -153 -3 -15 -12
-59 -20 -97 -8 -38 -17 -82 -20 -97 -2 -16 -21 -107 -40 -203 -20 -96 -38
-191 -41 -210 -3 -19 -12 -62 -19 -95 -8 -33 -16 -71 -18 -85 -3 -14 -21 -108
-42 -210 -20 -102 -39 -196 -42 -210 -2 -14 -20 -101 -39 -195 -19 -93 -37
-182 -39 -198 -3 -15 -12 -60 -21 -100 -8 -39 -17 -88 -20 -107 -3 -19 -7 -43
-10 -52 -3 -10 -7 -28 -9 -40 -3 -13 -16 -79 -30 -148 -14 -69 -28 -141 -31
-160 -3 -19 -12 -62 -19 -95 -8 -33 -16 -73 -19 -90 -3 -16 -13 -64 -21 -105
-8 -41 -24 -120 -35 -175 -10 -55 -24 -122 -30 -150 -6 -27 -13 -63 -16 -80
-3 -16 -14 -73 -24 -125 -11 -52 -22 -110 -25 -129 -3 -19 -8 -37 -10 -41 -2
-4 -7 -26 -10 -50 -3 -23 -8 -46 -11 -51 -3 -5 1 -9 8 -10 18 -1 1510 -1 1524
0 7 1 15 16 18 34 3 17 8 41 10 52 17 86 48 246 52 275 3 19 7 37 9 40 2 3 6
26 10 50 3 25 10 61 15 80 5 19 11 51 14 70 3 19 19 103 35 185 17 83 32 161
35 175 2 14 14 72 25 130 22 116 25 131 46 240 8 41 16 84 19 95 5 24 73 379
80 415 2 14 7 36 10 50 3 14 8 36 10 50 4 23 21 109 30 155 10 47 45 233 50
260 7 36 12 63 26 130 12 58 17 86 26 135 4 19 8 44 11 55 17 86 24 124 29
150 3 17 16 86 30 155 22 112 45 231 58 300 3 14 10 50 16 80 6 30 13 66 15
80 3 14 7 36 10 50 3 14 12 63 21 110 9 47 18 94 20 105 2 11 8 43 14 71 6 28
13 64 16 80 13 75 46 243 54 279 7 32 43 217 66 345 3 14 14 68 24 120 11 52
22 111 25 130 3 19 8 42 10 50 2 8 7 31 10 50 3 19 8 42 10 50 2 8 7 29 10 45
5 29 8 48 20 105 2 14 7 39 10 55 8 50 15 85 35 185 10 52 26 131 34 175 9 44
18 91 21 105 3 14 8 41 11 60 3 19 9 51 14 70 5 19 12 55 15 80 4 24 8 47 10
50 2 3 6 21 9 40 3 19 7 44 10 55 5 24 46 240 53 275 2 14 8 43 13 65 5 22 10
45 10 50 0 7 -619 10 -1841 9 l-1840 -1 5 46 c3 25 7 55 10 66 2 11 7 40 11
65 4 25 9 54 11 65 4 20 30 171 40 230 68 406 348 714 724 799 135 31 296 38
485 22 66 -6 285 -38 344 -51 83 -18 74 -24 100 62 27 84 82 252 277 851 69
211 123 386 120 389 -13 13 -373 87 -526 108 -25 3 -56 8 -70 10 -14 2 -59 6
-100 10 -41 3 -93 8 -115 11 -42 6 -462 14 -467 9z"/>
<path d="M12057 20349 c-443 -107 -691 -573 -531 -997 68 -181 203 -328 377
-411 111 -53 186 -71 304 -74 222 -5 401 67 561 228 39 40 72 77 72 81 0 4 6
15 14 23 34 40 83 151 105 236 65 262 -15 541 -208 723 -188 178 -449 250
-694 191z"/>
<path d="M30437 19558 c-25 -29 -78 -91 -117 -138 -40 -47 -82 -96 -94 -110
-11 -14 -111 -133 -221 -264 -110 -132 -310 -371 -445 -531 -135 -161 -301
-359 -370 -441 -69 -82 -135 -160 -147 -174 -12 -14 -74 -88 -138 -165 -181
-217 -198 -236 -235 -280 -20 -22 -80 -93 -133 -157 -54 -65 -99 -118 -101
-118 -2 0 -19 28 -36 63 -18 34 -47 89 -65 122 -18 33 -55 103 -83 155 -27 52
-67 127 -87 165 -21 39 -62 117 -92 175 -30 58 -63 119 -73 135 -9 17 -45 84
-80 150 -68 130 -121 228 -126 234 -2 2 -394 4 -871 4 -886 0 -893 0 -865 -36
5 -7 42 -75 82 -152 40 -77 95 -183 123 -235 27 -52 79 -151 114 -220 83 -160
174 -333 228 -435 23 -44 71 -136 107 -205 241 -461 402 -770 475 -908 56
-105 56 -109 23 -142 -3 -3 -32 -36 -65 -75 -33 -38 -62 -72 -65 -75 -6 -5
-404 -460 -451 -515 -13 -15 -35 -40 -49 -55 -14 -15 -36 -40 -50 -56 -46 -53
-155 -178 -170 -194 -8 -9 -40 -45 -70 -80 -30 -36 -75 -87 -100 -115 -53 -60
-149 -169 -180 -205 -12 -14 -45 -52 -74 -85 -29 -33 -86 -98 -127 -145 -42
-47 -86 -98 -100 -114 -13 -16 -33 -39 -44 -50 -11 -12 -49 -55 -84 -96 -36
-41 -72 -82 -80 -91 -9 -9 -36 -40 -61 -70 -25 -29 -52 -61 -60 -69 -59 -63
-131 -151 -127 -157 4 -6 1585 -9 1687 -4 9 1 58 51 110 112 52 62 100 117
105 123 6 6 35 40 65 76 30 36 57 67 60 70 3 3 84 97 180 210 96 113 187 219
201 235 14 17 68 80 120 140 52 61 98 115 104 121 5 6 30 35 55 64 25 29 53
62 64 74 10 11 29 34 43 50 14 17 28 25 33 20 8 -9 98 -177 127 -239 8 -16 19
-39 25 -50 19 -33 89 -168 190 -365 53 -102 120 -232 150 -290 30 -58 83 -160
118 -227 35 -68 70 -123 79 -125 13 -2 1647 -2 1674 1 4 1 -10 34 -31 74 -22
39 -60 110 -84 157 -113 215 -163 310 -198 375 -21 39 -59 111 -85 160 -26 50
-70 133 -98 185 -46 89 -71 136 -174 330 -22 41 -107 201 -188 355 -81 154
-160 303 -175 330 -15 28 -59 111 -98 185 -81 154 -83 124 16 237 27 32 136
159 242 283 106 124 204 239 219 255 39 45 143 166 167 195 12 14 124 144 249
290 124 146 261 306 303 355 42 50 79 92 82 95 3 3 43 50 90 105 47 55 87 102
90 105 3 3 41 47 85 99 44 52 125 146 180 210 55 64 206 240 335 391 129 151
237 277 240 280 3 3 95 110 205 239 110 129 232 271 270 315 39 45 94 110 123
144 l54 62 -890 0 -890 0 -45 -52z"/>
<path d="M16037 18524 c-1 -1 -38 -5 -82 -8 -87 -7 -185 -21 -255 -37 -25 -6
-52 -12 -61 -14 -9 -2 -65 -19 -123 -39 -167 -56 -301 -127 -530 -280 l-28
-19 7 44 c4 24 9 53 12 64 16 79 24 137 19 142 -10 10 -1516 7 -1525 -3 -4 -5
-16 -58 -25 -119 -18 -110 -24 -142 -30 -180 -5 -23 -14 -78 -21 -120 -3 -16
-12 -66 -19 -110 -8 -44 -17 -96 -21 -115 -3 -19 -12 -71 -20 -115 -8 -44 -17
-100 -20 -125 -4 -24 -8 -47 -10 -50 -2 -3 -6 -23 -9 -45 -8 -53 -44 -257 -67
-380 -6 -33 -12 -69 -14 -80 -1 -11 -5 -33 -8 -50 -4 -16 -8 -41 -11 -55 -2
-14 -7 -41 -11 -60 -3 -19 -8 -46 -9 -60 -2 -14 -8 -52 -14 -85 -14 -74 -18
-96 -37 -210 -9 -49 -18 -101 -20 -115 -8 -44 -26 -144 -31 -170 -2 -14 -7
-40 -10 -59 -3 -18 -7 -43 -10 -55 -2 -11 -11 -64 -20 -116 -9 -52 -18 -104
-20 -115 -2 -11 -15 -85 -29 -165 -27 -157 -32 -185 -40 -227 -14 -75 -57
-322 -61 -348 -3 -16 -12 -68 -20 -115 -8 -47 -17 -98 -20 -115 -3 -16 -9 -52
-14 -80 -5 -27 -12 -66 -15 -85 -7 -39 -42 -239 -54 -310 -71 -396 -92 -533
-83 -539 12 -7 1510 -7 1517 1 4 4 40 190 59 303 8 46 15 87 21 115 3 14 10
52 15 85 5 33 12 71 15 85 4 22 28 161 41 235 2 17 7 37 9 45 2 8 7 35 10 60
4 25 10 63 15 85 5 22 11 60 15 85 3 25 8 52 10 60 2 8 7 30 10 48 3 17 7 47
10 65 3 17 8 39 10 47 3 8 7 33 10 55 2 22 11 76 19 120 16 85 22 117 32 180
3 22 7 42 9 45 2 3 6 26 10 50 6 44 40 239 50 290 3 14 10 52 15 85 5 33 12
70 14 81 6 28 18 95 20 114 2 8 6 35 11 60 4 25 9 54 11 65 1 11 3 20 4 20 1
0 3 11 5 25 2 14 6 36 8 50 5 26 14 74 22 125 7 45 34 197 40 224 4 21 17 39
60 86 6 6 44 40 86 76 159 138 325 225 484 254 39 7 196 7 260 0 99 -11 253
-69 310 -117 157 -132 224 -294 227 -553 1 -101 -7 -175 -37 -345 -14 -74 -27
-153 -30 -175 -3 -22 -12 -71 -20 -110 -7 -38 -16 -88 -19 -110 -4 -22 -11
-62 -16 -90 -5 -27 -12 -66 -15 -85 -3 -19 -16 -96 -30 -170 -13 -74 -27 -155
-30 -180 -3 -25 -10 -61 -15 -80 -5 -19 -11 -53 -14 -75 -6 -42 -10 -68 -26
-150 -5 -27 -12 -66 -15 -85 -3 -19 -12 -71 -20 -115 -8 -44 -17 -98 -20 -120
-4 -22 -8 -47 -10 -55 -3 -8 -7 -33 -10 -55 -4 -22 -9 -53 -12 -70 -3 -16 -7
-39 -8 -50 -2 -11 -8 -45 -14 -75 -11 -61 -14 -74 -36 -205 -9 -49 -18 -103
-21 -120 -17 -93 -22 -130 -18 -134 9 -10 1527 -6 1530 4 2 6 6 28 9 50 3 22
21 126 40 230 33 185 82 465 90 515 5 27 8 47 29 160 8 41 18 95 21 120 4 25
9 54 11 65 2 11 7 34 10 50 2 17 16 91 29 165 14 74 27 151 31 170 3 19 9 58
14 85 5 28 22 128 39 223 17 96 34 190 37 210 3 21 7 44 9 52 2 8 7 31 10 50
3 19 10 58 15 85 5 28 12 64 15 80 30 173 37 214 41 240 2 17 9 53 14 80 16
85 19 109 35 279 3 32 13 47 65 95 189 171 390 280 585 315 36 7 218 8 261 1
241 -35 406 -156 480 -352 40 -107 53 -193 49 -343 -4 -140 -6 -153 -30 -285
-15 -82 -18 -104 -29 -165 -3 -19 -17 -98 -31 -175 -13 -77 -27 -156 -30 -175
-8 -48 -24 -140 -30 -170 -3 -14 -10 -52 -15 -85 -6 -33 -12 -72 -15 -87 -3
-16 -7 -40 -10 -55 -2 -16 -7 -39 -9 -53 -3 -14 -8 -41 -10 -60 -3 -19 -8 -45
-10 -58 -3 -13 -15 -78 -26 -145 -21 -121 -26 -149 -35 -197 -4 -24 -38 -220
-50 -285 -2 -16 -7 -41 -10 -55 -2 -13 -7 -40 -10 -60 -3 -20 -7 -47 -10 -60
-3 -13 -7 -42 -11 -64 -3 -22 -7 -43 -9 -46 -1 -3 -6 -25 -9 -50 -3 -25 -8
-56 -11 -70 -3 -14 -10 -52 -15 -85 -16 -97 -20 -119 -25 -132 -2 -7 3 -13 13
-14 57 -3 1500 -4 1513 -1 12 3 21 34 38 125 13 67 25 133 26 147 5 36 33 196
45 255 9 46 14 73 25 150 2 17 11 71 20 120 22 123 37 206 40 230 2 11 20 112
40 225 20 113 38 216 40 230 2 14 6 39 9 55 3 17 14 84 25 150 12 66 23 129
25 140 2 11 11 63 20 115 22 130 24 140 46 265 24 133 60 348 66 390 2 16 6
37 9 45 3 8 7 38 10 65 4 28 8 61 11 75 21 114 22 524 0 625 -2 11 -7 40 -10
65 -3 25 -10 60 -15 78 -5 17 -8 32 -6 32 3 0 0 11 -5 25 -5 14 -12 36 -14 48
-7 36 -66 197 -94 257 -136 289 -374 528 -657 659 -52 25 -169 70 -195 77 -8
2 -40 10 -70 18 -252 70 -622 80 -955 26 -164 -27 -159 -26 -297 -66 -150 -43
-266 -88 -423 -165 -105 -51 -301 -162 -315 -178 -3 -3 -39 -28 -80 -55 -41
-27 -91 -62 -111 -77 -20 -16 -41 -29 -45 -29 -5 1 -29 28 -54 61 -95 128
-263 270 -421 356 -123 67 -341 140 -469 158 -25 3 -52 8 -60 10 -46 12 -412
28 -423 19z"/>
<path d="M3158 18484 c-2 -1 -37 -5 -78 -9 -41 -3 -86 -8 -100 -10 -14 -3 -41
-7 -60 -10 -19 -3 -46 -8 -60 -10 -14 -3 -34 -7 -45 -9 -268 -52 -585 -177
-844 -331 -90 -54 -261 -169 -304 -205 -12 -11 -26 -22 -112 -93 -27 -23 -102
-93 -165 -157 -294 -295 -518 -644 -653 -1021 -42 -116 -98 -316 -112 -399 -3
-19 -10 -57 -15 -85 -30 -163 -42 -455 -26 -645 35 -436 188 -840 431 -1140
281 -347 663 -560 1140 -636 118 -18 456 -25 570 -11 127 16 151 19 170 23 11
2 47 9 80 14 93 17 274 66 382 105 121 43 108 38 281 123 102 50 141 66 138
54 -3 -9 -7 -33 -11 -52 -3 -19 -12 -66 -19 -105 -8 -38 -12 -72 -10 -74 6 -6
1535 -7 1539 -1 2 3 6 23 9 45 3 22 18 105 32 185 42 238 62 353 68 390 3 19
8 46 11 60 3 14 16 90 30 170 14 80 27 156 30 170 3 14 16 92 30 175 14 82 28
161 31 175 8 48 33 185 39 220 3 19 7 46 10 60 3 14 7 41 10 60 3 19 8 49 12
65 3 17 7 37 8 45 2 8 5 29 8 45 3 17 9 50 12 75 4 24 8 47 10 50 2 3 6 30 10
60 4 30 9 58 11 61 2 3 6 24 9 45 2 21 7 51 10 67 3 15 7 39 10 55 2 15 7 38
10 52 2 14 7 39 10 55 3 17 18 107 35 200 16 94 32 188 35 210 4 22 8 47 10
55 2 8 7 31 10 50 3 19 15 85 25 145 11 61 22 126 25 145 6 36 30 170 40 225
3 17 8 44 10 60 3 17 9 53 14 80 6 28 13 70 16 95 3 25 8 52 10 60 3 8 14 69
25 135 12 66 22 129 24 140 2 11 7 38 11 60 3 22 10 60 15 85 5 25 11 59 14
75 2 17 14 84 25 150 12 66 24 136 27 155 3 19 7 43 10 53 4 11 0 17 -13 18
-23 1 -1471 1 -1499 0 -18 -1 -22 -13 -38 -116 l-18 -115 -37 22 c-20 12 -43
27 -51 34 -33 26 -231 119 -335 156 -152 54 -297 87 -500 114 -52 7 -422 14
-427 8z m487 -1269 c132 -26 229 -63 332 -126 89 -53 221 -176 281 -260 11
-16 10 -51 -3 -99 -2 -8 -6 -33 -10 -55 -5 -40 -21 -129 -30 -175 -3 -14 -14
-79 -25 -145 -11 -66 -25 -140 -30 -165 -5 -25 -12 -62 -15 -82 -2 -21 -9 -58
-15 -83 -6 -25 -12 -62 -15 -83 -3 -20 -11 -73 -19 -117 -9 -44 -18 -96 -21
-115 -10 -62 -14 -84 -25 -140 -6 -30 -13 -71 -16 -90 -16 -99 -18 -103 -89
-163 -172 -145 -371 -252 -569 -306 -192 -53 -451 -62 -611 -21 -354 88 -586
349 -650 731 -18 108 -13 336 10 444 94 448 421 833 841 991 79 30 205 62 274
70 30 3 56 7 58 9 10 9 281 -7 347 -20z"/>
<path d="M23699 18486 c-2 -2 -44 -6 -94 -10 -85 -6 -117 -10 -190 -21 -16 -3
-48 -7 -70 -10 -22 -4 -80 -15 -130 -27 -603 -136 -1129 -446 -1529 -903 -399
-457 -647 -1036 -702 -1640 -13 -150 -7 -454 11 -545 3 -14 10 -52 15 -85 21
-131 80 -319 144 -459 39 -85 115 -219 128 -224 4 -2 8 -8 8 -14 0 -37 218
-279 348 -387 134 -110 345 -233 497 -290 33 -13 69 -27 80 -31 67 -27 204
-66 296 -86 78 -16 129 -25 164 -29 22 -3 51 -7 65 -10 106 -19 501 -26 645
-12 150 16 172 18 230 29 33 5 74 12 90 15 146 24 412 104 590 178 129 53 332
163 411 222 17 13 34 23 38 23 4 0 13 6 21 13 7 6 25 21 41 32 15 11 67 52
114 91 267 221 480 496 628 810 29 61 52 113 52 116 0 2 -345 5 -767 5 l-768
1 -60 -63 c-74 -76 -122 -113 -200 -153 -284 -147 -695 -141 -972 14 -183 102
-328 318 -372 557 l-8 47 1621 0 1622 0 42 178 c37 158 65 289 78 362 2 14 7
36 9 50 3 14 7 54 10 90 3 36 7 83 10 105 7 60 7 323 1 378 -3 26 -8 68 -11
95 -37 328 -171 661 -366 908 -47 61 -177 190 -249 249 -194 158 -462 289
-721 354 -86 22 -103 25 -169 37 -60 11 -64 12 -120 19 -30 3 -68 8 -85 11
-36 5 -421 14 -426 10z m121 -1171 c289 -24 503 -165 588 -385 18 -47 33 -91
37 -110 6 -23 18 -153 19 -210 l3 -70 -939 0 c-516 0 -938 2 -938 5 0 8 69
147 98 198 79 137 235 307 357 388 71 47 184 108 214 114 9 2 40 13 69 24 28
10 52 18 52 16 0 -2 16 1 36 7 51 14 67 16 142 24 37 3 68 7 69 7 3 4 120 -1
193 -8z"/>
<path d="M30927 14444 c-255 -65 -334 -387 -139 -562 77 -68 198 -98 299 -73
136 34 243 168 243 305 1 74 -4 94 -34 159 -31 65 -101 131 -162 154 -61 23
-155 30 -207 17z m202 -74 c120 -61 178 -204 135 -332 -12 -36 -33 -68 -69
-105 -196 -195 -518 -12 -455 259 40 171 232 259 389 178z"/>
<path d="M30890 14312 c-6 -2 -10 -73 -10 -187 0 -144 3 -184 13 -188 30 -11
42 11 42 80 l0 68 30 0 c25 0 36 -9 75 -68 52 -77 62 -86 95 -80 l23 5 -20 31
c-11 18 -32 50 -48 72 l-28 40 28 12 c81 34 85 159 6 200 -28 15 -175 25 -206
15z m177 -60 c44 -24 41 -83 -5 -105 -15 -7 -49 -13 -76 -12 l-50 1 -1 54 c-1
30 2 60 6 66 11 14 98 12 126 -4z"/>
<path d="M15726 13270 l-66 -100 93 0 c105 0 86 -12 190 117 31 40 57 74 57
77 0 4 -47 6 -103 6 l-104 0 -67 -100z"/>
<path d="M30322 13276 c-34 -51 -62 -96 -62 -99 0 -3 40 -6 89 -6 l89 -1 28
37 c16 19 34 41 39 47 28 31 85 105 85 110 0 3 -46 6 -103 6 l-103 0 -62 -94z"/>
<path d="M13705 13102 c-291 -33 -504 -309 -451 -586 25 -132 137 -241 277
-270 334 -69 666 241 606 568 -24 133 -136 253 -262 280 -39 8 -131 13 -170 8z
m139 -224 c43 -28 86 -106 86 -158 0 -144 -126 -277 -270 -285 -171 -10 -258
185 -153 343 39 59 118 116 172 126 54 9 129 -2 165 -26z"/>
<path d="M14792 13094 c-236 -50 -412 -258 -421 -498 -5 -131 60 -251 165
-308 98 -53 235 -66 338 -33 48 16 133 67 149 89 4 6 6 -11 5 -39 l-3 -50 77
-2 76 -2 6 32 c3 18 8 48 11 67 3 19 17 94 30 165 38 208 37 205 17 206 -22 1
-403 1 -419 0 -11 -1 -18 -21 -29 -96 -3 -22 -8 -43 -11 -48 -9 -14 37 -22
131 -21 53 0 96 -4 96 -9 0 -15 -61 -67 -104 -89 -79 -41 -220 -26 -268 29
-73 84 -59 232 31 335 108 122 310 128 366 11 l20 -42 106 -1 106 0 -8 48
c-13 69 -19 83 -51 129 -76 111 -245 163 -416 127z"/>
<path d="M16355 13096 c-182 -44 -280 -158 -269 -315 8 -118 59 -159 259 -207
120 -29 145 -43 145 -84 0 -44 -45 -72 -120 -75 -82 -3 -145 33 -155 89 l-6
31 -92 -2 c-51 -1 -98 -2 -106 -2 -11 -1 -13 -13 -8 -55 18 -178 177 -265 420
-232 135 19 259 109 287 211 19 67 20 113 3 155 -30 75 -88 112 -234 145 -125
29 -153 43 -157 77 -4 37 12 65 50 84 35 18 117 20 148 4 23 -12 49 -60 43
-77 -4 -10 15 -13 71 -14 42 0 91 -1 109 -2 30 -1 32 1 32 36 1 110 -64 193
-179 229 -48 15 -185 17 -241 4z"/>
<path d="M18829 13099 c-141 -41 -212 -79 -282 -151 -72 -74 -129 -182 -142
-267 -13 -86 -13 -114 0 -176 35 -168 172 -268 365 -267 193 1 359 101 443
267 51 100 54 95 -72 95 -85 0 -111 -3 -111 -13 0 -23 -69 -96 -117 -124 -35
-20 -59 -26 -107 -27 -77 0 -129 24 -164 77 -23 35 -27 51 -27 111 1 184 166
322 332 277 53 -14 101 -68 109 -121 l7 -40 108 0 109 0 -4 54 c-14 190 -140
305 -342 310 -45 1 -92 -1 -105 -5z"/>
<path d="M24663 13089 c-248 -62 -411 -272 -398 -509 13 -238 213 -380 473
-335 17 3 32 2 32 -2 0 -5 17 -28 38 -51 20 -23 44 -50 52 -60 8 -11 28 -34
43 -52 30 -35 29 -36 88 20 9 8 33 30 53 48 l37 33 -30 37 c-17 20 -46 55 -64
77 l-35 40 57 55 c194 187 206 476 26 629 -93 80 -232 106 -372 70z m186 -204
c93 -47 122 -177 65 -292 -45 -93 -132 -149 -241 -157 -186 -12 -261 220 -122
378 31 36 86 70 139 87 35 11 124 2 159 -16z"/>
<path d="M19590 12678 c-138 -230 -250 -420 -250 -422 0 -3 51 -5 113 -5 l113
0 40 72 40 72 172 1 172 1 10 -36 c10 -39 18 -79 19 -98 1 -9 30 -12 111 -12
125 2 120 -3 95 89 -8 30 -17 68 -20 84 -3 16 -8 32 -10 36 -2 4 -7 20 -9 36
-6 30 -104 433 -131 539 l-16 60 -99 0 -100 0 -250 -417z m331 51 c12 -52 22
-107 23 -124 l1 -30 -85 0 c-47 -1 -90 0 -96 2 -7 3 18 56 59 129 38 68 72
123 74 121 2 -2 13 -46 24 -98z"/>
<path d="M23660 13092 c-12 -3 -495 -793 -508 -831 -2 -5 48 -9 111 -9 l114 0
40 71 40 72 174 0 c109 0 174 -4 175 -10 0 -5 6 -37 13 -71 l13 -61 110 -1
110 -1 -5 32 c-6 35 -48 212 -127 527 -56 225 -62 249 -63 268 0 6 -5 12 -11
13 -32 3 -173 4 -186 1z m54 -288 c3 -11 14 -61 26 -113 11 -52 19 -100 16
-106 -4 -13 -186 -14 -187 -1 0 11 133 247 138 243 2 -3 5 -13 7 -23z"/>
<path d="M31004 13079 c-8 -8 -14 -18 -14 -22 0 -4 -67 -117 -169 -287 -5 -8
-71 -118 -147 -245 -76 -126 -144 -240 -152 -252 l-13 -21 115 0 116 0 41 73
41 72 173 0 172 0 14 -71 14 -71 113 -2 c104 -3 113 -1 108 15 -2 9 -11 46
-20 82 -8 36 -45 187 -81 335 -37 149 -68 279 -71 290 -2 11 -10 43 -17 70
l-13 50 -98 0 c-76 0 -100 -3 -112 -16z m81 -299 c3 -19 8 -43 11 -52 3 -9 7
-27 9 -40 11 -54 17 -84 21 -98 3 -14 -11 -16 -99 -15 l-103 0 37 65 c20 36
49 85 63 110 15 25 30 53 33 63 8 25 21 10 28 -33z"/>
<path d="M12537 13083 c-3 -5 -8 -26 -11 -48 -3 -22 -13 -76 -21 -120 -7 -44
-16 -97 -19 -118 -4 -21 -13 -71 -21 -110 -8 -40 -17 -92 -20 -117 -3 -25 -8
-52 -11 -61 -3 -10 -6 -31 -9 -49 -2 -17 -6 -43 -10 -58 -3 -15 -7 -40 -10
-57 -2 -16 -7 -44 -11 -62 l-6 -32 311 1 c309 0 311 0 315 22 3 11 8 35 11 51
4 17 9 48 12 71 l5 41 -197 -1 c-128 -1 -200 3 -206 10 -5 6 -5 25 1 45 5 19
11 52 15 74 8 59 15 97 20 125 3 14 8 36 10 50 7 36 33 188 41 234 8 54 12 75
19 97 6 18 0 19 -99 19 -58 0 -107 -3 -109 -7z"/>
<path d="M15625 13068 c-5 -24 -69 -386 -79 -448 -10 -59 -16 -94 -22 -120 -7
-30 -7 -31 -30 -175 -3 -16 -7 -40 -9 -53 -4 -22 -2 -22 100 -21 l104 1 6 26
c9 44 14 74 20 117 3 22 8 47 11 56 3 10 6 30 9 45 4 33 15 97 21 128 8 42 44
242 49 276 3 19 10 58 15 85 5 28 12 62 14 78 l5 27 -104 0 c-100 0 -105 -1
-110 -22z"/>
<path d="M17020 13088 c0 -2 -7 -41 -15 -88 -8 -47 -15 -88 -15 -92 0 -3 54
-5 121 -5 66 1 125 -1 130 -4 9 -5 2 -55 -46 -324 -9 -49 -18 -99 -20 -110 -4
-26 -16 -92 -21 -118 -2 -12 -6 -38 -9 -58 l-6 -37 106 0 c76 -1 105 2 106 11
0 6 2 19 4 27 2 8 8 44 14 80 6 36 13 76 16 90 3 14 10 52 15 85 5 33 12 69
14 80 2 11 7 40 11 65 7 45 11 68 19 105 2 11 7 39 11 63 4 23 12 42 18 43 7
1 67 1 135 0 67 0 122 1 122 2 0 1 7 40 15 87 8 47 15 88 15 93 0 4 -166 7
-370 7 -203 0 -370 -1 -370 -2z"/>
<path d="M17991 13038 c-6 -29 -17 -93 -26 -143 -8 -49 -17 -101 -20 -115 -3
-14 -17 -92 -31 -175 -15 -82 -30 -170 -35 -195 -4 -25 -11 -62 -14 -84 -4
-21 -8 -47 -10 -56 -3 -17 6 -18 100 -18 88 0 105 3 109 17 6 21 14 66 22 115
3 21 8 48 10 60 2 11 6 35 9 51 3 17 7 41 10 55 3 14 7 41 10 60 7 42 23 135
30 170 3 14 14 77 25 140 11 63 22 127 25 143 l5 27 -104 0 -105 0 -10 -52z"/>
<path d="M22495 12988 c-9 -57 -19 -110 -20 -119 -9 -45 -17 -96 -20 -114 -5
-32 -14 -83 -36 -200 -12 -60 -22 -119 -24 -130 -1 -11 -8 -49 -14 -85 -6 -36
-11 -71 -11 -78 0 -17 210 -15 210 2 1 19 11 79 23 141 l12 59 90 2 c90 2 160
10 176 20 5 3 18 7 30 9 29 6 102 50 144 86 19 17 47 56 62 87 32 66 33 70 37
142 7 127 -56 218 -178 257 -57 19 -92 22 -264 23 l-199 1 -18 -103z m387 -97
c60 -23 78 -99 40 -164 -30 -52 -92 -77 -189 -77 -60 0 -83 3 -83 13 0 6 9 58
19 115 10 56 16 102 14 102 -3 0 0 6 6 13 13 16 150 15 193 -2z"/>
<path d="M25456 12983 c-10 -60 -19 -117 -21 -129 -2 -11 -8 -45 -14 -75 -6
-30 -13 -67 -16 -84 -4 -16 -9 -70 -12 -120 -4 -77 -2 -98 17 -150 37 -96 119
-164 220 -182 40 -7 150 -7 195 1 134 23 239 107 301 241 30 64 38 92 50 160
1 11 10 57 18 102 8 45 18 101 21 125 3 24 8 51 11 61 4 11 7 29 9 40 2 12 6
43 10 70 l8 47 -106 0 -105 0 -11 -67 c-14 -80 -46 -258 -66 -360 -23 -120
-60 -178 -136 -213 -115 -52 -216 1 -224 117 -1 27 8 109 21 183 14 74 27 151
30 170 3 19 7 41 9 48 3 7 7 34 11 60 3 26 8 50 11 55 2 4 -45 7 -104 7 l-109
0 -18 -107z"/>
<path d="M26515 13068 c-2 -13 -12 -66 -20 -118 -21 -127 -21 -123 -39 -220
-8 -47 -18 -103 -21 -125 -4 -22 -8 -47 -10 -55 -3 -8 -7 -33 -10 -55 -4 -22
-12 -74 -20 -115 -8 -41 -16 -87 -18 -102 l-4 -27 316 2 316 2 16 85 c9 47 15
87 13 90 -1 3 -95 5 -208 5 l-206 0 0 22 c0 12 5 44 10 71 l11 49 180 0 c99 0
182 3 186 6 5 6 31 134 32 163 1 8 -55 11 -179 11 -99 0 -182 2 -184 4 -4 4 2
45 20 126 4 22 5 22 214 20 116 -1 210 0 211 3 0 3 2 12 4 20 1 8 6 33 9 55 4
22 9 55 12 73 l6 32 -316 0 -316 0 -5 -22z"/>
<path d="M27356 13078 c-9 -29 -25 -111 -29 -153 -2 -19 4 -20 108 -22 61 -1
120 -2 131 -2 21 -1 22 -2 8 -73 -23 -118 -83 -461 -89 -512 -3 -15 -7 -37
-10 -47 -6 -18 -1 -19 99 -18 115 2 109 -1 120 69 3 19 8 46 11 60 3 14 12 66
21 115 18 110 19 115 33 190 6 33 13 75 16 93 3 17 8 47 11 65 4 17 7 38 7 45
0 6 10 12 21 13 12 0 73 1 135 2 l115 2 16 93 16 92 -368 0 c-286 0 -369 -3
-372 -12z"/>
<path d="M28315 13048 c-4 -24 -9 -52 -11 -63 -3 -11 -7 -36 -10 -55 -2 -19
-9 -55 -14 -80 -5 -25 -14 -73 -20 -107 -6 -35 -12 -75 -15 -90 -3 -16 -8 -43
-11 -62 -3 -18 -8 -43 -10 -55 -4 -19 -16 -88 -29 -161 -2 -16 -8 -51 -11 -77
l-6 -47 316 1 c300 1 316 2 317 19 1 11 2 22 3 27 5 17 20 108 21 122 0 13
-29 15 -205 15 l-205 0 1 25 c1 14 4 39 7 55 3 17 6 38 6 47 1 15 17 17 154
16 214 0 224 0 224 15 0 6 3 30 7 52 4 22 9 56 12 76 l4 37 -162 0 c-204 0
-210 0 -205 10 3 4 8 25 11 47 3 22 9 52 12 67 l6 28 136 -1 c75 0 171 0 212
0 l76 1 15 90 15 90 -317 0 -317 0 -7 -42z"/>
<path d="M29229 13068 c0 -12 -2 -30 -4 -38 -4 -19 -14 -75 -21 -115 -3 -16
-7 -37 -9 -45 -2 -8 -7 -33 -10 -55 -3 -23 -7 -52 -10 -65 -3 -14 -8 -41 -11
-60 -4 -19 -8 -44 -10 -55 -15 -83 -24 -136 -30 -170 -3 -22 -12 -74 -20 -115
-8 -41 -14 -81 -14 -87 0 -10 28 -13 105 -12 96 0 105 2 106 20 1 10 2 22 3
27 1 4 6 27 10 52 4 25 12 68 18 95 l10 51 64 -1 c36 -1 68 -6 73 -11 5 -5 22
-34 38 -64 36 -67 67 -120 84 -148 11 -18 23 -20 131 -21 65 0 118 3 118 7 0
4 -11 25 -24 47 -13 22 -36 62 -51 89 -14 26 -39 69 -55 94 l-29 46 32 15 c48
23 125 105 150 159 32 70 31 191 -2 249 -26 45 -70 81 -136 110 -33 14 -79 18
-272 21 l-233 4 -1 -24z m409 -184 c80 -46 56 -148 -43 -189 -11 -4 -65 -9
-121 -11 l-101 -3 18 102 c11 56 21 107 23 113 7 19 189 10 224 -12z"/>
<path d="M30217 13073 c-3 -10 -8 -34 -11 -53 -3 -19 -8 -45 -10 -56 -2 -12
-7 -39 -10 -60 -4 -22 -9 -55 -12 -74 -4 -19 -8 -42 -9 -50 -2 -8 -10 -53 -18
-100 -9 -47 -18 -98 -21 -115 -3 -16 -12 -67 -20 -112 -8 -45 -17 -99 -21
-120 -3 -21 -7 -49 -10 -61 -4 -21 -1 -21 101 -21 99 0 104 1 109 22 4 19 25
137 56 317 5 30 11 66 14 80 2 13 7 40 10 60 3 20 8 47 11 60 2 14 7 37 9 53
3 15 7 39 9 55 8 46 26 146 31 170 5 22 4 22 -99 22 -91 0 -105 -2 -109 -17z"/>
<path d="M21310 12914 c-6 -14 -10 -37 -11 -52 0 -15 -6 -49 -13 -77 l-11 -50
-95 -1 c-52 -1 -100 -2 -106 -3 -6 0 -14 -22 -18 -48 -3 -27 -9 -60 -11 -75
-4 -19 -1 -28 7 -29 7 0 54 -1 104 -1 101 0 95 5 80 -73 -3 -16 -10 -51 -14
-77 -5 -27 -7 -49 -3 -49 3 -1 39 -2 80 -3 70 -2 74 0 83 24 5 14 11 45 14 70
2 25 9 59 15 77 10 32 11 32 72 31 34 0 80 0 103 1 l41 1 12 69 c6 39 11 74
11 78 0 5 -46 9 -102 9 -62 0 -102 3 -102 9 1 6 5 28 8 50 3 22 9 56 12 75 11
67 12 67 -71 68 -72 1 -76 0 -85 -24z"/>
</g>
</svg>
