<svg aria-hidden="true" style="position: absolute; width: 0; height: 0; overflow: hidden;" version="1.1" xmlns="http://www.w3.org/2000/svg" xmlns:xlink="http://www.w3.org/1999/xlink">
<defs>
<symbol id="icon-admintra" viewBox="0 0 32 32">
<path stroke-width="1.5" stroke-miterlimit="4" stroke-linecap="round" stroke-linejoin="round" d="M12.83 4.39c0-0.585 0.475-1.060 1.060-1.060h4.22c0.585 0 1.060 0.475 1.060 1.060v0 2.61c0.37 0.128 0.677 0.259 0.973 0.41l-0.043-0.020 1.9-1.84c0.193-0.19 0.458-0.307 0.75-0.307s0.557 0.117 0.75 0.307l3 3c0.19 0.193 0.307 0.458 0.307 0.75s-0.117 0.557-0.307 0.75l0-0-1.92 1.85c0.14 0.31 0.27 0.61 0.38 0.93h2.65c0.585 0 1.060 0.475 1.060 1.060v0 4.22c0 0.585-0.475 1.060-1.060 1.060h-2.61c-0.11 0.32-0.24 0.62-0.38 0.93l1.83 1.9c0.19 0.193 0.307 0.458 0.307 0.75s-0.117 0.557-0.307 0.75l-3 3c-0.193 0.19-0.458 0.307-0.75 0.307s-0.557-0.117-0.75-0.307l0 0-1.85-1.93c-0.253 0.131-0.56 0.262-0.877 0.374l-0.053 0.016v2.65c0 0.585-0.475 1.060-1.060 1.060h-4.22c-0.585 0-1.060-0.475-1.060-1.060v0-2.61c-0.37-0.128-0.677-0.259-0.973-0.41l0.043 0.020-1.9 1.84c-0.193 0.19-0.458 0.307-0.75 0.307s-0.557-0.117-0.75-0.307l-3-3c-0.19-0.193-0.307-0.458-0.307-0.75s0.117-0.557 0.307-0.75l-0 0 1.92-1.85c-0.14-0.31-0.27-0.61-0.38-0.93h-2.65c-0.585 0-1.060-0.475-1.060-1.060v0-4.22c0-0.585 0.475-1.060 1.060-1.060v0h2.61c0.11-0.32 0.24-0.62 0.38-0.93l-1.83-1.9c-0.19-0.193-0.307-0.458-0.307-0.75s0.117-0.557 0.307-0.75l3-3c0.193-0.19 0.458-0.307 0.75-0.307s0.557 0.117 0.75 0.307l-0-0 1.85 1.93c0.255-0.144 0.562-0.288 0.878-0.412l0.052-0.018z"></path>
<path stroke-width="1.5" stroke-miterlimit="4" stroke-linecap="round" stroke-linejoin="round" d="M20.22 16c0 2.331-1.889 4.22-4.22 4.22s-4.22-1.889-4.22-4.22c0-2.331 1.889-4.22 4.22-4.22s4.22 1.889 4.22 4.22z"></path>
</symbol>
<symbol id="icon-admon" viewBox="0 0 32 32">
<path stroke-width="1.5" stroke-miterlimit="4" stroke-linecap="round" stroke-linejoin="miter" d="M29 16c0 7.18-5.82 13-13 13s-13-5.82-13-13c0-7.18 5.82-13 13-13s13 5.82 13 13z"/>
<path stroke-width="1.5" stroke-miterlimit="4" stroke-linecap="round" stroke-linejoin="miter" d="M19.55 12.94v-1.474c0-0.004 0-0.008 0-0.012 0-0.822-0.358-1.561-0.926-2.069l-0.003-0.002c-0.599-0.537-1.394-0.865-2.266-0.865-0.009 0-0.018 0-0.026 0h-1.329c-0.044-0.002-0.095-0.003-0.146-0.003-1.643 0-2.985 1.287-3.073 2.908l-0 0.008v0.217c0.016 1.017 0.564 1.903 1.377 2.393l0.013 0.007 5.56 3.518c0.826 0.497 1.374 1.383 1.39 2.398l0 0.002c-0.089 1.629-1.431 2.915-3.074 2.915-0.051 0-0.103-0.001-0.153-0.004l0.007 0h-1.9c-0.044 0.002-0.095 0.003-0.146 0.003-1.643 0-2.985-1.287-3.073-2.908l-0-0.008v-1.499"/>
<path stroke-width="0.5" stroke-miterlimit="4" stroke-linecap="round" stroke-linejoin="miter" d="M16 26.739c-0.395 0-0.716-0.321-0.716-0.716v0-20.046c0-0.395 0.321-0.716 0.716-0.716v0c0.395 0 0.716 0.321 0.716 0.716v0 20.046c0 0.395-0.321 0.716-0.716 0.716v0z"/>
</symbol>
<symbol id="icon-comercial" viewBox="0 0 32 32">
<path stroke-width="1.5" stroke-miterlimit="4" stroke-linecap="round" stroke-linejoin="miter" d="M4.75 15.299v-6c0-0.552 0.448-1 1-1v0h22c0.552 0 1 0.448 1 1v0 17.2c0 0.552-0.448 1-1 1v0h-12.34"></path>
<path stroke-width="1.5" stroke-miterlimit="4" stroke-linecap="round" stroke-linejoin="miter" d="M5.95 8.299l19.38-5.16c0.091-0.025 0.196-0.039 0.303-0.039 0.554 0 1.021 0.372 1.165 0.88l0.002 0.009 1.080 4.31"></path>
<path stroke-width="1.5" stroke-miterlimit="4" stroke-linecap="round" stroke-linejoin="miter" d="M28.75 16.449h-4.8c-0.663 0-1.2 0.537-1.2 1.2v0 2.4c-0.001 0.015-0.001 0.032-0.001 0.050 0 0.663 0.537 1.2 1.2 1.2 0 0 0.001 0 0.001 0h4.8"></path>
<path stroke-width="1.5" stroke-miterlimit="4" stroke-linecap="round" stroke-linejoin="round" d="M10.2 20.349c0 1.381-1.119 2.5-2.5 2.5s-2.5-1.119-2.5-2.5c0-1.381 1.119-2.5 2.5-2.5s2.5 1.119 2.5 2.5z"></path>
<path stroke-width="1.5" stroke-miterlimit="4" stroke-linecap="round" stroke-linejoin="round" d="M7.75 22.849c-2.485 0-4.5 2.015-4.5 4.5v0 0.95c0 0.331 0.269 0.6 0.6 0.6h7.8c0.331 0 0.6-0.269 0.6-0.6v0-0.9c0-0.018 0-0.039 0-0.060 0-2.48-2.010-4.49-4.49-4.49-0.004 0-0.007 0-0.011 0h0.001z"></path>
</symbol>
<symbol id="icon-expat" viewBox="0 0 32 32">
<path stroke-width="1.5" stroke-miterlimit="4" stroke-linecap="round" stroke-linejoin="round" d="M29.4 12.926c-0.237-0.71-0.894-1.214-1.669-1.22h-7.731l-2.32-6.82c-0.259-0.69-0.913-1.172-1.68-1.172s-1.421 0.482-1.676 1.16l-0.004 0.012-2.32 6.82h-7.73c-0.776 0.006-1.433 0.51-1.666 1.207l-0.004 0.012c-0.061 0.17-0.097 0.366-0.097 0.57 0 0.592 0.297 1.114 0.751 1.426l0.006 0.004 6.16 4.22-2.34 6.8c-0.064 0.172-0.101 0.371-0.101 0.578 0 0.59 0.299 1.111 0.755 1.418l0.006 0.004c0.28 0.194 0.626 0.31 1 0.31s0.72-0.116 1.006-0.313l-0.006 0.004 6.26-4.24 6.23 4.27c0.28 0.194 0.626 0.31 1 0.31s0.72-0.116 1.006-0.313l-0.006 0.004c0.461-0.311 0.761-0.832 0.761-1.422 0-0.207-0.037-0.406-0.104-0.59l0.004 0.012-2.34-6.81 6.16-4.22c0.476-0.313 0.787-0.845 0.787-1.45 0-0.204-0.035-0.4-0.1-0.582l0.004 0.012z"></path>
</symbol>
<symbol id="icon-mant" viewBox="0 0 32 32">
<path stroke-width="1.5" stroke-miterlimit="4" stroke-linecap="round" stroke-linejoin="round" d="M9.013 8v7.387c0.001 1.473 1.194 2.666 2.667 2.666h8.427v5.947c0 1.473 1.194 2.667 2.667 2.667v0h4.347c1.473 0 2.667-1.194 2.667-2.667v-13.334c0-2.945-2.388-5.333-5.333-5.333-0.001 0-0.001 0-0.002 0h-12.773c-1.473 0-2.667 1.194-2.667 2.667v0z"></path>
<path stroke-width="1.5" stroke-miterlimit="4" stroke-linecap="round" stroke-linejoin="round" d="M9.013 7.999v0c-0.036-0.001-0.079-0.002-0.122-0.002-2.097 0-3.805 1.663-3.878 3.742l-0 0.007c0.073 2.078 1.775 3.735 3.865 3.735 0.048 0 0.095-0.001 0.142-0.003l-0.007 0"></path>
</symbol>
<symbol id="icon-mc" viewBox="0 0 32 32">
<path stroke-width="1.5" stroke-miterlimit="4" stroke-linecap="round" stroke-linejoin="round" d="M2.667 2.667v24c0 1.473 1.194 2.667 2.667 2.667v0h24"></path>
<path stroke-width="1.5" stroke-miterlimit="4" stroke-linecap="round" stroke-linejoin="round" d="M20 5.154v9.247c0 5.302-4.298 9.6-9.6 9.6v0h-2.4"></path>
</symbol>
<symbol id="icon-ops" viewBox="0 0 32 32">
<path stroke-width="1.5" stroke-miterlimit="10" stroke-linecap="round" stroke-linejoin="miter" d="M9.215 21.91c0 1.491-1.209 2.7-2.7 2.7s-2.7-1.209-2.7-2.7c0-1.491 1.209-2.7 2.7-2.7s2.7 1.209 2.7 2.7z"/>
<path stroke-width="1.5" stroke-miterlimit="10" stroke-linecap="round" stroke-linejoin="miter" d="M27.705 21.91c0 1.491-1.209 2.7-2.7 2.7s-2.7-1.209-2.7-2.7c0-1.491 1.209-2.7 2.7-2.7s2.7 1.209 2.7 2.7z"/>
<path stroke-width="1.5" stroke-miterlimit="10" stroke-linecap="round" stroke-linejoin="miter" d="M22.315 7.39v6.3c0 0.552 0.448 1 1 1v0h6.55"/>
<path stroke-width="1.5" stroke-miterlimit="10" stroke-linecap="round" stroke-linejoin="miter" d="M3.825 21.98h-1.55c-0.11 0-0.2-0.090-0.2-0.2v0-14.19c0-0.11 0.090-0.2 0.2-0.2v0h21.39c0.315 0.002 0.596 0.149 0.778 0.378l0.002 0.002 5.27 6.64c0.131 0.168 0.21 0.381 0.21 0.613 0 0.006-0 0.012-0 0.018v-0.001 6.74c0 0.11-0.090 0.2-0.2 0.2v0h-2"/>
<path stroke-width="1.5" stroke-miterlimit="4" stroke-linecap="round" stroke-linejoin="miter" d="M27.969 21.98h-24.864"/>
</symbol>
<symbol id="icon-rh" viewBox="0 0 32 32">
<path stroke-width="1.5" stroke-miterlimit="4" stroke-linecap="round" stroke-linejoin="round" d="M4 29.346l1.053-3.84c3.48-12.667 18.413-12.667 21.893 0l1.054 3.84"></path>
<path stroke-width="1.5" stroke-miterlimit="4" stroke-linecap="round" stroke-linejoin="bevel" d="M22.667 9.32c0 3.682-2.985 6.667-6.667 6.667s-6.667-2.985-6.667-6.667c0-3.682 2.985-6.667 6.667-6.667s6.667 2.985 6.667 6.667z"></path>
</symbol>
<symbol id="icon-ti" viewBox="0 0 32 32">
<path stroke-width="1.5" stroke-miterlimit="10" stroke-linecap="round" stroke-linejoin="miter" d="M6.24 8.15h19.52c0.552 0 1 0.448 1 1v0 12.52h-21.52v-12.52c0-0.552 0.448-1 1-1v0z"></path>
<path stroke-width="1.5" stroke-miterlimit="10" stroke-linecap="round" stroke-linejoin="miter" d="M2.21 21.67h27.58c0.182 0 0.33 0.148 0.33 0.33v0 0c0 1.022-0.828 1.85-1.85 1.85v0h-24.54c-1.022 0-1.85-0.828-1.85-1.85v0c0-0.182 0.148-0.33 0.33-0.33v0z"></path>
</symbol>
</defs>
<symbol id="icon-admintra-sm" viewBox="0 0 24 24">
<path stroke-width="1" stroke-miterlimit="4" stroke-linecap="round" stroke-linejoin="round" d="M9.622 3.292c0-0.442 0.358-0.8 0.8-0.8v0h3.165c0.442 0 0.8 0.358 0.8 0.8v0 1.957c0.279 0.095 0.51 0.194 0.733 0.307l-0.033-0.015 1.413-1.374c0.144-0.143 0.343-0.231 0.563-0.231s0.418 0.088 0.563 0.231l2.25 2.25c0.143 0.144 0.231 0.343 0.231 0.563s-0.088 0.418-0.231 0.563l0-0-1.44 1.388c0.1 0.233 0.2 0.458 0.285 0.7h1.987c0.438 0.003 0.792 0.357 0.795 0.795v3.165c0 0.442-0.358 0.8-0.8 0.8h-1.952c-0.083 0.24-0.18 0.465-0.285 0.7l1.373 1.425c0.143 0.144 0.231 0.343 0.231 0.563s-0.088 0.418-0.231 0.563l-2.25 2.25c-0.144 0.143-0.343 0.231-0.563 0.231s-0.418-0.088-0.563-0.231l0 0-1.388-1.463c-0.19 0.098-0.421 0.197-0.66 0.28l-0.040 0.012v1.988c-0.003 0.438-0.357 0.792-0.795 0.795h-3.163c-0.442 0-0.8-0.358-0.8-0.8v-1.952c-0.279-0.095-0.51-0.194-0.733-0.307l0.033 0.015-1.417 1.379c-0.144 0.143-0.343 0.231-0.563 0.231s-0.418-0.088-0.563-0.231l-2.25-2.25c-0.143-0.144-0.231-0.343-0.231-0.563s0.088-0.418 0.231-0.563l-0 0 1.442-1.387c-0.105-0.233-0.2-0.458-0.285-0.7h-1.99c-0.442 0-0.8-0.358-0.8-0.8v0-3.158c0-0.442 0.358-0.8 0.8-0.8v0h1.957c0.082-0.24 0.18-0.465 0.285-0.7l-1.367-1.417c-0.143-0.144-0.232-0.343-0.232-0.563s0.088-0.418 0.232-0.563l2.25-2.25c0.144-0.143 0.343-0.231 0.563-0.231s0.418 0.088 0.563 0.231l-0-0 1.382 1.443c0.192-0.108 0.423-0.217 0.661-0.31l0.039-0.013z"/>
<path stroke-width="1" stroke-miterlimit="4" stroke-linecap="round" stroke-linejoin="round" d="M15.165 12c0 1.748-1.417 3.165-3.165 3.165s-3.165-1.417-3.165-3.165c0-1.748 1.417-3.165 3.165-3.165s3.165 1.417 3.165 3.165z"/>
</symbol>
<symbol id="icon-admon-sm" viewBox="0 0 24 24">
<path stroke-width="1" stroke-miterlimit="4" stroke-linecap="round" stroke-linejoin="miter" d="M21.75 12c0 5.385-4.365 9.75-9.75 9.75s-9.75-4.365-9.75-9.75c0-5.385 4.365-9.75 9.75-9.75s9.75 4.365 9.75 9.75z"/>
<path stroke-width="1" stroke-miterlimit="4" stroke-linecap="round" stroke-linejoin="miter" d="M14.663 9.668v-1.223c0-0.009 0-0.019 0-0.030 0-1.334-1.081-2.415-2.415-2.415-0 0-0.001 0-0.001 0h-1c-1.334 0-2.415 1.081-2.415 2.415v0 0.18c0 0 0 0 0 0.001 0 0.821 0.409 1.546 1.035 1.982l0.008 0.005 4.17 2.917c0.633 0.442 1.042 1.166 1.042 1.987 0 0 0 0 0 0v-0c-0.001 1.332-1.080 2.411-2.412 2.413h-1.425c-1.334 0-2.415-1.081-2.415-2.415v0-1.235"/>
</symbol>
<symbol id="icon-comercial-sm" viewBox="0 0 24 24">
<path stroke-width="1" stroke-miterlimit="4" stroke-linecap="round" stroke-linejoin="miter" d="M3.563 11.474v-4.5c0-0.414 0.336-0.75 0.75-0.75v0h16.5c0.414 0 0.75 0.336 0.75 0.75v0 12.9c0 0.414-0.336 0.75-0.75 0.75v0h-9.255"/>
<path stroke-width="1" stroke-miterlimit="4" stroke-linecap="round" stroke-linejoin="miter" d="M4.463 6.224l14.535-3.87c0.067-0.018 0.145-0.028 0.225-0.028 0.415 0 0.766 0.279 0.874 0.66l0.002 0.006 0.81 3.233"/>
<path stroke-width="1" stroke-miterlimit="4" stroke-linecap="round" stroke-linejoin="miter" d="M21.563 12.337h-3.6c-0.497 0-0.9 0.403-0.9 0.9v0 1.8c-0.001 0.011-0.001 0.025-0.001 0.038 0 0.497 0.403 0.9 0.9 0.9 0 0 0.001 0 0.001 0h3.6"/>
<path stroke-width="1" stroke-miterlimit="4" stroke-linecap="round" stroke-linejoin="round" d="M7.65 15.262c0 1.036-0.839 1.875-1.875 1.875s-1.875-0.839-1.875-1.875c0-1.036 0.839-1.875 1.875-1.875s1.875 0.839 1.875 1.875z"/>
<path stroke-width="1" stroke-miterlimit="4" stroke-linecap="round" stroke-linejoin="round" d="M5.813 17.137c-1.864 0-3.375 1.511-3.375 3.375v0 0.713c0 0.249 0.201 0.45 0.45 0.45v0h5.85c0.249 0 0.45-0.201 0.45-0.45v0-0.675c0-0.013 0-0.029 0-0.045 0-1.86-1.508-3.368-3.368-3.368-0.003 0-0.005 0-0.008 0h0z"/>
</symbol>
<symbol id="icon-expat-sm" viewBox="0 0 24 24">
<path stroke-width="1" stroke-miterlimit="4" stroke-linecap="round" stroke-linejoin="round" d="M22.050 9.695c-0.178-0.534-0.67-0.913-1.252-0.917h-5.801l-1.74-5.115c-0.194-0.518-0.685-0.88-1.26-0.88s-1.066 0.362-1.257 0.871l-0.003 0.009-1.737 5.115h-5.8c-0.582 0.004-1.075 0.382-1.25 0.906l-0.003 0.009c-0.045 0.126-0.071 0.272-0.071 0.424 0 0.446 0.224 0.839 0.567 1.073l0.004 0.003 4.62 3.165-1.755 5.1c-0.047 0.128-0.075 0.276-0.075 0.431 0 0.445 0.226 0.836 0.57 1.066l0.005 0.003c0.21 0.145 0.47 0.232 0.75 0.232s0.54-0.087 0.754-0.235l-0.004 0.003 4.688-3.18 4.674 3.2c0.21 0.145 0.47 0.232 0.75 0.232s0.54-0.087 0.754-0.235l-0.004 0.003c0.346-0.233 0.57-0.624 0.57-1.067 0-0.155-0.028-0.304-0.078-0.442l0.003 0.009-1.757-5.1 4.62-3.165c0.357-0.236 0.59-0.635 0.59-1.089 0-0.153-0.026-0.299-0.075-0.435l0.003 0.009z"/>
</symbol>
<symbol id="icon-mant-sm" viewBox="0 0 24 24">
<path stroke-width="1.125" stroke-miterlimit="4" stroke-linecap="round" stroke-linejoin="round" d="M6.76 6v5.54c0 1.104 0.896 2 2 2h6.32v4.46c0 1.105 0.896 2 2 2v0h3.26c1.105 0 2-0.896 2-2v-10c0-2.209-1.791-4-4-4-0.001 0-0.001 0-0.002 0h-9.58c-1.105 0-2 0.896-2 2v0z"/>
<path stroke-width="1.125" stroke-miterlimit="4" stroke-linecap="round" stroke-linejoin="round" d="M6.76 5.999v0c-0.027-0.001-0.059-0.001-0.092-0.001-1.573 0-2.854 1.247-2.908 2.807l-0 0.005c0.055 1.559 1.332 2.802 2.899 2.802 0.036 0 0.071-0.001 0.107-0.002l-0.005 0"/>
</symbol>
<symbol id="icon-mc-sm" viewBox="0 0 24 24">
<path stroke-width="1" stroke-miterlimit="4" stroke-linecap="round" stroke-linejoin="round" d="M2 2v18c0 1.105 0.895 2 2 2v0h18"/>
<path stroke-width="1" stroke-miterlimit="4" stroke-linecap="round" stroke-linejoin="round" d="M15 3.865v6.935c0 3.976-3.224 7.2-7.2 7.2v0h-1.8"/>
</symbol>
<symbol id="icon-ops-sm" viewBox="0 0 24 24">
<path stroke-width="1" stroke-miterlimit="10" stroke-linecap="round" stroke-linejoin="miter" d="M6.911 16.433c0 1.118-0.907 2.025-2.025 2.025s-2.025-0.907-2.025-2.025c0-1.118 0.907-2.025 2.025-2.025s2.025 0.907 2.025 2.025z"/>
<path stroke-width="1" stroke-miterlimit="10" stroke-linecap="round" stroke-linejoin="miter" d="M20.779 16.433c0 1.118-0.907 2.025-2.025 2.025s-2.025-0.907-2.025-2.025c0-1.118 0.907-2.025 2.025-2.025s2.025 0.907 2.025 2.025z"/>
<path stroke-width="1" stroke-miterlimit="10" stroke-linecap="round" stroke-linejoin="miter" d="M16.736 5.543v4.725c0 0.414 0.336 0.75 0.75 0.75v0h4.913"/>
<path stroke-width="1" stroke-miterlimit="10" stroke-linecap="round" stroke-linejoin="miter" d="M2.868 16.485h-1.162c-0.083 0-0.15-0.067-0.15-0.15v0-10.642c0-0.083 0.067-0.15 0.15-0.15v0h16.043c0.237 0.001 0.447 0.112 0.584 0.283l0.001 0.002 3.953 4.98c0.098 0.126 0.157 0.286 0.157 0.459 0 0.005-0 0.010-0 0.014v-0.001 5.055c0 0.083-0.067 0.15-0.15 0.15v0h-1.5"/>
</symbol>
<symbol id="icon-rh-sm" viewBox="0 0 24 24">
<path stroke-width="1" stroke-miterlimit="4" stroke-linecap="round" stroke-linejoin="round" d="M3 22.010l0.79-2.88c2.61-9.5 13.81-9.5 16.42 0l0.79 2.88"/>
<path stroke-width="1" stroke-miterlimit="4" stroke-linecap="round" stroke-linejoin="bevel" d="M17 6.99c0 2.761-2.239 5-5 5s-5-2.239-5-5c0-2.761 2.239-5 5-5s5 2.239 5 5z"/>
</symbol>
<symbol id="icon-ti-sm" viewBox="0 0 24 24">
<path stroke-width="1" stroke-miterlimit="10" stroke-linecap="round" stroke-linejoin="miter" d="M4.68 6.112h14.64c0.414 0 0.75 0.336 0.75 0.75v0 9.39h-16.14v-9.39c0-0.414 0.336-0.75 0.75-0.75v0z"/>
<path stroke-width="1" stroke-miterlimit="10" stroke-linecap="round" stroke-linejoin="miter" d="M1.658 16.252h20.685c0.136 0 0.247 0.111 0.247 0.247v0 0c0 0.767-0.621 1.388-1.388 1.388h-18.404c-0.767 0-1.388-0.621-1.388-1.388v0 0c0 0 0 0 0 0 0-0.136 0.111-0.247 0.247-0.247 0 0 0.001 0 0.001 0h-0z"/>
</symbol>
<symbol id="icon-add" viewBox="0 0 24 24">
<path stroke-width="1" stroke-miterlimit="4" stroke-linecap="round" stroke-linejoin="round" d="M4.98 12h14.040"/>
<path stroke-width="1" stroke-miterlimit="4" stroke-linecap="round" stroke-linejoin="round" d="M12 19.020v-14.040"/>
</symbol>
<symbol id="icon-bag" viewBox="0 0 24 24">
<path stroke-width="1" stroke-miterlimit="4" stroke-linecap="round" stroke-linejoin="round" d="M3.356 7.138h17.289c0.597 0 1.081 0.484 1.081 1.081v10.805c0 0.597-0.484 1.081-1.081 1.081h-17.289c-0.597 0-1.081-0.484-1.081-1.081v-10.805c0-0.597 0.484-1.081 1.081-1.081z"/>
<path stroke-width="1" stroke-miterlimit="4" stroke-linecap="round" stroke-linejoin="round" d="M8.759 7.138v0c0-1.791 1.451-3.242 3.242-3.242v0 0c1.791 0 3.242 1.451 3.242 3.242v0"/>
</symbol>
<symbol id="icon-bell" viewBox="0 0 24 24">
<path stroke-width="1" stroke-miterlimit="4" stroke-linecap="round" stroke-linejoin="round" d="M6 10.5c0-3.314 2.686-6 6-6v0 0c3.314 0 6 2.686 6 6v0 2.5c0 0.001 0 0.002 0 0.003 0 1.385 0.333 2.691 0.922 3.845l-0.022-0.048 0.863 1.74c0.045 0.087 0.071 0.191 0.071 0.3 0 0.367-0.297 0.665-0.664 0.667h-14.34c-0.367-0.003-0.663-0.301-0.663-0.668 0-0.109 0.026-0.213 0.073-0.304l-0.002 0.004 0.863-1.74c0.567-1.106 0.9-2.413 0.9-3.797 0-0.001 0-0.002 0-0.003v0z"/>
<path stroke-width="1" stroke-miterlimit="4" stroke-linecap="round" stroke-linejoin="round" d="M10.7 4.5c-0.127-0.216-0.203-0.475-0.203-0.753 0-0.828 0.672-1.5 1.5-1.5s1.5 0.672 1.5 1.5c0 0.277-0.075 0.537-0.206 0.76l0.004-0.007"/>
<path stroke-width="1" stroke-miterlimit="4" stroke-linecap="round" stroke-linejoin="round" d="M9.75 19.747c0.069 1.121 0.994 2.004 2.126 2.004 0.044 0 0.087-0.001 0.13-0.004l-0.006 0c0.037 0.002 0.080 0.004 0.124 0.004 1.132 0 2.058-0.883 2.126-1.998l0-0.006"/>
<path stroke-width="1" stroke-miterlimit="4" stroke-linecap="round" stroke-linejoin="round" d="M5.4 16.125h13.2"/>
</symbol>
<symbol id="icon-bill" viewBox="0 0 24 24">
<path stroke-width="1" stroke-miterlimit="4" stroke-linecap="round" stroke-linejoin="round" d="M4 6h16c0.552 0 1 0.448 1 1v10c0 0.552-0.448 1-1 1h-16c-0.552 0-1-0.448-1-1v-10c0-0.552 0.448-1 1-1z"/>
<path stroke-width="1" stroke-miterlimit="4" stroke-linecap="round" stroke-linejoin="round" d="M15 12c0 1.657-1.343 3-3 3s-3-1.343-3-3c0-1.657 1.343-3 3-3s3 1.343 3 3z"/>
<path stroke-width="1" stroke-miterlimit="4" stroke-linecap="round" stroke-linejoin="round" d="M6 6c0 1.657-1.343 3-3 3v0"/>
<path stroke-width="1" stroke-miterlimit="4" stroke-linecap="round" stroke-linejoin="round" d="M3 15c1.657 0 3 1.343 3 3v0"/>
<path stroke-width="1" stroke-miterlimit="4" stroke-linecap="round" stroke-linejoin="round" d="M18 18c0-1.657 1.343-3 3-3v0"/>
<path stroke-width="1" stroke-miterlimit="4" stroke-linecap="round" stroke-linejoin="round" d="M21 9c-1.657 0-3-1.343-3-3v0"/>
</symbol>
<symbol id="icon-caja" viewBox="0 0 24 24">
<path stroke-width="1" stroke-miterlimit="4" stroke-linecap="round" stroke-linejoin="round" d="M4.051 13.512v8.046h15.9v-8.046"/>
<path stroke-width="1" stroke-miterlimit="4" stroke-linecap="round" stroke-linejoin="round" d="M18.34 9.053h1.14c0 0 0 0 0 0 0.176 0 0.324 0.12 0.366 0.283l0.001 0.003 1.7 3.7c0.007 0.028 0.012 0.060 0.012 0.093 0 0.209-0.169 0.378-0.378 0.378-0 0-0 0-0.001 0h-18.361c-0 0-0 0-0.001 0-0.209 0-0.378-0.169-0.378-0.378 0-0.033 0.004-0.065 0.012-0.096l-0.001 0.003 1.7-3.7c0.043-0.166 0.191-0.286 0.367-0.286 0 0 0 0 0 0h1.035"/>
<path stroke-width="1" stroke-miterlimit="4" stroke-linecap="round" stroke-linejoin="round" d="M12 4.862v4.4"/>
<path stroke-width="1" stroke-miterlimit="4" stroke-linecap="round" stroke-linejoin="round" d="M13.32 7.942l-1.32 1.32-1.32-1.32"/>
<path stroke-width="1" stroke-miterlimit="4" stroke-linecap="round" stroke-linejoin="round" d="M16.621 7.062c0 2.552-2.068 4.62-4.62 4.62s-4.62-2.068-4.62-4.62c0-2.552 2.068-4.62 4.62-4.62s4.62 2.068 4.62 4.62z"/>
</symbol>
<symbol id="icon-calendario-check" viewBox="0 0 24 24">
<path stroke-width="1" stroke-miterlimit="4" stroke-linecap="round" stroke-linejoin="round" d="M3 6.188c0-0.414 0.336-0.75 0.75-0.75v0h16.5c0.414 0 0.75 0.336 0.75 0.75v0 13.5c0 0.414-0.336 0.75-0.75 0.75v0h-16.5c-0.414 0-0.75-0.336-0.75-0.75v0z"/>
<path stroke-width="1" stroke-miterlimit="4" stroke-linecap="round" stroke-linejoin="round" d="M7.5 15.038l3.195 3.15 5.805-5.25"/>
</symbol>
<symbol id="icon-call-center" viewBox="0 0 24 24">
<path stroke-width="1" stroke-miterlimit="10" stroke-linecap="round" stroke-linejoin="miter" d="M6.463 17.085v-10.080c0.001-2.53 2.052-4.581 4.582-4.581h1.909c2.531 0 4.582 2.051 4.582 4.582v9.55c0 2.326-1.886 4.212-4.212 4.212v0"/>
<path stroke-width="1" stroke-miterlimit="10" stroke-linecap="round" stroke-linejoin="miter" d="M6.464 8.991h-0.573c-1.878 0-3.4 1.522-3.4 3.4v0 1.3c0 1.878 1.522 3.4 3.4 3.4h0.573"/>
<path stroke-width="1" stroke-miterlimit="10" stroke-linecap="round" stroke-linejoin="miter" d="M17.537 8.991h0.573c1.878 0 3.4 1.522 3.4 3.4v1.3c0 1.878-1.522 3.4-3.4 3.4v0h-0.573"/>
<path stroke-width="1" stroke-miterlimit="10" stroke-linecap="round" stroke-linejoin="miter" d="M6.463 8.657c0-2.531 2.051-4.582 4.582-4.582v0h1.909c2.531 0 4.582 2.051 4.582 4.582v0"/>
<path stroke-width="1" stroke-miterlimit="10" stroke-linecap="round" stroke-linejoin="miter" d="M9.074 19.958h3.424c0.447 0 0.809 0.362 0.809 0.809s-0.362 0.809-0.809 0.809h-3.424c-0.447 0-0.809-0.362-0.809-0.809s0.362-0.809 0.809-0.809z"/>
</symbol>
<symbol id="icon-check" viewBox="0 0 24 24">
<path stroke-width="1" stroke-miterlimit="4" stroke-linecap="round" stroke-linejoin="round" d="M5.010 12.015l4.38 4.74 9.6-9.51"/>
</symbol>
<symbol id="icon-clock" viewBox="0 0 24 24">
<path stroke-width="1" stroke-miterlimit="4" stroke-linecap="round" stroke-linejoin="miter" d="M21.75 12c0 5.385-4.365 9.75-9.75 9.75s-9.75-4.365-9.75-9.75c0-5.385 4.365-9.75 9.75-9.75s9.75 4.365 9.75 9.75z"/>
<path stroke-width="1" stroke-miterlimit="4" stroke-linecap="round" stroke-linejoin="miter" d="M12 5.46v6.54l4.47 2.722"/>
</symbol>
<symbol id="icon-clock-check" viewBox="0 0 24 24">
<path stroke-width="1" stroke-miterlimit="4" stroke-linecap="round" stroke-linejoin="miter" d="M12 5.287v6.54l4.47 2.722"/>
<path stroke-width="1" stroke-miterlimit="4" stroke-linecap="round" stroke-linejoin="round" d="M11.168 17.797c0 2.278-1.847 4.125-4.125 4.125s-4.125-1.847-4.125-4.125c0-2.278 1.847-4.125 4.125-4.125s4.125 1.847 4.125 4.125z"/>
<path stroke-width="1" stroke-miterlimit="4" stroke-linecap="round" stroke-linejoin="round" d="M5.168 17.55l1.327 1.35 2.423-2.25"/>
<path stroke-width="1" stroke-miterlimit="4" stroke-linecap="round" stroke-linejoin="miter" d="M2.468 13.874c-0.139-0.616-0.218-1.324-0.218-2.050 0-5.385 4.365-9.75 9.75-9.75s9.75 4.365 9.75 9.75c0 5.384-4.365 9.749-9.749 9.75h-0"/>
</symbol>
<symbol id="icon-clock-danger" viewBox="0 0 24 24">
<path stroke-width="1" stroke-miterlimit="4" stroke-linecap="round" stroke-linejoin="miter" d="M11.988 5.46v6.54l4.47 2.722"/>
<path stroke-width="1" stroke-miterlimit="4" stroke-linecap="round" stroke-linejoin="round" d="M7.413 18h-1.005l-1-4.5h3z"/>
<path stroke-width="1" stroke-miterlimit="4" stroke-linecap="round" stroke-linejoin="round" d="M8.035 20.625c0 0.621-0.504 1.125-1.125 1.125s-1.125-0.504-1.125-1.125c0-0.621 0.504-1.125 1.125-1.125s1.125 0.504 1.125 1.125z"/>
<path stroke-width="1" stroke-miterlimit="4" stroke-linecap="round" stroke-linejoin="miter" d="M3.744 17.19c-0.943-1.475-1.502-3.274-1.502-5.204 0-5.393 4.371-9.764 9.764-9.764s9.764 4.371 9.764 9.764c0 5.393-4.371 9.764-9.764 9.764-0.713 0-1.409-0.077-2.079-0.222l0.064 0.012"/>
</symbol>
<symbol id="icon-comments" viewBox="0 0 24 24">
<path stroke-width="1" stroke-miterlimit="10" stroke-linecap="butt" stroke-linejoin="miter" d="M16.684 3.397h-14.092c-0.309 0.004-0.558 0.254-0.562 0.563v8.873c0.004 0.309 0.254 0.559 0.563 0.563h2.16v2.25c-0 0.003-0.001 0.007-0.001 0.012 0 0.058 0.047 0.105 0.105 0.105 0.034 0 0.064-0.016 0.083-0.041l0-0 2.873-2.3h8.872c0.307-0.004 0.555-0.254 0.555-0.562 0-0 0-0 0-0v0-8.9c0-0 0-0 0-0 0-0.308-0.248-0.558-0.555-0.563h-0z"/>
<path stroke-width="1" stroke-miterlimit="10" stroke-linecap="butt" stroke-linejoin="miter" d="M17.246 10.605h4.268c0 0 0 0 0 0 0.253 0 0.457 0.204 0.458 0.457v7.185c0 0.253-0.205 0.458-0.458 0.458v0h-1.755v1.8c0 0.003 0 0.005 0 0.008 0 0.050-0.040 0.090-0.090 0.090-0.027 0-0.051-0.012-0.067-0.030l-0-0-2.356-1.868h-7.154c-0 0-0.001 0-0.001 0-0.252 0-0.457-0.205-0.457-0.457 0 0 0 0 0 0v0-4.853"/>
</symbol>
<symbol id="icon-destinos" viewBox="0 0 24 24">
<path stroke-width="1" stroke-miterlimit="4" stroke-linecap="round" stroke-linejoin="bevel" d="M6.873 11.030q-0.181-0.018-0.366-0.018t-0.366 0.018c-1.707 0.23-3.009 1.678-3.009 3.43 0 0.617 0.161 1.195 0.444 1.697l-0.009-0.017 2.566 4.766c0.073 0.134 0.213 0.224 0.375 0.224s0.301-0.090 0.373-0.222l0.001-0.002 2.566-4.766c0.274-0.484 0.435-1.063 0.435-1.679 0-1.752-1.303-3.2-2.992-3.428l-0.018-0.002z"/>
<path stroke-width="1" stroke-miterlimit="4" stroke-linecap="round" stroke-linejoin="bevel" d="M6.506 13.159c0.669 0 1.212 0.543 1.212 1.212s-0.543 1.212-1.212 1.212c-0.669 0-1.212-0.543-1.212-1.212s0.543-1.212 1.212-1.212z"/>
<path stroke-width="1" stroke-miterlimit="4" stroke-linecap="round" stroke-linejoin="bevel" d="M18.45 2.888q-0.145-0.014-0.295-0.014t-0.295 0.014c-1.373 0.185-2.42 1.35-2.42 2.758 0 0.496 0.13 0.961 0.357 1.365l-0.007-0.014 2.065 3.833c0.059 0.107 0.171 0.178 0.3 0.178s0.241-0.071 0.299-0.176l0.001-0.002 2.064-3.833c0.22-0.389 0.35-0.855 0.35-1.351 0-1.409-1.047-2.573-2.406-2.757l-0.014-0.002z"/>
<path stroke-width="1" stroke-miterlimit="4" stroke-linecap="round" stroke-linejoin="bevel" d="M18.156 4.602c0.538 0 0.975 0.437 0.975 0.975s-0.437 0.975-0.975 0.975c-0.538 0-0.975-0.437-0.975-0.975s0.437-0.975 0.975-0.975z"/>
<path stroke-width="1" stroke-miterlimit="4" stroke-linecap="round" stroke-linejoin="bevel" d="M6.506 21.13h11.828c1.397 0 2.529-1.132 2.529-2.529v0 0c0-0.001 0-0.003 0-0.004 0-1.397-1.132-2.529-2.529-2.529 0 0 0 0 0 0h-2.122c-1.397 0-2.529-1.132-2.529-2.529v0c0-1.397 1.132-2.529 2.529-2.529v0h1.944"/>
</symbol>
<symbol id="icon-documentar" viewBox="0 0 24 24">
<path stroke-width="1" stroke-miterlimit="10" stroke-linecap="round" stroke-linejoin="miter" d="M10.451 19.939h-6.734c-0.396 0-0.717-0.321-0.717-0.717v0-15.066c0-0.396 0.321-0.717 0.717-0.717v0h16.566c0.396 0 0.717 0.321 0.717 0.717v0 15.066c0 0.396-0.321 0.717-0.717 0.717v0h-3.651"/>
<path stroke-width="1" stroke-miterlimit="4" stroke-linecap="round" stroke-linejoin="round" d="M14.989 19.296l3.116-5.4c0.062-0.105 0.098-0.231 0.098-0.366 0-0.27-0.146-0.505-0.363-0.632l-0.003-0.002-0.993-0.574c-0.105-0.061-0.231-0.098-0.366-0.098-0.27 0-0.505 0.146-0.632 0.362l-0.002 0.003-3.116 5.4-0.127 2.184c-0 0.006-0.001 0.014-0.001 0.022 0 0.202 0.164 0.366 0.366 0.366 0.075 0 0.145-0.023 0.203-0.061l-0.001 0.001z"/>
<path stroke-width="1" stroke-miterlimit="4" stroke-linecap="round" stroke-linejoin="round" d="mNaNclNaNNaNclNaNNaNNaNNaNclNaNNaNclNaNNaN"/>
</symbol>
<symbol id="icon-email" viewBox="0 0 24 24">
<path stroke-width="1" stroke-miterlimit="4" stroke-linecap="round" stroke-linejoin="miter" d="M3.851 5.258h16.298c1.105 0 2 0.895 2 2v9.484c0 1.105-0.895 2-2 2h-16.298c-1.105 0-2-0.895-2-2v-9.484c0-1.105 0.895-2 2-2z"/>
<path stroke-width="1" stroke-miterlimit="4" stroke-linecap="round" stroke-linejoin="miter" d="M2.659 5.793l8.407 6.739c0.254 0.204 0.581 0.328 0.936 0.328s0.682-0.124 0.939-0.33l-0.003 0.002 8.416-6.7"/>
<path stroke-width="1" stroke-miterlimit="4" stroke-linecap="round" stroke-linejoin="miter" d="M21.392 18.163lNaNNaNclNaNNaNclNaNNaN"/>
</symbol>
<symbol id="icon-eye" viewBox="0 0 24 24">
<path stroke-width="1" stroke-miterlimit="4" stroke-linecap="round" stroke-linejoin="round" d="M21.24 12.12l-2.408 2.648c-1.698 1.868-4.138 3.035-6.85 3.035s-5.152-1.168-6.843-3.028l-0.007-0.008-2.402-2.648 2.14-2.576c1.71-2.052 4.266-3.348 7.125-3.348s5.415 1.296 7.113 3.333l0.012 0.015 2.15 2.576z"/>
<path stroke-width="1" stroke-miterlimit="4" stroke-linecap="round" stroke-linejoin="bevel" d="M14.468 11.791c0 1.276-1.075 2.31-2.4 2.31s-2.4-1.034-2.4-2.31c0-1.276 1.075-2.31 2.4-2.31s2.4 1.034 2.4 2.31z"/>
</symbol>
<symbol id="icon-factura" viewBox="0 0 24 24">
<path stroke-width="1" stroke-miterlimit="4" stroke-linecap="round" stroke-linejoin="round" d="M7.189 20.553v-15.61c0-0.828 0.672-1.5 1.5-1.5v0h8.561c0.828 0 1.5 0.672 1.5 1.5v0 14.11c0 0.828-0.672 1.5-1.5 1.5v0h-10.136c-1.029 0-1.864-0.835-1.864-1.864v-1.79c0-0.369 0.299-0.668 0.668-0.668v0h1.271"/>
</symbol>
<symbol id="icon-impresora" viewBox="0 0 24 24">
<path stroke-width="1" stroke-miterlimit="10" stroke-linecap="round" stroke-linejoin="miter" d="M5.15 15.802l-0.795 3.7c0 0.414 0.336 0.75 0.75 0.75v0h13.4c0.414 0 0.75-0.336 0.75-0.75v0l-0.797-3.715c0-0.414-0.336-0.75-0.75-0.75v0h-11.821c-0.411 0.004-0.742 0.339-0.742 0.75 0 0.005 0 0.011 0 0.016l-0-0.001z"/>
<path stroke-width="1" stroke-miterlimit="10" stroke-linecap="round" stroke-linejoin="miter" d="M6.315 6.93v-2.49c0-0.381 0.309-0.69 0.69-0.69h9.855c0.381 0 0.69 0.309 0.69 0.69v0 2.49"/>
<path stroke-width="1" stroke-miterlimit="10" stroke-linecap="round" stroke-linejoin="miter" d="M18.802 17.505h1.935c0 0 0 0 0 0 1.002 0 1.815-0.813 1.815-1.815 0-0.002 0-0.005-0-0.007v0-6.93c0-0.002 0-0.005 0-0.008 0-1.002-0.813-1.815-1.815-1.815 0 0-0 0-0 0h-17.475c0 0 0 0-0 0-1.002 0-1.815 0.813-1.815 1.815 0 0.002 0 0.005 0 0.007v-0 6.915c0 0.002-0 0.005-0 0.008 0 1.002 0.813 1.815 1.815 1.815 0 0 0 0 0 0h1.545"/>
<path stroke-width="1" stroke-miterlimit="4" stroke-linecap="round" stroke-linejoin="round" d="M20.123 9.278c0 0.369-0.299 0.668-0.668 0.668s-0.668-0.299-0.668-0.668c0-0.369 0.299-0.668 0.668-0.668s0.668 0.299 0.668 0.668z"/>
<path stroke-width="1" stroke-miterlimit="4" stroke-linecap="round" stroke-linejoin="round" d="M17.258 9.278c0 0.369-0.299 0.668-0.668 0.668s-0.668-0.299-0.668-0.668c0-0.369 0.299-0.668 0.668-0.668s0.668 0.299 0.668 0.668z"/>
</symbol>
<symbol id="icon-info" viewBox="0 0 24 24">
<path stroke-width="1" stroke-miterlimit="4" stroke-linecap="round" stroke-linejoin="round" d="M10.947 11.591h2.115c0.437 0.003 0.799 0.325 0.862 0.745l0.001 0.005 0.892 5.25c0.013 0.077 0.020 0.165 0.020 0.255 0 0.915-0.742 1.657-1.657 1.657-0.002 0-0.003 0-0.005 0h-2.34c-0.003 0-0.006 0-0.008 0-0.915 0-1.657-0.742-1.657-1.657 0-0.098 0.009-0.194 0.025-0.288l-0.001 0.010 0.892-5.25c0.074-0.415 0.432-0.726 0.862-0.727h0z"/>
<path stroke-width="1" stroke-miterlimit="4" stroke-linecap="round" stroke-linejoin="round" d="M14.357 6.851c0 1.301-1.054 2.355-2.355 2.355s-2.355-1.054-2.355-2.355c0-1.301 1.054-2.355 2.355-2.355s2.355 1.054 2.355 2.355z"/>
</symbol>
<symbol id="icon-kiosk" viewBox="0 0 24 24">
<path stroke-width="1" stroke-miterlimit="4" stroke-linecap="round" stroke-linejoin="round" d="M9.409 20.729v-5.974c0.025-0.422 0.373-0.754 0.799-0.754 0.016 0 0.032 0 0.049 0.001l-0.002-0h3.493c0.014-0.001 0.030-0.001 0.046-0.001 0.426 0 0.774 0.333 0.799 0.752l0 0.002v5.974"/>
<path stroke-width="1" stroke-miterlimit="4" stroke-linecap="round" stroke-linejoin="round" d="M4.715 11.757v7.65c0.088 0.752 0.722 1.331 1.49 1.331 0.046 0 0.091-0.002 0.135-0.006l-0.006 0h11.331c0.039 0.004 0.084 0.006 0.13 0.006 0.769 0 1.402-0.578 1.49-1.324l0.001-0.007v-7.65"/>
<path stroke-width="1" stroke-miterlimit="4" stroke-linecap="round" stroke-linejoin="round" d="M3.499 7.889v2.165c0.075 1.048 0.944 1.87 2.004 1.87 0.043 0 0.085-0.001 0.127-0.004l-0.006 0c0.036 0.002 0.078 0.004 0.121 0.004 1.061 0 1.929-0.822 2.004-1.863l0-0.006v-2.165"/>
<path stroke-width="1" stroke-miterlimit="4" stroke-linecap="round" stroke-linejoin="round" d="M7.75 7.889v2.165c0.075 1.048 0.943 1.87 2.003 1.87 0.043 0 0.085-0.001 0.128-0.004l-0.006 0c0.036 0.002 0.078 0.004 0.121 0.004 1.060 0 1.929-0.822 2.004-1.863l0-0.006v-2.165"/>
<path stroke-width="1" stroke-miterlimit="4" stroke-linecap="round" stroke-linejoin="round" d="M12 7.889v2.165c0.075 1.048 0.943 1.87 2.003 1.87 0.043 0 0.085-0.001 0.128-0.004l-0.006 0c0.036 0.002 0.078 0.004 0.121 0.004 1.061 0 1.929-0.822 2.004-1.863l0-0.006v-2.165"/>
<path stroke-width="1" stroke-miterlimit="4" stroke-linecap="round" stroke-linejoin="round" d="M16.25 7.889v2.165c0.075 1.048 0.943 1.87 2.003 1.87 0.043 0 0.085-0.001 0.128-0.004l-0.006 0c0.036 0.002 0.078 0.004 0.121 0.004 1.061 0 1.929-0.822 2.004-1.863l0-0.006v-2.165"/>
<path stroke-width="1" stroke-miterlimit="4" stroke-linecap="round" stroke-linejoin="round" d="M20.5 7.889h-17l2.421-3.95c0.254-0.409 0.7-0.677 1.209-0.677 0.001 0 0.002 0 0.003 0h9.74c0 0 0 0 0 0 0.509 0 0.955 0.268 1.205 0.671l0.003 0.006z"/>
</symbol>
<symbol id="icon-lock" viewBox="0 0 24 24">
<path stroke-width="1" stroke-miterlimit="4" stroke-linecap="round" stroke-linejoin="miter" d="M5.664 7.68h12.673c1.27 0 2.3 1.030 2.3 2.3v9.223c0 1.27-1.030 2.3-2.3 2.3h-12.673c-1.27 0-2.3-1.030-2.3-2.3v-9.223c0-1.27 1.030-2.3 2.3-2.3z"/>
<path stroke-width="1" stroke-miterlimit="4" stroke-linecap="round" stroke-linejoin="miter" d="M8.419 7.679v-1.725c0-0.002 0-0.005 0-0.007 0-1.905 1.545-3.45 3.45-3.45 0.002 0 0.005 0 0.007 0h-0c1.909 0 3.457 1.548 3.458 3.457v1.725"/>
<path stroke-width="1" stroke-miterlimit="4" stroke-linecap="round" stroke-linejoin="miter" d="M13.601 13.725c0 0.953-0.772 1.725-1.725 1.725s-1.725-0.772-1.725-1.725c0-0.953 0.772-1.725 1.725-1.725s1.725 0.772 1.725 1.725z"/>
</symbol>
<symbol id="icon-lupa" viewBox="0 0 24 24">
<path stroke-width="0.9822" stroke-miterlimit="4" stroke-linecap="round" stroke-linejoin="round" d="M17.671 6.347c3.122 3.122 3.122 8.184 0 11.306s-8.184 3.122-11.306 0c-3.122-3.122-3.122-8.184 0-11.306s8.184-3.122 11.306 0z"/>
<path stroke-width="0.9822" stroke-miterlimit="4" stroke-linecap="round" stroke-linejoin="round" d="M17.32 17.54l4.818 4.813"/>
</symbol>
<symbol id="icon-mapa" viewBox="0 0 24 24">
<path stroke-width="1" stroke-miterlimit="4" stroke-linecap="round" stroke-linejoin="round" d="M3.419 2.874v16.568l5.654 1.686 5.753-1.826 5.754 1.826v-16.369l-5.754-1.885-5.753 1.389z"/>
</symbol>
<symbol id="icon-money-ex" viewBox="0 0 24 24">
<path stroke-width="1" stroke-miterlimit="4" stroke-linecap="round" stroke-linejoin="miter" d="M12.338 6.892c0 2.618-2.122 4.74-4.74 4.74s-4.74-2.122-4.74-4.74c0-2.618 2.122-4.74 4.74-4.74s4.74 2.122 4.74 4.74z"/>
<path stroke-width="1" stroke-miterlimit="4" stroke-linecap="round" stroke-linejoin="miter" d="M8.895 5.759v-0.592c0-0.646-0.524-1.17-1.17-1.17v0h-0.5c-0.001 0-0.001 0-0.002 0-0.646 0-1.17 0.524-1.17 1.17 0 0 0 0 0 0v0 0.082c0 0 0 0.001 0 0.001 0 0.395 0.196 0.745 0.496 0.957l0.004 0.002 2.040 1.417c0.306 0.217 0.505 0.568 0.51 0.966v0.001c-0.008 0.64-0.529 1.155-1.17 1.155-0.003 0-0.006 0-0.009-0h-0.7c-0.646 0-1.17-0.524-1.17-1.17v0-0.611"/>
<path stroke-width="1" stroke-miterlimit="4" stroke-linecap="round" stroke-linejoin="miter" d="M21.143 17.107c0 2.618-2.122 4.74-4.74 4.74s-4.74-2.122-4.74-4.74c0-2.618 2.122-4.74 4.74-4.74s4.74 2.122 4.74 4.74z"/>
<path stroke-width="1" stroke-miterlimit="4" stroke-linecap="round" stroke-linejoin="miter" d="M17.693 15.975v-0.593c0-0.002 0-0.005 0-0.007 0-0.646-0.524-1.17-1.17-1.17-0.008 0-0.016 0-0.024 0l0.001-0h-0.5c0 0-0 0-0 0-0.646 0-1.17 0.524-1.17 1.17 0 0.002 0 0.005 0 0.007v-0 0.083c0.001 0.397 0.197 0.749 0.496 0.965l0.004 0.002 2.040 1.417c0.309 0.21 0.51 0.561 0.51 0.958 0 0.001 0 0.001 0 0.002v-0c-0.001 0.65-0.528 1.177-1.178 1.177h-0.7c0 0-0 0-0 0-0.646 0-1.17-0.524-1.17-1.17 0-0.002 0-0.005 0-0.007v0-0.614"/>
<path stroke-width="1" stroke-miterlimit="4" stroke-linecap="round" stroke-linejoin="miter" d="M10.021 18.037c-2.135-0.721-3.738-2.484-4.222-4.668l-0.008-0.042"/>
<path stroke-width="1" stroke-miterlimit="4" stroke-linecap="round" stroke-linejoin="miter" d="M13.815 5.91c2.132 0.654 3.764 2.337 4.332 4.455l0.010 0.045"/>
<path stroke-width="1" stroke-miterlimit="4" stroke-linecap="round" stroke-linejoin="miter" d="M14.362 7.147l-0.547-1.235 1.237-0.547"/>
<path stroke-width="1" stroke-miterlimit="4" stroke-linecap="round" stroke-linejoin="miter" d="M9.471 16.8l0.547 1.237-1.23 0.548"/>
</symbol>
<symbol id="icon-move-box" viewBox="0 0 24 24">
<path stroke-width="1" stroke-miterlimit="10" stroke-linecap="round" stroke-linejoin="miter" d="M13.079 19.144c0 0.964-0.782 1.746-1.746 1.746s-1.746-0.782-1.746-1.746c0-0.964 0.782-1.746 1.746-1.746s1.746 0.782 1.746 1.746z"/>
<path stroke-width="1" stroke-miterlimit="10" stroke-linecap="round" stroke-linejoin="miter" d="M10.678 17.525l-4.457-11.022c-0.496-1.205-1.393-2.161-2.522-2.72l-0.030-0.014-1.353-0.659"/>
<path stroke-width="1" stroke-miterlimit="10" stroke-linecap="round" stroke-linejoin="miter" d="M9.941 8.84l7.562-3.058c0.246-0.099 0.526 0.019 0.625 0.265l2.773 6.858c0.099 0.246-0.019 0.526-0.265 0.625l-7.562 3.058c-0.246 0.099-0.526-0.019-0.625-0.265l-2.773-6.858c-0.099-0.246 0.019-0.526 0.265-0.625z"/>
</symbol>
<symbol id="icon-mundo" viewBox="0 0 24 24">
<path stroke-width="1" stroke-miterlimit="4" stroke-linecap="round" stroke-linejoin="round" d="M21.717 12c0 5.367-4.35 9.717-9.717 9.717s-9.717-4.35-9.717-9.717c0-5.367 4.35-9.717 9.717-9.717s9.717 4.35 9.717 9.717z"/>
<path stroke-width="1" stroke-miterlimit="4" stroke-linecap="round" stroke-linejoin="round" d="M11.093 21.639c-1.861-2.596-2.976-5.837-2.976-9.338 0-0.106 0.001-0.212 0.003-0.318l-0 0.016c-0.002-0.090-0.003-0.195-0.003-0.301 0-3.501 1.115-6.742 3.009-9.386l-0.033 0.049"/>
<path stroke-width="1" stroke-miterlimit="4" stroke-linecap="round" stroke-linejoin="round" d="M12.833 21.641c1.861-2.596 2.976-5.837 2.976-9.338 0-0.106-0.001-0.212-0.003-0.318l0 0.016c0.002-0.090 0.003-0.196 0.003-0.302 0-3.501-1.115-6.742-3.009-9.386l0.033 0.049"/>
</symbol>
<symbol id="icon-office" viewBox="0 0 24 24">
<path stroke-width="1" stroke-miterlimit="4" stroke-linecap="round" stroke-linejoin="round" d="M5.805 19.712v-8.854c0-0.383 0.311-0.694 0.694-0.694h11.074c0.383 0 0.694 0.311 0.694 0.694v0 8.854"/>
<path stroke-width="1" stroke-miterlimit="4" stroke-linecap="round" stroke-linejoin="round" d="M20.772 7.829v11.879h-17.645v-11.839"/>
<path stroke-width="1" stroke-miterlimit="4" stroke-linecap="round" stroke-linejoin="round" d="M1.615 8.502l9.8-4.1c0.158-0.068 0.341-0.107 0.534-0.107s0.376 0.039 0.543 0.11l-0.009-0.003 9.9 4.1"/>
</symbol>
<symbol id="icon-phone-book" viewBox="0 0 24 24">
<path stroke-width="1" stroke-miterlimit="4" stroke-linecap="round" stroke-linejoin="round" d="M7 2h12c1.105 0 2 0.895 2 2v16c0 1.105-0.895 2-2 2h-12c-1.105 0-2-0.895-2-2v-16c0-1.105 0.895-2 2-2z"/>
<path stroke-width="1" stroke-miterlimit="4" stroke-linecap="round" stroke-linejoin="round" d="M8.725 15.122l1.313 1.313c0.199 0.199 0.474 0.321 0.777 0.321s0.578-0.123 0.777-0.321l0.748-0.748c0.199-0.199 0.321-0.474 0.321-0.777s-0.123-0.578-0.321-0.777l-0.493-0.493c0.777-1.281 1.821-2.326 3.060-3.082l0.040-0.023 0.016-0.010 0.493 0.493c0.199 0.199 0.474 0.321 0.777 0.321s0.578-0.123 0.777-0.321l0.733-0.733c0.199-0.199 0.321-0.474 0.321-0.777s-0.123-0.578-0.321-0.777l-1.314-1.313c-0.099-0.099-0.237-0.161-0.388-0.161-0.113 0-0.218 0.034-0.306 0.093l0.002-0.001c-2.827 1.896-5.185 4.254-7.023 6.99l-0.058 0.091c-0.057 0.085-0.092 0.191-0.092 0.304 0 0.152 0.061 0.289 0.161 0.388v0z"/>
</symbol>
<symbol id="icon-pin" viewBox="0 0 24 24">
<path stroke-width="1" stroke-miterlimit="4" stroke-linecap="round" stroke-linejoin="bevel" d="M12.755 1.918c-0.24 0-0.487-0.037-0.75-0.037-0.039-0.001-0.085-0.002-0.131-0.002-0.218 0-0.433 0.014-0.644 0.041l0.025-0.003c-4.819 0.473-7.444 5.948-5.142 10.215l5.142 9.538c0.145 0.271 0.426 0.452 0.75 0.452s0.605-0.181 0.748-0.448l0.002-0.005 5.13-9.533c2.306-4.272-0.319-9.747-5.13-10.22z"/>
<path stroke-width="1" stroke-miterlimit="4" stroke-linecap="round" stroke-linejoin="bevel" d="M12.008 6.178h-0.001c1.338 0 2.423 1.085 2.423 2.423v-0.001c0 1.338-1.085 2.423-2.423 2.423h0.001c-1.338 0-2.423-1.085-2.423-2.423v0.001c0-1.338 1.085-2.423 2.423-2.423z"/>
</symbol>
<symbol id="icon-refresh" viewBox="0 0 24 24">
<path stroke-width="1" stroke-miterlimit="4" stroke-linecap="round" stroke-linejoin="round" d="M17.378 14.998l3.083-1.4 1.44 3.083"/>
<path stroke-width="1" stroke-miterlimit="4" stroke-linecap="round" stroke-linejoin="round" d="M6.84 10.035l-2.79 1.957-1.95-2.797"/>
<path stroke-width="1" stroke-miterlimit="4" stroke-linecap="round" stroke-linejoin="round" d="M20.467 13.598c-0.661 3.951-4.054 6.925-8.143 6.925-3.404 0-6.326-2.061-7.587-5.003l-0.020-0.054"/>
<path stroke-width="1" stroke-miterlimit="4" stroke-linecap="round" stroke-linejoin="round" d="M4.043 11.993c-0.003-0.079-0.004-0.171-0.004-0.264 0-4.556 3.694-8.25 8.25-8.25 4.176 0 7.627 3.103 8.174 7.129l0.005 0.043"/>
</symbol>
<symbol id="icon-sun" viewBox="0 0 24 24">
<path stroke-width="1" stroke-miterlimit="4" stroke-linecap="round" stroke-linejoin="round" d="M16.5 12h5.25"/>
<path stroke-width="1" stroke-miterlimit="4" stroke-linecap="round" stroke-linejoin="round" d="M16.5 12c0 2.485-2.015 4.5-4.5 4.5s-4.5-2.015-4.5-4.5c0-2.485 2.015-4.5 4.5-4.5s4.5 2.015 4.5 4.5z"/>
<path stroke-width="1" stroke-miterlimit="4" stroke-linecap="round" stroke-linejoin="round" d="M9.75 11.25c0-0.828 0.672-1.5 1.5-1.5v0"/>
<path stroke-width="1" stroke-miterlimit="4" stroke-linecap="round" stroke-linejoin="round" d="M16.155 13.725l2.767 1.155"/>
<path stroke-width="1" stroke-miterlimit="4" stroke-linecap="round" stroke-linejoin="round" d="M7.5 12h-5.25"/>
<path stroke-width="1" stroke-miterlimit="4" stroke-linecap="round" stroke-linejoin="round" d="M7.845 10.275l-2.768-1.155"/>
<path stroke-width="1" stroke-miterlimit="4" stroke-linecap="round" stroke-linejoin="round" d="M16.14 10.231l2.76-1.177"/>
<path stroke-width="1" stroke-miterlimit="4" stroke-linecap="round" stroke-linejoin="round" d="M7.86 13.77l-2.76 1.178"/>
<path stroke-width="1" stroke-miterlimit="4" stroke-linecap="round" stroke-linejoin="round" d="M13.777 7.868l1.223-2.753"/>
<path stroke-width="1" stroke-miterlimit="4" stroke-linecap="round" stroke-linejoin="round" d="M10.222 16.132l-1.222 2.753"/>
<path stroke-width="1" stroke-miterlimit="4" stroke-linecap="round" stroke-linejoin="round" d="M10.274 7.845l-1.147-2.775"/>
<path stroke-width="1" stroke-miterlimit="4" stroke-linecap="round" stroke-linejoin="round" d="M13.725 16.155l1.147 2.775"/>
<path stroke-width="1" stroke-miterlimit="4" stroke-linecap="round" stroke-linejoin="round" d="M12 7.5v-5.25"/>
<path stroke-width="1" stroke-miterlimit="4" stroke-linecap="round" stroke-linejoin="round" d="M12 16.5v5.25"/>
<path stroke-width="1" stroke-miterlimit="4" stroke-linecap="round" stroke-linejoin="round" d="M8.821 8.821l-3.713-3.713"/>
<path stroke-width="1" stroke-miterlimit="4" stroke-linecap="round" stroke-linejoin="round" d="M15.18 15.18l3.75 3.75"/>
<path stroke-width="1" stroke-miterlimit="4" stroke-linecap="round" stroke-linejoin="round" d="M8.82 15.18l-3.713 3.75"/>
<path stroke-width="1" stroke-miterlimit="4" stroke-linecap="round" stroke-linejoin="round" d="M15.18 8.82l3.75-3.713"/>
</symbol>
<symbol id="icon-ups" viewBox="0 0 24 24">
<path d="M7.246 14.501c-0.279 0.193-1.751 0.7-1.751-1.021v-5.579h-1.756v5.511c0 4.023 4.308 2.745 5.258 2.095v-7.606h-1.751zM1.918 2.247v11.865c0 5.57 4.023 7.262 10.082 9.889 6.037-2.627 10.082-4.308 10.082-9.889v-11.865c-6.247-3.309-15.136-2.665-20.164 0zM21.153 14.112c0 4.652-2.858 6.1-9.153 8.879-6.311-2.782-9.158-4.227-9.158-8.879v-6.79c5.495-5.038 12.44-5.371 18.311-4.823zM9.894 8.343v11.43h1.756v-3.69c1.311 0.392 3.851-0.14 3.851-4.216 0.001-5.232-4.334-4.347-5.607-3.524zM11.65 14.643v-5.387c0.451-0.226 2.063-0.682 2.063 2.648 0.005 3.647-1.955 2.782-2.062 2.739zM15.899 10.001c0.005 2.541 2.772 2.283 2.8 3.781 0.032 1.262-1.633 1.235-2.729 0.263v1.617c1.944 1.155 4.4 0.435 4.469-1.8 0.091-2.766-2.906-2.5-2.868-3.932 0.032-1.090 1.644-1.1 2.605-0.118v-1.523c-1.526-1.181-4.287-0.494-4.277 1.712z"/>
</symbol>
<symbol id="icon-usuario-escudo" viewBox="0 0 24 24">
<path stroke-width="1" stroke-miterlimit="4" stroke-linecap="round" stroke-linejoin="round" d="M12.346 2.342l-0.346-0.2-0.346 0.2c-1.394 0.815-3.070 1.296-4.857 1.296-1.141 0-2.236-0.196-3.254-0.556l0.068 0.021v8.16c0 2.181 0.884 4.155 2.313 5.584l4.257 4.257c0.465 0.465 1.108 0.753 1.818 0.753 0 0 0 0 0.001 0h-0c0 0 0 0 0.001 0 0.71 0 1.353-0.288 1.818-0.753l4.257-4.257c1.429-1.429 2.313-3.403 2.313-5.584v-8.16c-0.949 0.339-2.045 0.535-3.186 0.535-1.788 0-3.463-0.481-4.904-1.321l0.046 0.025z"/>
<path stroke-width="1" stroke-miterlimit="4" stroke-linecap="round" stroke-linejoin="round" d="M12.261 4.722l-0.261-0.15-0.261 0.15c-1.051 0.614-2.313 0.976-3.66 0.976-0.86 0-1.685-0.148-2.452-0.419l0.051 0.016v6.149c0 0 0 0 0 0 0 1.643 0.666 3.131 1.743 4.208l3.208 3.208c0.351 0.351 0.835 0.568 1.371 0.568 0 0 0 0 0 0h-0c0 0 0 0 0 0 0.535 0 1.020-0.217 1.371-0.568l3.208-3.208c1.077-1.077 1.743-2.565 1.743-4.208 0 0 0 0 0 0v0-6.149c-0.716 0.256-1.541 0.403-2.401 0.403-1.347 0-2.609-0.362-3.695-0.995l0.035 0.019z"/>
<path stroke-width="1" stroke-miterlimit="4" stroke-linecap="round" stroke-linejoin="round" d="M14.050 10.403c0 1.132-0.918 2.050-2.050 2.050s-2.050-0.918-2.050-2.050c0-1.132 0.918-2.050 2.050-2.050s2.050 0.918 2.050 2.050z"/>
<path stroke-width="1" stroke-miterlimit="4" stroke-linecap="round" stroke-linejoin="round" d="M8.126 16.355c0.575-1.616 2.091-2.752 3.872-2.752 0.001 0 0.001 0 0.002 0h-0c0.001 0 0.001 0 0.002 0 1.781 0 3.298 1.136 3.863 2.723l0.009 0.029"/>
</symbol>
<symbol id="icon-warning" viewBox="0 0 24 24">
<path stroke-width="1" stroke-miterlimit="4" stroke-linecap="round" stroke-linejoin="round" d="M21.953 12c0 5.497-4.456 9.953-9.953 9.953s-9.953-4.456-9.953-9.953c0-5.497 4.456-9.953 9.953-9.953s9.953 4.456 9.953 9.953z"/>
<path stroke-width="1" stroke-miterlimit="4" stroke-linecap="round" stroke-linejoin="round" d="M4.957 19.045l14.078-14.080"/>
</symbol>
</svg>
