<svg aria-hidden="true" style="position: absolute; width: 0; height: 0; overflow: hidden;" version="1.1" xmlns="http://www.w3.org/2000/svg" xmlns:xlink="http://www.w3.org/1999/xlink">
<defs>
<symbol id="icon-lock" viewBox="0 0 32 32">
<path stroke-width="2" stroke-miterlimit="4" stroke-linecap="round" stroke-linejoin="round" d="M5.333 10.667h21.333c1.473 0 2.667 1.194 2.667 2.667v13.333c0 1.473-1.194 2.667-2.667 2.667h-21.333c-1.473 0-2.667-1.194-2.667-2.667v-13.333c0-1.473 1.194-2.667 2.667-2.667z"></path>
<path stroke-width="2" stroke-miterlimit="4" stroke-linecap="round" stroke-linejoin="round" d="M19.333 18c0 1.841-1.492 3.333-3.333 3.333s-3.333-1.492-3.333-3.333c0-1.841 1.492-3.333 3.333-3.333s3.333 1.492 3.333 3.333z"></path>
<path stroke-width="2" stroke-miterlimit="4" stroke-linecap="round" stroke-linejoin="round" d="M8.667 10.667v-5.333c0-1.473 1.194-2.667 2.667-2.667v0h8c1.473 0 2.667 1.194 2.667 2.667v0 5.333"></path>
</symbol>
<symbol id="icon-user" viewBox="0 0 32 32">
<path stroke-width="2" stroke-miterlimit="4" stroke-linecap="round" stroke-linejoin="round" d="M4 29.347l1.053-3.84c3.48-12.667 18.413-12.667 21.893 0l1.053 3.84"></path>
<path stroke-width="2" stroke-miterlimit="4" stroke-linecap="round" stroke-linejoin="bevel" d="M22.667 9.32c0 3.682-2.985 6.667-6.667 6.667s-6.667-2.985-6.667-6.667c0-3.682 2.985-6.667 6.667-6.667s6.667 2.985 6.667 6.667z"></path>
</symbol>
<symbol id="icon-search" viewBox="0 0 32 32">
<path stroke-width="2.5653" stroke-miterlimit="4" stroke-linecap="round" stroke-linejoin="miter" d="M18.506 1.283c6.612 0 11.972 5.36 11.972 11.972s-5.36 11.972-11.972 11.972c-6.612 0-11.972-5.36-11.972-11.972v0c0-6.612 5.36-11.972 11.972-11.972v0z"></path>
<path stroke-width="2.5653" stroke-miterlimit="4" stroke-linecap="round" stroke-linejoin="miter" d="M10.16 21.84l-8.346 8.346"></path>
</symbol>
<symbol id="icon-eye" viewBox="0 0 32 32">
<path stroke-width="2" stroke-miterlimit="4" stroke-linecap="round" stroke-linejoin="round" d="M29.333 16.148l-3.467 3.84c-2.448 2.686-5.961 4.365-9.867 4.365s-7.419-1.679-9.857-4.355l-0.010-0.011-3.467-3.84 3.093-3.707c2.463-2.939 6.135-4.794 10.24-4.794s7.777 1.855 10.223 4.773l0.017 0.021z"></path>
<path stroke-width="2" stroke-miterlimit="4" stroke-linecap="round" stroke-linejoin="bevel" d="M19.587 15.668c0 1.841-1.552 3.333-3.467 3.333s-3.467-1.492-3.467-3.333c0-1.841 1.552-3.333 3.467-3.333s3.467 1.492 3.467 3.333z"></path>
</symbol>
<symbol id="icon-logout" viewBox="0 0 32 32">
<path stroke-width="2" stroke-miterlimit="4" stroke-linecap="round" stroke-linejoin="round" d="M18.137 20v5.333c0 1.473-1.194 2.667-2.667 2.667v0h-8c-1.473 0-2.667-1.194-2.667-2.667v0-18.667c0-1.473 1.194-2.667 2.667-2.667v0h8c1.473 0 2.667 1.194 2.667 2.667v0 5.333"></path>
<path stroke-width="2" stroke-miterlimit="4" stroke-linecap="round" stroke-linejoin="bevel" d="M22.289 10.667l4.581 4.581c0.202 0.202 0.327 0.481 0.327 0.789s-0.125 0.587-0.327 0.789l-4.507 4.507"></path>
</symbol>
<symbol id="icon-settings" viewBox="0 0 32 32">
<path stroke-width="2" stroke-miterlimit="4" stroke-linecap="round" stroke-linejoin="bevel" d="M13.907 4.507l0.12-0.293c0.421-0.952 1.357-1.604 2.446-1.604 1.169 0 2.162 0.752 2.522 1.798l0.006 0.019 0.093 0.307c0.353 1.088 1.357 1.861 2.542 1.861 0.372 0 0.727-0.076 1.049-0.214l-0.017 0.007 0.28-0.12c0.292-0.12 0.631-0.189 0.986-0.189 1.473 0 2.667 1.194 2.667 2.667 0 0.433-0.103 0.843-0.287 1.204l0.007-0.015-0.147 0.28c-0.187 0.355-0.297 0.776-0.297 1.223 0 1.099 0.664 2.042 1.613 2.45l0.017 0.007 0.293 0.12c0.952 0.421 1.604 1.357 1.604 2.446 0 1.169-0.752 2.162-1.798 2.522l-0.019 0.006-0.307 0.093c-1.1 0.345-1.884 1.356-1.884 2.549 0 0.37 0.075 0.721 0.211 1.041l-0.007-0.017 0.12 0.28c0.12 0.292 0.189 0.631 0.189 0.986 0 1.473-1.194 2.667-2.667 2.667-0.433 0-0.843-0.103-1.204-0.287l0.015 0.007-0.28-0.147c-0.355-0.187-0.776-0.297-1.223-0.297-1.099 0-2.042 0.664-2.45 1.613l-0.007 0.017-0.12 0.293c-0.421 0.952-1.357 1.604-2.446 1.604-1.169 0-2.162-0.752-2.522-1.798l-0.006-0.019-0.093-0.307c-0.345-1.1-1.356-1.884-2.549-1.884-0.37 0-0.721 0.075-1.041 0.211l0.017-0.007-0.28 0.12c-0.292 0.12-0.631 0.189-0.986 0.189-1.473 0-2.667-1.194-2.667-2.667 0-0.433 0.103-0.843 0.287-1.204l-0.007 0.015 0.147-0.28c0.187-0.355 0.297-0.776 0.297-1.223 0-1.099-0.664-2.042-1.613-2.45l-0.017-0.007-0.293-0.12c-0.952-0.421-1.604-1.357-1.604-2.446 0-1.169 0.752-2.162 1.798-2.522l0.019-0.006 0.307-0.093c1.1-0.345 1.884-1.356 1.884-2.549 0-0.37-0.075-0.721-0.211-1.041l0.007 0.017-0.12-0.28c-0.112-0.283-0.176-0.611-0.176-0.953 0-1.473 1.194-2.667 2.667-2.667 0.428 0 0.833 0.101 1.192 0.28l-0.015-0.007 0.28 0.147c0.355 0.187 0.776 0.297 1.223 0.297 1.099 0 2.042-0.664 2.45-1.613l0.007-0.017z"></path>
<path stroke-width="2" stroke-miterlimit="4" stroke-linecap="round" stroke-linejoin="bevel" d="M21.213 15.987c0 2.879-2.334 5.213-5.213 5.213s-5.213-2.334-5.213-5.213c0-2.879 2.334-5.213 5.213-5.213s5.213 2.334 5.213 5.213z"></path>
</symbol>
<symbol id="icon-statics" viewBox="0 0 32 32">
<path stroke-width="2" stroke-miterlimit="4" stroke-linecap="round" stroke-linejoin="round" d="M2.667 2.667v24c0 1.473 1.194 2.667 2.667 2.667v0h24"></path>
<path stroke-width="2" stroke-miterlimit="4" stroke-linecap="round" stroke-linejoin="round" d="M10 16c1.105 0 2 0.895 2 2v4c0 1.105-0.895 2-2 2s-2-0.895-2-2v-4c0-1.105 0.895-2 2-2z"></path>
<path stroke-width="2" stroke-miterlimit="4" stroke-linecap="round" stroke-linejoin="round" d="M18 9.333c1.105 0 2 0.895 2 2v4c0 1.105-0.895 2-2 2s-2-0.895-2-2v-4c0-1.105 0.895-2 2-2z"></path>
<path stroke-width="2" stroke-miterlimit="4" stroke-linecap="round" stroke-linejoin="round" d="M26 4c1.105 0 2 0.895 2 2v4c0 1.105-0.895 2-2 2s-2-0.895-2-2v-4c0-1.105 0.895-2 2-2z"></path>
</symbol>
<symbol id="icon-ti" viewBox="0 0 32 32">
<path stroke-width="2" stroke-miterlimit="4" stroke-linecap="round" stroke-linejoin="round" d="M6.56 5.113h18.933c1.473 0 2.667 1.194 2.667 2.667v10.227c0 1.473-1.194 2.667-2.667 2.667h-18.933c-1.473 0-2.667-1.194-2.667-2.667v-10.227c0-1.473 1.194-2.667 2.667-2.667z"></path>
<path stroke-width="2" stroke-miterlimit="4" stroke-linecap="round" stroke-linejoin="round" d="M26.693 20.353l3.36 4.493c0.127 0.201 0.203 0.445 0.203 0.707 0 0.736-0.597 1.333-1.333 1.333-0.010 0-0.021-0-0.031-0l0.002 0h-25.787c-0.009 0-0.019 0-0.030 0-0.736 0-1.333-0.597-1.333-1.333 0-0.262 0.076-0.506 0.206-0.712l-0.003 0.005 3.413-4.493"></path>
</symbol>
<symbol id="icon-ups" viewBox="0 0 27 32">
<path fill="#fff" style="fill: var(--color1, #fff)" d="M7.104 19.337c-0.372 0.256-2.335 0.938-2.335-1.361v-7.448h-2.342v7.348c0 5.364 5.744 3.66 7.011 2.793v-10.141h-2.335zM0 2.995v15.821c0 7.424 5.364 9.681 13.44 13.184 8.050-3.502 13.44-5.743 13.44-13.184v-15.821c-8.324-4.412-20.177-3.552-26.88 0zM25.646 18.817c0 6.202-3.81 8.136-12.204 11.84-8.415-3.712-12.211-5.639-12.211-11.84v-9.053c7.327-6.72 16.586-7.162 24.414-6.431zM10.635 11.124v15.24h2.342v-4.924c1.747 0.523 5.135-0.186 5.135-5.622 0.001-6.973-5.779-5.792-7.476-4.695zM12.977 19.524v-7.183c0.602-0.301 2.752-0.909 2.752 3.531-0.001 4.865-2.609 3.713-2.751 3.652zM18.641 13.337c0.007 3.388 3.695 3.044 3.738 5.042 0.043 1.683-2.176 1.647-3.638 0.351v2.156c2.593 1.54 5.866 0.58 5.958-2.399 0.122-3.688-3.875-3.338-3.825-5.242 0.043-1.454 2.191-1.468 3.473-0.157v-2.034c-2.040-1.576-5.72-0.659-5.706 2.285z"></path>
</symbol>
<symbol id="icon-xcustomer" viewBox="0 0 32 32">
<path stroke-width="2" stroke-miterlimit="4" stroke-linecap="round" stroke-linejoin="round" d="M29.333 16c0 7.364-5.97 13.333-13.333 13.333s-13.333-5.97-13.333-13.333c0-7.364 5.97-13.333 13.333-13.333s13.333 5.97 13.333 13.333z"></path>
<path stroke-width="2" stroke-miterlimit="4" stroke-linecap="round" stroke-linejoin="round" d="M13.333 12.667c0 1.105-0.895 2-2 2s-2-0.895-2-2c0-1.105 0.895-2 2-2s2 0.895 2 2z"></path>
<path stroke-width="2" stroke-miterlimit="4" stroke-linecap="round" stroke-linejoin="round" d="M22.667 12.667c0 1.105-0.895 2-2 2s-2-0.895-2-2c0-1.105 0.895-2 2-2s2 0.895 2 2z"></path>
<path stroke-width="2" stroke-miterlimit="4" stroke-linecap="round" stroke-linejoin="round" d="M12 19.907c0.107 2.027 1.777 3.631 3.822 3.631 0.063 0 0.125-0.002 0.187-0.005l-0.009 0c0.053 0.003 0.116 0.004 0.178 0.004 2.045 0 3.715-1.603 3.821-3.621l0-0.009"></path>
</symbol>
<symbol id="icon-afimex" viewBox="0 0 112 32">
<path fill="#fff" style="fill: var(--color1, #fff)" d="M32.352 0.103c-1.858 0.297-3.476 1.159-4.712 2.402l-0 0c-1.476 1.525-2.464 3.53-2.707 5.76l-0.004 0.044-0.216 1.258h-3.955l-0.401 2.255c-0.224 1.244-0.401 2.287-0.401 2.321 0.435 0.045 0.94 0.071 1.451 0.071 0.186 0 0.37-0.003 0.554-0.010l-0.027 0.001h1.978l-0.046 0.247c-0.201 1.128-1.978 11.285-1.978 11.308s1.212 0.032 2.696 0.032h2.696l0.078-0.371c0.046-0.201 0.497-2.804 1.028-5.793l0.958-5.422h3.8c0.386-0.019 0.838-0.030 1.292-0.030 0.888 0 1.766 0.042 2.632 0.123l-0.111-0.008c0 0.085-3.359 17.064-3.452 17.427l-0.038 0.177h5.462l2.156-11.070c1.174-6.079 2.139-11.109 2.139-11.162-1.248-0.086-2.705-0.136-4.174-0.136-0.825 0-1.646 0.016-2.464 0.046l0.118-0.004h-6.511l0.177-1.020c0.066-0.773 0.298-1.48 0.661-2.101l-0.013 0.024c0.849-1.327 2.278-1.777 4.442-1.421 0.386 0.061 0.718 0.116 0.749 0.116 0.477-1.197 0.982-2.744 1.403-4.324l0.072-0.318c-0.711-0.205-1.556-0.368-2.423-0.457l-0.064-0.005c-0.374-0.041-0.809-0.064-1.248-0.064-0.564 0-1.119 0.038-1.662 0.113l0.063-0.007z"></path>
<path fill="#fff" style="fill: var(--color1, #fff)" d="M40.408 2.67c-1.028 0.381-1.747 1.353-1.747 2.494 0 0.401 0.089 0.782 0.248 1.122l-0.007-0.016c0.424 0.924 1.341 1.554 2.405 1.554 0.737 0 1.404-0.302 1.882-0.79l0-0c0.473-0.471 0.765-1.122 0.765-1.842 0-0.246-0.034-0.485-0.098-0.71l0.004 0.018c-0.191-0.777-0.718-1.403-1.413-1.724l-0.016-0.007c-0.344-0.139-0.743-0.219-1.16-0.219-0.308 0-0.605 0.044-0.887 0.125l0.022-0.006z"></path>
<path fill="#fff" style="fill: var(--color1, #fff)" d="M102.483 9.453c-1.978 2.356-3.623 4.303-3.648 4.311-0.369-0.57-0.755-1.25-1.104-1.952l-0.056-0.125-1.121-2.117h-6.225l0.497 0.942c0.27 0.526 1.229 2.356 2.124 4.071l1.638 3.121-0.186 0.201c-0.464 0.497-6.752 7.702-6.798 7.793 0.56 0.098 1.206 0.154 1.864 0.154 0.385 0 0.766-0.019 1.141-0.057l-0.047 0.004h3.013l1.947-2.278c1.066-1.252 1.97-2.278 2.001-2.278s0.595 1.028 1.235 2.278l1.174 2.278h6.017l-0.34-0.642c-0.973-1.801-3.916-7.392-3.916-7.432s2.371-2.819 5.276-6.203 5.306-6.203 5.329-6.256c-0.58-0.090-1.25-0.142-1.931-0.142-0.399 0-0.795 0.018-1.185 0.052l0.050-0.004h-3.129z"></path>
<path fill="#fff" style="fill: var(--color1, #fff)" d="M54.484 9.073c-1.108 0.13-2.109 0.498-2.98 1.052l0.029-0.017c-0.143 0.112-0.307 0.206-0.485 0.274l-0.013 0.004c-0.001-0.024-0.002-0.052-0.002-0.080 0-0.122 0.015-0.241 0.042-0.355l-0.002 0.010 0.070-0.395h-5.427l-1.406 8.049c-0.773 4.434-1.406 8.080-1.406 8.111s1.212 0.061 2.696 0.061h2.696l0.055-0.294c0.032-0.154 0.448-2.51 0.927-5.23l0.872-4.944 0.363-0.308c0.616-0.629 1.474-1.019 2.423-1.019 0.081 0 0.161 0.003 0.24 0.008l-0.011-0.001c1.133 0.040 2.037 0.968 2.037 2.108 0 0.104-0.008 0.206-0.022 0.306l0.001-0.011c0 0.433-1.189 7.647-1.514 9.176l-0.046 0.209h5.422l0.038-0.177c0.099-0.433 1.668-9.408 1.715-9.809s0.070-0.471 0.479-0.829c0.293-0.249 0.623-0.472 0.975-0.657l0.030-0.014c0.307-0.188 0.679-0.299 1.076-0.299 0.083 0 0.166 0.005 0.247 0.014l-0.010-0.001c0.068-0.007 0.147-0.011 0.226-0.011 0.326 0 0.636 0.070 0.916 0.195l-0.014-0.006c0.476 0.204 0.847 0.575 1.046 1.038l0.005 0.013c0.332 0.718 0.255 1.375-0.602 6.226l-0.764 4.288 2.703 0.023c1.484 0 2.711 0 2.728-0.015s0.418-2.232 0.889-4.921c0.452-1.783 0.759-3.858 0.855-5.988l0.002-0.068c0.007-0.109 0.012-0.237 0.012-0.365 0-0.502-0.065-0.988-0.186-1.452l0.009 0.040c-0.34-1.522-1.353-2.754-2.704-3.387l-0.030-0.013c-0.699-0.343-1.521-0.544-2.391-0.544-0.116 0-0.23 0.004-0.344 0.011l0.016-0.001c-0.059-0.001-0.129-0.002-0.199-0.002-1.931 0-3.718 0.617-5.173 1.665l0.026-0.018-0.718 0.471-0.595-0.61c-0.627-0.65-1.437-1.118-2.348-1.321l-0.031-0.006c-0.581-0.127-1.248-0.199-1.931-0.199-0.179 0-0.357 0.005-0.534 0.015l0.025-0.001z"></path>
<path fill="#fff" style="fill: var(--color1, #fff)" d="M8.828 9.219c-0.061 0.015-0.378 0.070-0.695 0.116-0.511 0.102-0.939 0.217-1.356 0.355l0.081-0.023c-3.421 1.172-5.98 4.022-6.717 7.543l-0.012 0.066c-0.084 0.532-0.133 1.146-0.133 1.772 0 0.528 0.034 1.047 0.101 1.557l-0.006-0.060c0.244 1.393 0.852 2.614 1.721 3.599l-0.007-0.008c0.8 0.868 1.845 1.499 3.025 1.784l0.041 0.008c0.581 0.132 1.249 0.208 1.934 0.208 0.559 0 1.106-0.050 1.637-0.147l-0.055 0.008c0.937-0.2 1.763-0.485 2.54-0.858l-0.067 0.029c0.488-0.255 0.497-0.239 0.371 0.332l-0.070 0.294h5.46l0.046-0.209c0.023-0.124 0.663-3.693 1.398-7.941s1.368-7.801 1.391-7.903l0.038-0.166h-5.465l-0.046 0.348c-0.004 0.139-0.026 0.272-0.064 0.397l0.003-0.011c-0.301-0.101-0.556-0.213-0.8-0.345l0.027 0.013c-0.925-0.473-2.017-0.749-3.174-0.749-0.009 0-0.017 0-0.026 0h0.001c-0.197-0.013-0.426-0.020-0.658-0.020-0.163 0-0.326 0.004-0.488 0.011l0.023-0.001zM11.23 13.784c0.673 0.209 1.24 0.597 1.663 1.107l0.005 0.006 0.177 0.216-0.424 2.426c-0.232 1.326-0.441 2.487-0.464 2.572-0.14 0.205-0.312 0.377-0.511 0.513l-0.007 0.004c-0.83 0.654-1.891 1.050-3.044 1.050-0.289 0-0.572-0.025-0.847-0.072l0.029 0.004c-1.426-0.361-2.465-1.633-2.465-3.147 0-0.177 0.014-0.35 0.041-0.519l-0.002 0.019c0.205-2.142 1.776-3.865 3.823-4.297l0.032-0.006c0.197-0.025 0.425-0.040 0.656-0.040 0.476 0 0.938 0.061 1.378 0.176l-0.038-0.008z"></path>
<path fill="#fff" style="fill: var(--color1, #fff)" d="M81.18 9.267c-1.813 0.264-3.429 0.949-4.797 1.953l0.030-0.021c-0.876 0.702-1.634 1.498-2.277 2.382l-0.024 0.035c-1.086 1.554-1.735 3.482-1.735 5.562 0 0.667 0.067 1.318 0.194 1.947l-0.011-0.063c0.803 3.329 3.739 5.245 7.801 5.082 2.090-0.032 4.014-0.711 5.591-1.844l-0.029 0.020c0.779-0.609 1.447-1.309 2.004-2.093l0.021-0.031c0.29-0.412 0.544-0.883 0.74-1.384l0.016-0.046c-0.551-0.063-1.19-0.099-1.838-0.099-0.299 0-0.596 0.008-0.891 0.023l0.041-0.002h-2.688l-0.262 0.27c-0.57 0.55-1.347 0.889-2.203 0.889-0.136 0-0.269-0.009-0.4-0.025l0.016 0.002c-0.017 0-0.037 0.001-0.056 0.001-0.746 0-1.425-0.285-1.936-0.752l0.002 0.002c-0.424-0.401-0.729-0.922-0.862-1.509l-0.004-0.020-0.053-0.247h11.494l0.209-0.872c0.222-0.765 0.35-1.644 0.35-2.553 0-0.152-0.004-0.303-0.011-0.453l0.001 0.021c-0-2.942-2.075-5.398-4.841-5.987l-0.040-0.007c-0.714-0.153-1.534-0.241-2.375-0.241-0.414 0-0.823 0.021-1.226 0.063l0.051-0.004zM82.601 13.353c1.167 0.069 2.087 1.033 2.087 2.212 0 0.029-0.001 0.058-0.002 0.087l0-0.004v0.41h-6.651l0.255-0.479c0.392-0.668 0.899-1.227 1.499-1.666l0.015-0.011c0.603-0.377 1.335-0.601 2.12-0.601 0.239 0 0.472 0.021 0.7 0.060l-0.024-0.004z"></path>
<path fill="#fff" style="fill: var(--color1, #fff)" d="M107.405 23.636c-0.379 0.189-0.636 0.575-0.636 1.020 0 0.626 0.507 1.134 1.133 1.136h0c0.010 0 0.022 0.001 0.035 0.001 0.617 0 1.118-0.5 1.118-1.118 0-0.020-0.001-0.040-0.002-0.060l0 0.003c0-0.005 0-0.012 0-0.018 0-0.611-0.495-1.106-1.106-1.106-0.199 0-0.386 0.053-0.548 0.145l0.005-0.003zM108.602 23.968c0.166 0.128 0.271 0.327 0.271 0.55 0 0.040-0.003 0.079-0.010 0.117l0.001-0.004c0.004 0.028 0.006 0.061 0.006 0.094 0 0.23-0.101 0.436-0.26 0.577l-0.001 0.001c-0.177 0.196-0.431 0.318-0.715 0.318-0.531 0-0.962-0.431-0.962-0.962 0-0.002 0-0.003 0-0.005v0c0.002-0.523 0.426-0.946 0.948-0.946 0.030 0 0.060 0.001 0.090 0.004l-0.004-0c0.029-0.004 0.062-0.007 0.096-0.007 0.218 0 0.413 0.102 0.538 0.261l0.001 0.001z"></path>
<path fill="#fff" style="fill: var(--color1, #fff)" d="M107.474 24.676c0 0.386 0.031 0.663 0.078 0.663s0.078-0.124 0.078-0.27c0-0.363 0.209-0.363 0.448 0 0.093 0.148 0.224 0.27 0.293 0.27 0.101 0 0.093-0.038-0.046-0.232l-0.166-0.224 0.166-0.232c0.166-0.224 0.166-0.239 0.038-0.424s-0.186-0.201-0.509-0.201h-0.38zM108.209 24.406c0 0.166-0.038 0.192-0.285 0.216-0.279 0.023-0.293 0.015-0.293-0.216s0.015-0.239 0.293-0.216c0.245 0.015 0.284 0.038 0.284 0.209z"></path>
<path fill="#fff" style="fill: var(--color1, #fff)" d="M53.726 27.682l-0.247 0.348h0.332c0.294 0 0.355-0.038 0.572-0.302 0.092-0.102 0.174-0.216 0.242-0.339l0.005-0.010c0-0.023-0.146-0.046-0.332-0.046-0.302 0-0.348 0.032-0.572 0.348z"></path>
<path fill="#fff" style="fill: var(--color1, #fff)" d="M105.513 27.642c-0.071 0.1-0.138 0.214-0.195 0.334l-0.006 0.014c0 0.023 0.131 0.038 0.302 0.038 0.264 0 0.332-0.046 0.579-0.348l0.285-0.348h-0.378c-0.356 0.002-0.395 0.017-0.587 0.31z"></path>
<path fill="#fff" style="fill: var(--color1, #fff)" d="M46.296 28.331c-0.783 0.233-1.351 0.928-1.391 1.761l-0 0.004c0.023 0.21 0.086 0.401 0.181 0.571l-0.004-0.008c0.282 0.416 0.753 0.687 1.287 0.687 0.483 0 0.914-0.221 1.198-0.568l0.002-0.003c0.173-0.173 0.314-0.378 0.413-0.606l0.005-0.013c0.044-0.152 0.069-0.326 0.069-0.506 0-0.302-0.071-0.588-0.197-0.841l0.005 0.011c-0.285-0.333-0.705-0.542-1.174-0.542-0.14 0-0.276 0.019-0.405 0.054l0.011-0.003zM47.008 29.042c0.114 0.083 0.202 0.196 0.254 0.327l0.002 0.005c0.032 0.091 0.050 0.197 0.050 0.306 0 0.501-0.386 0.912-0.876 0.952l-0.003 0c-0.302 0.038-0.378 0.015-0.549-0.154-0.648-0.64 0.317-1.86 1.121-1.436z"></path>
<path fill="#fff" style="fill: var(--color1, #fff)" d="M50.311 28.331c-0.802 0.236-1.379 0.961-1.389 1.823v0.001c0 0.002-0 0.005-0 0.007 0 0.436 0.249 0.815 0.612 1.001l0.006 0.003c0.192 0.109 0.423 0.174 0.668 0.174s0.476-0.064 0.675-0.177l-0.007 0.004c0.332-0.166 0.363-0.166 0.363-0.038s0.055 0.148 0.262 0.148h0.255l0.131-0.688c0.186-1.020 0.239-0.935-0.642-0.935-0.726 0-0.764 0-0.811 0.166-0.085 0.332-0.061 0.371 0.332 0.371 0.217 0 0.386 0.038 0.386 0.078 0 0.139-0.497 0.386-0.781 0.386-0.021 0.003-0.045 0.004-0.070 0.004-0.342 0-0.618-0.277-0.618-0.618 0-0.004 0-0.007 0-0.011v0.001c-0.002-0.024-0.003-0.052-0.003-0.080 0-0.549 0.445-0.995 0.995-0.995 0.010 0 0.020 0 0.030 0l-0.001-0c0.34 0 0.395 0.023 0.511 0.232s0.166 0.232 0.479 0.216 0.348-0.038 0.332-0.216c-0.072-0.297-0.246-0.545-0.484-0.709l-0.004-0.003c-0.242-0.117-0.527-0.186-0.827-0.186-0.142 0-0.28 0.015-0.413 0.044l0.013-0.002z"></path>
<path fill="#fff" style="fill: var(--color1, #fff)" d="M55.772 28.377c-0.703 0.247-1.011 0.982-0.61 1.444 0.108 0.131 0.302 0.209 0.927 0.371 0.224 0.055 0.332 0.124 0.332 0.216 0 0.371-0.579 0.448-0.895 0.131-0.255-0.255-0.803-0.279-0.803-0.038 0 0.735 1.113 1.089 1.978 0.642 0.327-0.162 0.548-0.493 0.548-0.875 0-0.042-0.003-0.084-0.008-0.124l0.001 0.005c-0.061-0.332-0.27-0.471-0.872-0.633-0.526-0.131-0.595-0.186-0.526-0.401 0.093-0.302 0.758-0.308 0.851 0 0.038 0.124 0.116 0.154 0.393 0.154 0.332 0 0.34 0 0.34-0.224-0.010-0.612-0.852-0.952-1.655-0.667z"></path>
<path fill="#fff" style="fill: var(--color1, #fff)" d="M64.604 28.332c-0.79 0.209-1.367 0.907-1.391 1.743l-0 0.003c-0.001 0.021-0.002 0.045-0.002 0.070 0 0.662 0.537 1.199 1.199 1.199 0.071 0 0.141-0.006 0.208-0.018l-0.007 0.001c0.693-0.028 1.277-0.462 1.525-1.070l0.004-0.012c0.078-0.209 0.078-0.209-0.255-0.209-0.293 0-0.378 0.046-0.648 0.308-0.132 0.19-0.349 0.313-0.595 0.313-0.153 0-0.295-0.048-0.412-0.129l0.002 0.002c-0.579-0.401-0.194-1.453 0.572-1.552 0.347-0.046 0.726 0.192 0.726 0.448 0 0.124 0.055 0.148 0.386 0.148 0.371 0 0.386 0 0.386-0.216-0.035-0.371-0.233-0.689-0.521-0.886l-0.004-0.003c-0.236-0.111-0.513-0.176-0.805-0.176-0.13 0-0.257 0.013-0.379 0.037l0.012-0.002z"></path>
<path fill="#fff" style="fill: var(--color1, #fff)" d="M85.383 28.331c-0.783 0.233-1.351 0.928-1.391 1.761l-0 0.004c0.048 0.698 0.626 1.246 1.332 1.246 0.029 0 0.058-0.001 0.086-0.003l-0.004 0c0.355-0.015 0.386 0 0.663 0.332l0.293 0.332 0.239-0.186c0.293-0.239 0.302-0.285 0.046-0.549l-0.209-0.216 0.279-0.332c0.15-0.17 0.275-0.367 0.366-0.581l0.005-0.014c0.040-0.145 0.063-0.311 0.063-0.483 0-0.303-0.072-0.588-0.199-0.841l0.005 0.011c-0.284-0.33-0.703-0.537-1.169-0.537-0.144 0-0.284 0.020-0.417 0.057l0.011-0.003zM86.194 29.15c0.127 0.146 0.204 0.338 0.204 0.548 0 0.241-0.102 0.459-0.265 0.612l-0 0c-0.141 0.188-0.361 0.31-0.609 0.317l-0.001 0c-0.308 0.038-0.386 0.015-0.555-0.154-0.121-0.154-0.194-0.35-0.194-0.563 0-0.346 0.192-0.646 0.474-0.802l0.005-0.002c0.122-0.095 0.276-0.152 0.445-0.152 0.192 0 0.367 0.075 0.498 0.197l-0-0z"></path>
<path fill="#fff" style="fill: var(--color1, #fff)" d="M42.395 28.432c-0.015 0.055-0.124 0.618-0.232 1.259s-0.216 1.259-0.239 1.375l-0.046 0.216 2.217-0.046 0.046-0.294 0.046-0.285h-0.726c-0.051 0.004-0.11 0.006-0.169 0.006-0.195 0-0.384-0.025-0.565-0.071l0.016 0.003c0-0.032 0.085-0.549 0.192-1.142s0.194-1.081 0.194-1.098c-0.071-0.014-0.153-0.022-0.236-0.022-0.18 0-0.351 0.037-0.507 0.103l0.008-0.003z"></path>
<path fill="#fff" style="fill: var(--color1, #fff)" d="M53.363 28.432c-0.015 0.055-0.124 0.618-0.232 1.259s-0.216 1.259-0.239 1.375c-0.046 0.216-0.046 0.216 0.332 0.192l0.371-0.023 0.217-1.197c0.116-0.663 0.232-1.313 0.255-1.453l0.046-0.247h-0.355c-0.225 0.002-0.373 0.040-0.396 0.095z"></path>
<path fill="#fff" style="fill: var(--color1, #fff)" d="M58.268 28.525c-0.002 0.111-0.019 0.216-0.049 0.317l0.002-0.008c-0.038 0.108 0.023 0.124 0.424 0.124 0.332 0 0.471 0.032 0.471 0.093s-0.085 0.572-0.194 1.142-0.192 1.051-0.192 1.058c0.082 0.017 0.175 0.027 0.271 0.027 0.035 0 0.070-0.001 0.105-0.004l-0.005 0h0.371l0.192-1.142 0.186-1.136 0.479-0.023c0.41-0.023 0.479-0.046 0.517-0.192 0.123-0.456 0.166-0.441-1.267-0.441h-1.313z"></path>
<path fill="#fff" style="fill: var(--color1, #fff)" d="M61.559 29.591c-0.116 0.695-0.232 1.351-0.255 1.467-0.038 0.209-0.032 0.216 0.308 0.216 0.418 0 0.363 0.116 0.633-1.429 0.108-0.642 0.216-1.235 0.232-1.336 0.038-0.154 0.015-0.166-0.332-0.166h-0.371z"></path>
<path fill="#fff" style="fill: var(--color1, #fff)" d="M68.2 28.508c-0.061 0.101-0.464 0.758-0.889 1.467l-0.773 1.298h0.401c0.363 0 0.418-0.023 0.532-0.232s0.146-0.232 0.758-0.232h0.625l0.046 0.232c0.038 0.216 0.061 0.232 0.418 0.232 0.216 0 0.378-0.038 0.378-0.085s-0.124-0.572-0.279-1.174c-0.464-1.885-0.371-1.676-0.764-1.676-0.267-0.002-0.366 0.038-0.454 0.169zM68.656 29.859l0.053 0.332h-0.355c-0.027 0.003-0.059 0.005-0.091 0.005-0.094 0-0.185-0.016-0.27-0.045l0.006 0.002c0.079-0.187 0.162-0.344 0.256-0.494l-0.008 0.015c0.272-0.471 0.295-0.454 0.411 0.186z"></path>
<path fill="#fff" style="fill: var(--color1, #fff)" d="M77.781 28.506c-0.023 0.101-0.131 0.688-0.239 1.305s-0.209 1.197-0.232 1.29c-0.038 0.166-0.015 0.177 0.34 0.177h0.378l0.055-0.386 0.053-0.386h0.473c1.035 0 1.721-0.849 1.351-1.658-0.166-0.371-0.418-0.464-1.313-0.497-0.819-0.027-0.826-0.027-0.866 0.156zM79.202 29.117c0.201 0.201 0.194 0.355-0.038 0.579-0.117 0.122-0.281 0.197-0.463 0.197-0.027 0-0.054-0.002-0.081-0.005l0.003 0h-0.363l0.055-0.332c0.093-0.579 0.101-0.595 0.433-0.595 0.014-0.001 0.031-0.002 0.047-0.002 0.157 0 0.3 0.058 0.409 0.153l-0.001-0.001z"></path>
<path fill="#fff" style="fill: var(--color1, #fff)" d="M81.719 28.508c-0.061 0.101-0.464 0.758-0.889 1.467l-0.773 1.298h0.401c0.363 0 0.416-0.023 0.532-0.232s0.146-0.232 0.758-0.232h0.625l0.046 0.232c0.038 0.216 0.061 0.232 0.418 0.232 0.216 0 0.378-0.038 0.378-0.085s-0.123-0.572-0.277-1.174c-0.464-1.885-0.371-1.676-0.764-1.676-0.269-0.002-0.368 0.038-0.456 0.169zM82.175 29.859l0.055 0.332h-0.355c-0.027 0.003-0.059 0.005-0.091 0.005-0.094 0-0.185-0.016-0.27-0.045l0.006 0.002c0.079-0.187 0.162-0.344 0.256-0.494l-0.009 0.015c0.272-0.471 0.293-0.454 0.41 0.186z"></path>
<path fill="#fff" style="fill: var(--color1, #fff)" d="M88.286 28.47c-0.148 0.584-0.24 1.258-0.255 1.951l-0 0.010c0.085 0.663 0.532 0.965 1.313 0.895 0.528-0.014 0.981-0.321 1.202-0.765l0.004-0.008c0.211-0.61 0.376-1.326 0.466-2.065l0.005-0.051c0-0.070-0.116-0.101-0.348-0.101-0.386 0-0.332-0.093-0.541 1.035-0.186 1.020-0.363 1.282-0.866 1.282s-0.579-0.262-0.401-1.313 0.201-1.005-0.194-1.005c-0.26 0.003-0.355 0.041-0.385 0.134z"></path>
<path fill="#fff" style="fill: var(--color1, #fff)" d="M91.982 28.505c-0.023 0.101-0.124 0.68-0.232 1.298s-0.207 1.197-0.232 1.29l-0.038 0.177h1.113c1.089 0 1.113 0 1.161-0.177 0.114-0.433 0.108-0.441-0.696-0.441-0.733 0-0.741 0-0.695-0.177 0.022-0.078 0.038-0.17 0.046-0.265l0-0.006c0-0.070 0.186-0.093 0.663-0.093 0.648 0 0.663 0 0.703-0.216 0.021-0.12 0.048-0.223 0.082-0.324l-0.005 0.015c0.015-0.070-0.139-0.093-0.627-0.093-0.633 0-0.663 0-0.663-0.177 0-0.317 0.093-0.355 0.849-0.378l0.735-0.023 0.046-0.294 0.046-0.285h-1.096c-1.094 0.002-1.118 0.002-1.161 0.167z"></path>
<path fill="#fff" style="fill: var(--color1, #fff)" d="M94.929 28.578c-0.023 0.131-0.046 0.27-0.046 0.308s0.184 0.070 0.41 0.070c0.031-0.002 0.066-0.003 0.102-0.003 0.126 0 0.248 0.015 0.364 0.044l-0.010-0.002c-0.017 0.388-0.067 0.753-0.147 1.108l0.008-0.042c-0.101 0.564-0.186 1.066-0.186 1.113s0.116 0.101 0.34 0.101h0.332l0.078-0.371c0.038-0.201 0.139-0.718 0.209-1.161l0.139-0.788h0.497c0.41 0 0.486-0.023 0.486-0.139 0.007-0.113 0.024-0.219 0.049-0.321l-0.003 0.012 0.046-0.166h-2.618z"></path>
<path fill="#fff" style="fill: var(--color1, #fff)" d="M98.398 28.432c-0.017 0.055-0.123 0.618-0.232 1.259s-0.217 1.252-0.239 1.368l-0.046 0.216h2.24l0.046-0.239c0.023-0.131 0.046-0.27 0.046-0.308-0.166-0.049-0.356-0.078-0.553-0.078-0.063 0-0.126 0.003-0.188 0.009l0.008-0.001c-0.773 0-0.779 0-0.688-0.371 0.046-0.166 0.093-0.166 0.688-0.166s0.64 0 0.686-0.177c0.116-0.424 0.093-0.441-0.602-0.441h-0.642l0.046-0.255 0.053-0.247 0.741-0.023c0.688-0.023 0.741-0.032 0.788-0.192 0.116-0.448 0.139-0.441-1.036-0.441-0.806-0.003-1.094 0.020-1.118 0.090z"></path>
<path fill="#fff" style="fill: var(--color1, #fff)" d="M101.419 29.591c-0.116 0.695-0.232 1.351-0.255 1.467-0.040 0.209-0.031 0.216 0.308 0.216 0.378 0 0.386 0 0.487-0.564 0.046-0.262 0.070-0.285 0.293-0.285s0.27 0.046 0.471 0.424l0.232 0.424h0.41c0.027 0.003 0.059 0.004 0.091 0.004 0.111 0 0.218-0.019 0.317-0.053l-0.007 0.002c-0.073-0.178-0.153-0.331-0.246-0.474l0.007 0.011-0.232-0.418 0.27-0.255c0.257-0.188 0.423-0.489 0.423-0.828 0-0.165-0.039-0.321-0.109-0.459l0.003 0.006c-0.166-0.332-0.602-0.471-1.492-0.471h-0.756zM103.077 29.035c0.089 0.073 0.146 0.183 0.146 0.306 0 0.078-0.023 0.151-0.062 0.213l0.001-0.002c-0.19 0.16-0.437 0.257-0.707 0.257-0.020 0-0.040-0.001-0.060-0.002l0.003 0h-0.27l0.055-0.371c0.019-0.158 0.051-0.302 0.097-0.44l-0.004 0.015c0.111-0.036 0.239-0.056 0.371-0.056 0.156 0 0.305 0.029 0.443 0.081l-0.009-0.003z"></path>
<path fill="#fff" style="fill: var(--color1, #fff)" d="M105.118 28.432c-0.015 0.055-0.116 0.618-0.224 1.259s-0.224 1.252-0.247 1.368c-0.038 0.209-0.038 0.216 0.332 0.216h0.371l0.216-1.259c0.123-0.688 0.24-1.345 0.262-1.467 0.038-0.201 0.030-0.209-0.317-0.209-0.224 0-0.371 0.038-0.393 0.093z"></path>
<path fill="#fff" style="fill: var(--color1, #fff)" d="M107.096 29.76c-0.471 0.781-0.857 1.444-0.857 1.467 0.088 0.032 0.189 0.051 0.295 0.051 0.032 0 0.064-0.002 0.096-0.005l-0.004 0c0.348 0 0.395-0.023 0.497-0.232l0.124-0.239 0.633 0.023c0.625 0.023 0.633 0.023 0.663 0.232s0.046 0.216 0.41 0.216c0.308 0 0.378-0.023 0.378-0.139 0-0.070-0.154-0.726-0.332-1.444l-0.332-1.313-0.711-0.046zM108.285 29.821l0.055 0.371h-0.363c-0.201 0-0.347-0.023-0.332-0.061s0.124-0.239 0.247-0.464c0.255-0.456 0.308-0.433 0.393 0.156z"></path>
<path fill="#fff" style="fill: var(--color1, #fff)" d="M73.541 28.934c-0.035 0.054-0.056 0.121-0.056 0.192 0 0.011 0.001 0.022 0.001 0.033l-0-0.001c0 0.355-0.078 0.418-0.471 0.418-0.332 0-0.378 0.023-0.378 0.148-0.003 0.098-0.020 0.19-0.048 0.277l0.002-0.007c-0.038 0.093 0.031 0.116 0.332 0.139 0.401 0.023 0.41 0.038 0.285 0.587-0.031 0.166-0.015 0.177 0.255 0.154s0.293-0.038 0.363-0.395l0.061-0.363h0.37c0.317 0 0.378-0.023 0.418-0.177 0.085-0.332 0.061-0.363-0.308-0.363h-0.363l0.046-0.348 0.053-0.348h-0.262c-0.015-0.001-0.032-0.002-0.050-0.002-0.091 0-0.177 0.021-0.254 0.058l0.003-0.002z"></path>
</symbol>
<symbol id="icon-bell" viewBox="0 0 32 32">
<path stroke-width="2" stroke-miterlimit="4" stroke-linecap="round" stroke-linejoin="round" d="M25.333 24h-18.667l2.956-14.772c0.616-3.002 3.237-5.228 6.377-5.228h0c3.14 0 5.761 2.226 6.37 5.186l0.007 0.042z"></path>
<path stroke-width="2" stroke-miterlimit="4" stroke-linecap="round" stroke-linejoin="round" d="M20 24c0 2.209-1.791 4-4 4s-4-1.791-4-4v0"></path>
</symbol>
<symbol id="icon-bill" viewBox="0 0 32 32">
<path stroke-width="2" stroke-miterlimit="4" stroke-linecap="round" stroke-linejoin="round" d="M5.333 8.213h21.333c1.473 0 2.667 1.194 2.667 2.667v10.227c0 1.473-1.194 2.667-2.667 2.667h-21.333c-1.473 0-2.667-1.194-2.667-2.667v-10.227c0-1.473 1.194-2.667 2.667-2.667z"></path>
<path stroke-width="2" stroke-miterlimit="4" stroke-linecap="round" stroke-linejoin="round" d="M8 8.213c0 2.947-2.387 5.987-5.333 5.987v0"></path>
<path stroke-width="2" stroke-miterlimit="4" stroke-linecap="round" stroke-linejoin="round" d="M2.667 17.693v0c2.947 0 5.333 3.147 5.333 6.093"></path>
<path stroke-width="2" stroke-miterlimit="4" stroke-linecap="round" stroke-linejoin="round" d="M24 23.787c0-2.947 2.387-6.093 5.333-6.093v0"></path>
<path stroke-width="2" stroke-miterlimit="4" stroke-linecap="round" stroke-linejoin="round" d="M29.333 14.2v0c-2.947 0-5.333-3.040-5.333-5.987v0.653"></path>
<path stroke-width="2" stroke-miterlimit="4" stroke-linecap="round" stroke-linejoin="round" d="M18.667 16c0 1.473-1.194 2.667-2.667 2.667s-2.667-1.194-2.667-2.667c0-1.473 1.194-2.667 2.667-2.667s2.667 1.194 2.667 2.667z"></path>
</symbol>
<symbol id="icon-chevron" viewBox="0 0 32 32">
<path stroke-width="2" stroke-miterlimit="4" stroke-linecap="round" stroke-linejoin="bevel" d="M13.067 22.347l5.48-5.48c0.24-0.241 0.388-0.573 0.388-0.94s-0.148-0.699-0.388-0.94l-5.333-5.333"></path>
</symbol>
<symbol id="icon-commercial" viewBox="0 0 32 32">
<path stroke-width="2" stroke-miterlimit="4" stroke-linecap="round" stroke-linejoin="round" d="M16 27.653l0.587-2.133c1.933-7.040 10.227-7.040 12.16 0l0.587 2.133"></path>
<path stroke-width="2" stroke-miterlimit="4" stroke-linecap="round" stroke-linejoin="bevel" d="M26.373 16.52c0 2.047-1.66 3.707-3.707 3.707s-3.707-1.66-3.707-3.707c0-2.047 1.66-3.707 3.707-3.707s3.707 1.66 3.707 3.707z"></path>
<path stroke-width="2" stroke-miterlimit="4" stroke-linecap="round" stroke-linejoin="round" d="M10.667 25.947h-5.333c-1.473 0-2.667-1.194-2.667-2.667v0-14.667h24c1.473 0 2.667 1.194 2.667 2.667v0"></path>
<path stroke-width="2" stroke-miterlimit="4" stroke-linecap="round" stroke-linejoin="round" d="M2.667 13.68v-8c0-0.002 0-0.003 0-0.005 0-0.694 0.53-1.264 1.208-1.328l0.005-0h11.813c0.338 0.007 0.641 0.154 0.853 0.386l0.001 0.001 2.12 3.88"></path>
</symbol>
<symbol id="icon-improvement" viewBox="0 0 32 32">
<path stroke-width="2" stroke-miterlimit="4" stroke-linecap="round" stroke-linejoin="round" d="M2.667 2.667v24c0 1.473 1.194 2.667 2.667 2.667v0h24"></path>
<path stroke-width="2" stroke-miterlimit="4" stroke-linecap="round" stroke-linejoin="round" d="M20 5.153v9.247c0 5.302-4.298 9.6-9.6 9.6v0h-2.4"></path>
</symbol>
<symbol id="icon-ops" viewBox="0 0 32 32">
<path stroke-width="2" stroke-miterlimit="4" stroke-linecap="round" stroke-linejoin="round" d="M6.333 23.633h-1.053c-1.473 0-2.667-1.194-2.667-2.667v0-12.68c0-1.473 1.194-2.667 2.667-2.667v0h13.040c1.473 0 2.667 1.194 2.667 2.667v0 9.213"></path>
<path stroke-width="2" stroke-miterlimit="4" stroke-linecap="round" stroke-linejoin="round" d="M20.947 10.553h3.707c0.001 0 0.003 0 0.004 0 0.5 0 0.945 0.233 1.234 0.597l0.003 0.003 3.013 4c0.296 0.393 0.476 0.888 0.48 1.426v6.668c0 0.147-0.119 0.267-0.267 0.267h-4.067"></path>
<path stroke-width="2" stroke-miterlimit="4" stroke-linecap="round" stroke-linejoin="round" d="M24.947 23.393c0 1.649-1.337 2.987-2.987 2.987s-2.987-1.337-2.987-2.987c0-1.649 1.337-2.987 2.987-2.987s2.987 1.337 2.987 2.987z"></path>
<path stroke-width="2" stroke-miterlimit="4" stroke-linecap="round" stroke-linejoin="round" d="M12.293 23.393c0 1.649-1.337 2.987-2.987 2.987s-2.987-1.337-2.987-2.987c0-1.649 1.337-2.987 2.987-2.987s2.987 1.337 2.987 2.987z"></path>
</symbol>
<symbol id="icon-phone-book" viewBox="0 0 32 32">
<path stroke-width="2" stroke-miterlimit="4" stroke-linecap="round" stroke-linejoin="round" d="M9.333 2.667h16c1.473 0 2.667 1.194 2.667 2.667v21.333c0 1.473-1.194 2.667-2.667 2.667h-16c-1.473 0-2.667-1.194-2.667-2.667v-21.333c0-1.473 1.194-2.667 2.667-2.667z"></path>
<path stroke-width="2" stroke-miterlimit="4" stroke-linecap="round" stroke-linejoin="round" d="M11.633 20.163l1.751 1.751c0.265 0.265 0.632 0.428 1.036 0.428s0.771-0.164 1.036-0.428l0.997-0.997c0.265-0.265 0.428-0.632 0.428-1.036s-0.164-0.771-0.428-1.036l-0.657-0.657c1.036-1.708 2.427-3.102 4.080-4.11l0.053-0.030 0.021-0.013 0.657 0.657c0.265 0.265 0.632 0.428 1.036 0.428s0.771-0.164 1.036-0.428l0.977-0.977c0.265-0.265 0.428-0.632 0.428-1.036s-0.164-0.771-0.428-1.036l-1.752-1.751c-0.132-0.132-0.315-0.214-0.518-0.214-0.151 0-0.291 0.046-0.408 0.124l0.003-0.002c-3.77 2.528-6.914 5.672-9.365 9.32l-0.077 0.121c-0.077 0.114-0.122 0.254-0.122 0.405 0 0.202 0.082 0.385 0.214 0.518v0z"></path>
</symbol>
<symbol id="icon-person" viewBox="0 0 32 32">
<path stroke-width="2" stroke-miterlimit="4" stroke-linecap="round" stroke-linejoin="round" d="M4 29.347l1.053-3.84c3.48-12.667 18.413-12.667 21.893 0l1.053 3.84"></path>
<path stroke-width="2" stroke-miterlimit="4" stroke-linecap="round" stroke-linejoin="bevel" d="M22.667 9.32c0 3.682-2.985 6.667-6.667 6.667s-6.667-2.985-6.667-6.667c0-3.682 2.985-6.667 6.667-6.667s6.667 2.985 6.667 6.667z"></path>
</symbol>
</defs>
</svg>
