<svg aria-hidden="true" style="position: absolute; width: 0; height: 0; overflow: hidden;" version="1.1" xmlns="http://www.w3.org/2000/svg" xmlns:xlink="http://www.w3.org/1999/xlink">
<defs>
<symbol id="icon-lock" viewBox="0 0 32 32">
<path stroke-width="2" stroke-miterlimit="4" stroke-linecap="round" stroke-linejoin="round" d="M5.333 10.667h21.333c1.473 0 2.667 1.194 2.667 2.667v13.333c0 1.473-1.194 2.667-2.667 2.667h-21.333c-1.473 0-2.667-1.194-2.667-2.667v-13.333c0-1.473 1.194-2.667 2.667-2.667z"></path>
<path stroke-width="2" stroke-miterlimit="4" stroke-linecap="round" stroke-linejoin="round" d="M19.333 18c0 1.841-1.492 3.333-3.333 3.333s-3.333-1.492-3.333-3.333c0-1.841 1.492-3.333 3.333-3.333s3.333 1.492 3.333 3.333z"></path>
<path stroke-width="2" stroke-miterlimit="4" stroke-linecap="round" stroke-linejoin="round" d="M8.667 10.667v-5.333c0-1.473 1.194-2.667 2.667-2.667v0h8c1.473 0 2.667 1.194 2.667 2.667v0 5.333"></path>
</symbol>
<symbol id="icon-user" viewBox="0 0 32 32">
<path stroke-width="2" stroke-miterlimit="4" stroke-linecap="round" stroke-linejoin="round" d="M4 29.347l1.053-3.84c3.48-12.667 18.413-12.667 21.893 0l1.053 3.84"></path>
<path stroke-width="2" stroke-miterlimit="4" stroke-linecap="round" stroke-linejoin="bevel" d="M22.667 9.32c0 3.682-2.985 6.667-6.667 6.667s-6.667-2.985-6.667-6.667c0-3.682 2.985-6.667 6.667-6.667s6.667 2.985 6.667 6.667z"></path>
</symbol>
<symbol id="icon-search" viewBox="0 0 32 32">
<path stroke-width="2.5653" stroke-miterlimit="4" stroke-linecap="round" stroke-linejoin="miter" d="M18.506 1.283c6.612 0 11.972 5.36 11.972 11.972s-5.36 11.972-11.972 11.972c-6.612 0-11.972-5.36-11.972-11.972v0c0-6.612 5.36-11.972 11.972-11.972v0z"></path>
<path stroke-width="2.5653" stroke-miterlimit="4" stroke-linecap="round" stroke-linejoin="miter" d="M10.16 21.84l-8.346 8.346"></path>
</symbol>
<symbol id="icon-eye" viewBox="0 0 32 32">
<path stroke-width="2" stroke-miterlimit="4" stroke-linecap="round" stroke-linejoin="round" d="M29.333 16.148l-3.467 3.84c-2.448 2.686-5.961 4.365-9.867 4.365s-7.419-1.679-9.857-4.355l-0.010-0.011-3.467-3.84 3.093-3.707c2.463-2.939 6.135-4.794 10.24-4.794s7.777 1.855 10.223 4.773l0.017 0.021z"></path>
<path stroke-width="2" stroke-miterlimit="4" stroke-linecap="round" stroke-linejoin="bevel" d="M19.587 15.668c0 1.841-1.552 3.333-3.467 3.333s-3.467-1.492-3.467-3.333c0-1.841 1.552-3.333 3.467-3.333s3.467 1.492 3.467 3.333z"></path>
</symbol>
<symbol id="icon-logout" viewBox="0 0 32 32">
<path stroke-width="2" stroke-miterlimit="4" stroke-linecap="round" stroke-linejoin="round" d="M18.137 20v5.333c0 1.473-1.194 2.667-2.667 2.667v0h-8c-1.473 0-2.667-1.194-2.667-2.667v0-18.667c0-1.473 1.194-2.667 2.667-2.667v0h8c1.473 0 2.667 1.194 2.667 2.667v0 5.333"></path>
<path stroke-width="2" stroke-miterlimit="4" stroke-linecap="round" stroke-linejoin="bevel" d="M22.289 10.667l4.581 4.581c0.202 0.202 0.327 0.481 0.327 0.789s-0.125 0.587-0.327 0.789l-4.507 4.507"></path>
</symbol>
</defs>
</svg>
